<svg width="32" height="33" viewBox="0 0 32 33" fill="none" xmlns="http://www.w3.org/2000/svg">
<mask id="mask0_0_1424" style="mask-type:alpha" maskUnits="userSpaceOnUse" x="0" y="0" width="32" height="33">
<rect y="0.164062" width="32" height="32" fill="#D9D9D9"/>
</mask>
<g mask="url(#mask0_0_1424)">
<path d="M15.3333 22.1641H16.6667V16.8307H22V15.4974H16.6667V10.1641H15.3333V15.4974H10V16.8307H15.3333V22.1641ZM16.0043 28.1641C14.345 28.1641 12.7849 27.8492 11.324 27.2194C9.86333 26.5896 8.59267 25.735 7.512 24.6554C6.43133 23.5758 5.57589 22.3063 4.94567 20.8467C4.31522 19.3874 4 17.828 4 16.1684C4 14.5091 4.31489 12.949 4.94467 11.4881C5.57444 10.0274 6.42911 8.75673 7.50867 7.67606C8.58822 6.5954 9.85778 5.73995 11.3173 5.10973C12.7767 4.47928 14.3361 4.16406 15.9957 4.16406C17.655 4.16406 19.2151 4.47895 20.676 5.10873C22.1367 5.73851 23.4073 6.59317 24.488 7.67273C25.5687 8.75229 26.4241 10.0218 27.0543 11.4814C27.6848 12.9407 28 14.5002 28 16.1597C28 17.8191 27.6851 19.3792 27.0553 20.8401C26.4256 22.3007 25.5709 23.5714 24.4913 24.6521C23.4118 25.7327 22.1422 26.5882 20.6827 27.2184C19.2233 27.8488 17.6639 28.1641 16.0043 28.1641ZM16 26.8307C18.9778 26.8307 21.5 25.7974 23.5667 23.7307C25.6333 21.6641 26.6667 19.1418 26.6667 16.1641C26.6667 13.1863 25.6333 10.6641 23.5667 8.5974C21.5 6.53073 18.9778 5.4974 16 5.4974C13.0222 5.4974 10.5 6.53073 8.43333 8.5974C6.36667 10.6641 5.33333 13.1863 5.33333 16.1641C5.33333 19.1418 6.36667 21.6641 8.43333 23.7307C10.5 25.7974 13.0222 26.8307 16 26.8307Z" fill="#FFA600"/>
</g>
</svg>
