<svg width="98" height="98" viewBox="0 0 98 98" fill="none" xmlns="http://www.w3.org/2000/svg">
<mask id="mask0_0_2732" style="mask-type:alpha" maskUnits="userSpaceOnUse" x="0" y="0" width="98" height="98">
<rect width="97.7534" height="97.7534" fill="#D9D9D9"/>
</mask>
<g mask="url(#mask0_0_2732)">
<path d="M55.0729 45.0073L40.6604 30.5948L43.5665 27.7905L55.0729 39.2968L78.1875 16.2841L80.9908 19.0884L55.0729 45.0073ZM28.5115 75.9778L59.3262 84.9701L83.7167 77.4349C83.6386 76.1974 83.2643 75.3057 82.5936 74.76C81.9222 74.2142 81.1792 73.9413 80.3646 73.9413H61.0491C59.3208 73.9413 57.7567 73.8734 56.3569 73.7376C54.9579 73.6018 53.5245 73.2784 52.0568 72.7672L43.1358 69.8448L44.5135 65.8186L52.7615 68.8031C54.0723 69.2993 55.5607 69.597 57.2265 69.6961C58.8924 69.7952 61.1744 69.8526 64.0723 69.8682C64.0723 68.5994 63.8388 67.5734 63.3718 66.79C62.904 66.0066 62.2344 65.4612 61.3627 65.1536L37.9264 56.5524C37.7695 56.5008 37.626 56.4617 37.4956 56.4353C37.3653 56.4095 37.2217 56.3966 37.0649 56.3966H28.5115V75.9778ZM12.2192 85.5342V52.3235H36.9865C37.3571 52.3235 37.741 52.3612 38.1382 52.4365C38.5346 52.5126 38.9107 52.6185 39.2664 52.7542L62.8036 61.3779C64.2604 61.9312 65.5149 62.926 66.5671 64.3624C67.6193 65.7982 68.1454 67.6335 68.1454 69.8682H80.3646C82.8186 69.8682 84.6987 70.636 86.0047 72.1715C87.3102 73.7064 87.9629 75.654 87.9629 78.0143V80.5213L59.5299 89.2936L28.5115 80.2545V85.5342H12.2192ZM16.2923 81.4612H24.4384V56.3966H16.2923V81.4612Z" fill="#00AFBF"/>
</g>
</svg>
