<svg width="40" height="40" viewBox="0 0 40 40" fill="none" xmlns="http://www.w3.org/2000/svg">
<mask id="mask0_0_2598" style="mask-type:alpha" maskUnits="userSpaceOnUse" x="0" y="0" width="40" height="40">
<rect width="40" height="40" fill="#D9D9D9"/>
</mask>
<g mask="url(#mask0_0_2598)">
<path d="M10.8343 28.3329V14.9996H12.5009V28.3329H10.8343ZM19.1676 28.3329V14.9996H20.8343V28.3329H19.1676ZM5.89844 11.6662V10.2558L20.0009 3.52539L34.1034 10.2558V11.6662H5.89844ZM10.3118 9.99956H29.6901L20.0009 5.41622L10.3118 9.99956ZM5.89844 33.3329V31.6662H24.4114C24.4241 31.9718 24.4508 32.2565 24.4914 32.5204C24.5319 32.7843 24.5821 33.0551 24.6418 33.3329H5.89844ZM27.5009 23.7816V14.9996H29.1676V22.9483L27.5009 23.7816ZM33.3343 38.7175C31.6954 38.3094 30.3455 37.3762 29.2847 35.9179C28.2239 34.4596 27.6934 32.8351 27.6934 31.0446V27.4354L33.3343 24.615L38.9751 27.4354V31.0446C38.9751 32.8351 38.4447 34.4596 37.3839 35.9179C36.323 37.3762 34.9732 38.3094 33.3343 38.7175ZM32.1259 34.2946L37.1805 29.2496L36.1355 28.2046L32.1259 32.195L30.5009 30.57L29.4559 31.6246L32.1259 34.2946Z" fill="#00AFBF"/>
</g>
</svg>
