<svg width="80" height="80" viewBox="0 0 80 80" fill="none" xmlns="http://www.w3.org/2000/svg">
<mask id="mask0_0_3280" style="mask-type:alpha" maskUnits="userSpaceOnUse" x="0" y="0" width="80" height="80">
<rect width="80" height="80" fill="#002E2D"/>
</mask>
<g mask="url(#mask0_0_3280)">
<path opacity="0.6" d="M25.5 41.1667H54.5V38.8333H25.5V41.1667ZM40.0142 69C36.0047 69 32.2344 68.2392 28.7033 66.7175C25.1722 65.1958 22.1008 63.1306 19.4892 60.5217C16.8769 57.9128 14.8092 54.8453 13.2858 51.3192C11.7619 47.7925 11 44.0242 11 40.0142C11 36.0047 11.7608 32.2344 13.2825 28.7033C14.8042 25.1722 16.8694 22.1008 19.4783 19.4892C22.0872 16.8769 25.1547 14.8092 28.6808 13.2858C32.2075 11.7619 35.9758 11 39.9858 11C43.9953 11 47.7656 11.7608 51.2967 13.2825C54.8278 14.8042 57.8992 16.8694 60.5108 19.4783C63.1231 22.0872 65.1908 25.1547 66.7142 28.6808C68.2381 32.2075 69 35.9758 69 39.9858C69 43.9953 68.2392 47.7656 66.7175 51.2967C65.1958 54.8278 63.1306 57.8992 60.5217 60.5108C57.9128 63.1231 54.8453 65.1908 51.3192 66.7142C47.7925 68.2381 44.0242 69 40.0142 69ZM40 66.6667C47.4444 66.6667 53.75 64.0833 58.9167 58.9167C64.0833 53.75 66.6667 47.4444 66.6667 40C66.6667 32.5556 64.0833 26.25 58.9167 21.0833C53.75 15.9167 47.4444 13.3333 40 13.3333C32.5556 13.3333 26.25 15.9167 21.0833 21.0833C15.9167 26.25 13.3333 32.5556 13.3333 40C13.3333 47.4444 15.9167 53.75 21.0833 58.9167C26.25 64.0833 32.5556 66.6667 40 66.6667Z" fill="#002E2D"/>
</g>
</svg>
