<svg width="80" height="80" viewBox="0 0 80 80" fill="none" xmlns="http://www.w3.org/2000/svg">
<mask id="mask0_0_3273" style="mask-type:alpha" maskUnits="userSpaceOnUse" x="0" y="0" width="80" height="80">
<rect width="80" height="80" fill="#002E2D"/>
</mask>
<g mask="url(#mask0_0_3273)">
<path d="M38.8328 54.5002H41.1662V41.1669H54.4995V38.8335H41.1662V25.5002H38.8328V38.8335H25.4995V41.1669H38.8328V54.5002ZM40.0137 69.0002C36.0042 69.0002 32.234 68.2394 28.7028 66.7177C25.1717 65.196 22.1003 63.1307 19.4887 60.5219C16.8765 57.913 14.8087 54.8455 13.2853 51.3194C11.7615 47.7927 10.9995 44.0244 10.9995 40.0144C10.9995 36.0049 11.7603 32.2346 13.282 28.7035C14.8037 25.1724 16.869 22.101 19.4778 19.4893C22.0867 16.8771 25.1542 14.8093 28.6803 13.286C32.207 11.7621 35.9753 11.0002 39.9853 11.0002C43.9948 11.0002 47.7651 11.761 51.2962 13.2827C54.8273 14.8044 57.8987 16.8696 60.5103 19.4785C63.1226 22.0874 65.1903 25.1549 66.7137 28.681C68.2376 32.2077 68.9995 35.976 68.9995 39.986C68.9995 43.9955 68.2387 47.7657 66.717 51.2969C65.1953 54.828 63.1301 57.8994 60.5212 60.511C57.9123 63.1232 54.8448 65.191 51.3187 66.7144C47.792 68.2382 44.0237 69.0002 40.0137 69.0002ZM39.9995 66.6669C47.444 66.6669 53.7495 64.0835 58.9162 58.9169C64.0828 53.7502 66.6662 47.4446 66.6662 40.0002C66.6662 32.5557 64.0828 26.2502 58.9162 21.0835C53.7495 15.9169 47.444 13.3335 39.9995 13.3335C32.5551 13.3335 26.2495 15.9169 21.0828 21.0835C15.9162 26.2502 13.3328 32.5557 13.3328 40.0002C13.3328 47.4446 15.9162 53.7502 21.0828 58.9169C26.2495 64.0835 32.5551 66.6669 39.9995 66.6669Z" fill="#002E2D"/>
</g>
</svg>
