<svg width="40" height="40" viewBox="0 0 40 40" fill="none" xmlns="http://www.w3.org/2000/svg">
<mask id="mask0_0_2652" style="mask-type:alpha" maskUnits="userSpaceOnUse" x="0" y="0" width="40" height="40">
<rect width="40" height="40" fill="#D9D9D9"/>
</mask>
<g mask="url(#mask0_0_2652)">
<path d="M9.35998 33.3337C8.59276 33.3337 7.9522 33.0767 7.43831 32.5628C6.92442 32.0489 6.66748 31.4084 6.66748 30.6412V9.35949C6.66748 8.59227 6.92442 7.95171 7.43831 7.43782C7.9522 6.92393 8.59276 6.66699 9.35998 6.66699H23.3375L21.6708 8.33366H9.35998C9.10331 8.33366 8.86818 8.44046 8.65456 8.65407C8.44095 8.86768 8.33415 9.10282 8.33415 9.35949V30.6412C8.33415 30.8978 8.44095 31.133 8.65456 31.3466C8.86818 31.5602 9.10331 31.667 9.35998 31.667H30.6416C30.8983 31.667 31.1335 31.5602 31.3471 31.3466C31.5607 31.133 31.6675 30.8978 31.6675 30.6412V18.1607L33.3341 16.4941V30.6412C33.3341 31.4084 33.0772 32.0489 32.5633 32.5628C32.0494 33.0767 31.4089 33.3337 30.6416 33.3337H9.35998ZM16.6675 23.3337V18.9745L31.5746 4.06782C31.7582 3.88393 31.9515 3.75671 32.1546 3.68616C32.3576 3.6156 32.5714 3.58032 32.7958 3.58032C33.0053 3.58032 33.2098 3.6156 33.4096 3.68616C33.6093 3.75671 33.7904 3.87324 33.9529 4.03574L35.8054 5.83366C35.9826 6.01755 36.1172 6.22005 36.2091 6.44116C36.3011 6.66227 36.3471 6.88504 36.3471 7.10949C36.3471 7.33366 36.3133 7.5456 36.2458 7.74532C36.1786 7.94532 36.0532 8.13713 35.8696 8.32074L20.8662 23.3337H16.6675ZM18.3341 21.667H20.1546L31.2637 10.5578L30.3533 9.64782L29.3375 8.67324L18.3341 19.6766V21.667Z" fill="#00AFBF"/>
</g>
</svg>
