<svg width="26" height="26" viewBox="0 0 26 26" fill="none" xmlns="http://www.w3.org/2000/svg">
<path d="M23.73 25.2C20.8133 25.2 17.9317 24.5642 15.085 23.2925C12.2383 22.0208 9.64833 20.2183 7.315 17.885C4.98167 15.5517 3.17917 12.9617 1.9075 10.115C0.635834 7.26833 0 4.38667 0 1.47C0 1.05 0.14 0.7 0.42 0.42C0.7 0.14 1.05 0 1.47 0H7.14C7.46667 0 7.75833 0.110833 8.015 0.3325C8.27167 0.554167 8.42333 0.816667 8.47 1.12L9.38 6.02C9.42667 6.39333 9.415 6.70833 9.345 6.965C9.275 7.22167 9.14667 7.44333 8.96 7.63L5.565 11.06C6.03167 11.9233 6.58583 12.7575 7.2275 13.5625C7.86917 14.3675 8.575 15.1433 9.345 15.89C10.0683 16.6133 10.8267 17.2842 11.62 17.9025C12.4133 18.5208 13.2533 19.0867 14.14 19.6L17.43 16.31C17.64 16.1 17.9142 15.9425 18.2525 15.8375C18.5908 15.7325 18.9233 15.7033 19.25 15.75L24.08 16.73C24.4067 16.8233 24.675 16.9925 24.885 17.2375C25.095 17.4825 25.2 17.7567 25.2 18.06V23.73C25.2 24.15 25.06 24.5 24.78 24.78C24.5 25.06 24.15 25.2 23.73 25.2ZM4.235 8.4L6.545 6.09L5.95 2.8H2.835C2.95167 3.75667 3.115 4.70167 3.325 5.635C3.535 6.56833 3.83833 7.49 4.235 8.4ZM16.765 20.93C17.675 21.3267 18.6025 21.6417 19.5475 21.875C20.4925 22.1083 21.4433 22.26 22.4 22.33V19.25L19.11 18.585L16.765 20.93Z" fill="white"/>
</svg>
