<svg width="32" height="33" viewBox="0 0 32 33" fill="none" xmlns="http://www.w3.org/2000/svg">
<mask id="mask0_0_482" style="mask-type:alpha" maskUnits="userSpaceOnUse" x="0" y="0" width="32" height="33">
<rect y="0.164062" width="32" height="32" fill="#D9D9D9"/>
</mask>
<g mask="url(#mask0_0_482)">
<path d="M26.6 28.1641C23.8222 28.1641 21.0778 27.5585 18.3667 26.3474C15.6556 25.1363 13.1889 23.4196 10.9667 21.1974C8.74444 18.9752 7.02778 16.5085 5.81667 13.7974C4.60556 11.0863 4 8.34184 4 5.56406C4 5.16406 4.13333 4.83073 4.4 4.56406C4.66667 4.2974 5 4.16406 5.4 4.16406H10.8C11.1111 4.16406 11.3889 4.26962 11.6333 4.48073C11.8778 4.69184 12.0222 4.94184 12.0667 5.23073L12.9333 9.8974C12.9778 10.253 12.9667 10.553 12.9 10.7974C12.8333 11.0418 12.7111 11.253 12.5333 11.4307L9.3 14.6974C9.74444 15.5196 10.2722 16.3141 10.8833 17.0807C11.4944 17.8474 12.1667 18.5863 12.9 19.2974C13.5889 19.9863 14.3111 20.6252 15.0667 21.2141C15.8222 21.803 16.6222 22.3418 17.4667 22.8307L20.6 19.6974C20.8 19.4974 21.0611 19.3474 21.3833 19.2474C21.7056 19.1474 22.0222 19.1196 22.3333 19.1641L26.9333 20.0974C27.2444 20.1863 27.5 20.3474 27.7 20.5807C27.9 20.8141 28 21.0752 28 21.3641V26.7641C28 27.1641 27.8667 27.4974 27.6 27.7641C27.3333 28.0307 27 28.1641 26.6 28.1641ZM8.03333 12.1641L10.2333 9.96406L9.66667 6.83073H6.7C6.81111 7.74184 6.96667 8.64184 7.16667 9.53073C7.36667 10.4196 7.65556 11.2974 8.03333 12.1641ZM19.9667 24.0974C20.8333 24.4752 21.7167 24.7752 22.6167 24.9974C23.5167 25.2196 24.4222 25.3641 25.3333 25.4307V22.4974L22.2 21.8641L19.9667 24.0974Z" fill="#FFA600"/>
</g>
</svg>
