<svg width="32" height="32" viewBox="0 0 32 32" fill="none" xmlns="http://www.w3.org/2000/svg">
<mask id="mask0_0_48" style="mask-type:alpha" maskUnits="userSpaceOnUse" x="0" y="0" width="32" height="32">
<rect width="32" height="32" fill="#D9D9D9"/>
</mask>
<g mask="url(#mask0_0_48)">
<path d="M25.2416 26.6615C22.9939 26.6615 20.6896 26.0987 18.329 24.9731C15.9683 23.8473 13.7751 22.2673 11.7493 20.2331C9.72376 18.1991 8.1481 16.006 7.02232 13.6538C5.89676 11.3016 5.33398 9.00157 5.33398 6.75379C5.33398 6.34646 5.46732 6.00701 5.73398 5.73546C6.00065 5.4639 6.33398 5.32812 6.73398 5.32812H10.0313C10.3938 5.32812 10.71 5.44224 10.98 5.67046C11.2502 5.89868 11.4332 6.19146 11.529 6.54879L12.1903 9.72812C12.2519 10.1008 12.2408 10.4265 12.157 10.7051C12.0732 10.9838 11.9253 11.212 11.7133 11.3898L8.78798 14.1178C9.33487 15.1109 9.93954 16.0336 10.602 16.8858C11.2644 17.738 11.9709 18.5452 12.7213 19.3075C13.4955 20.0819 14.3289 20.802 15.2213 21.4678C16.1135 22.1336 17.093 22.7622 18.1597 23.3538L21.011 20.4511C21.2281 20.2169 21.4721 20.0627 21.743 19.9885C22.0139 19.914 22.3134 19.899 22.6416 19.9435L25.4466 20.5178C25.8091 20.6067 26.1032 20.7892 26.329 21.0655C26.5545 21.3415 26.6673 21.6581 26.6673 22.0155V25.2615C26.6673 25.6615 26.5315 25.9948 26.26 26.2615C25.9884 26.5281 25.649 26.6615 25.2416 26.6615ZM8.16232 12.8665L10.7213 10.5128C10.8067 10.4443 10.8622 10.3503 10.888 10.2308C10.9135 10.111 10.9092 9.9999 10.875 9.89746L10.2827 7.07179C10.2484 6.9349 10.1887 6.83235 10.1033 6.76413C10.0178 6.69568 9.90665 6.66146 9.76998 6.66146H7.03398C6.93132 6.66146 6.84587 6.69568 6.77765 6.76413C6.70921 6.83235 6.67498 6.91779 6.67498 7.02046C6.70054 7.93157 6.84332 8.88279 7.10332 9.87413C7.3631 10.8657 7.7161 11.8631 8.16232 12.8665ZM19.429 23.9795C20.3296 24.4257 21.2899 24.7556 22.3097 24.9691C23.3292 25.1829 24.2176 25.2975 24.975 25.3128C25.0777 25.3128 25.1631 25.2786 25.2313 25.2101C25.2998 25.1417 25.334 25.0562 25.334 24.9538V22.2768C25.334 22.1401 25.2998 22.029 25.2313 21.9435C25.1631 21.8581 25.0605 21.7983 24.9237 21.7641L22.457 21.2588C22.3545 21.2246 22.2649 21.2203 22.188 21.2461C22.1109 21.2717 22.0296 21.3272 21.9443 21.4128L19.429 23.9795Z" fill="white"/>
</g>
</svg>
