<svg width="24" height="24" viewBox="0 0 24 24" fill="none" xmlns="http://www.w3.org/2000/svg">
<circle cx="12" cy="12" r="12" fill="#00AFBF"/>
<path d="M17.8203 12.6602V16.3057C17.8203 16.3953 17.7486 16.4706 17.6554 16.4706H15.7735C15.6839 16.4706 15.6086 16.3989 15.6086 16.3057V12.9147C15.6086 12.0221 15.2896 11.4127 14.4902 11.4127C13.8809 11.4127 13.5188 11.8214 13.3575 12.2193C13.3002 12.3627 13.2858 12.5598 13.2858 12.757V16.3057C13.2858 16.3953 13.2141 16.4706 13.1209 16.4706H11.2391C11.1494 16.4706 11.0742 16.3989 11.0742 16.3057C11.0778 15.4024 11.0957 11.022 11.0778 9.98968C11.0778 9.90007 11.1494 9.82479 11.2391 9.82479H13.1174C13.207 9.82479 13.2823 9.89648 13.2823 9.98968V10.7675C13.2823 10.7675 13.2715 10.7819 13.2679 10.789H13.2823V10.7675C13.5762 10.3159 14.0995 9.67065 15.2717 9.67065C16.7234 9.67065 17.8131 10.6206 17.8131 12.6602H17.8203ZM7.81223 16.4706H9.69412C9.78373 16.4706 9.859 16.3989 9.859 16.3057V9.98968C9.859 9.90007 9.78731 9.82479 9.69412 9.82479H7.81223C7.72261 9.82479 7.64734 9.89648 7.64734 9.98968V16.3057C7.64734 16.3953 7.71903 16.4706 7.81223 16.4706Z" fill="white"/>
<path d="M8.6829 8.9825C9.3362 8.9825 9.86581 8.4529 9.86581 7.7996C9.86581 7.1463 9.3362 6.6167 8.6829 6.6167C8.0296 6.6167 7.5 7.1463 7.5 7.7996C7.5 8.4529 8.0296 8.9825 8.6829 8.9825Z" fill="white"/>
</svg>
