<svg width="64" height="64" viewBox="0 0 64 64" fill="none" xmlns="http://www.w3.org/2000/svg">
<mask id="mask0_0_2375" style="mask-type:alpha" maskUnits="userSpaceOnUse" x="0" y="0" width="64" height="64">
<rect width="64" height="64" fill="#D9D9D9"/>
</mask>
<g mask="url(#mask0_0_2375)">
<path d="M32.6307 39.092C35.0925 39.092 37.2156 38.2973 39.0001 36.708C40.7845 35.1182 41.6768 33.1744 41.6768 30.8767C41.6768 28.9247 41.0623 27.2589 39.8334 25.8793C38.6045 24.4998 37.0739 23.81 35.2414 23.81C33.6992 23.81 32.3683 24.3144 31.2487 25.3233C30.1292 26.3318 29.5694 27.5573 29.5694 29C29.5694 29.6391 29.7019 30.2562 29.9667 30.8513C30.2316 31.446 30.6067 32.0084 31.0921 32.5387L33.1488 30.6873C32.8443 30.4616 32.6161 30.2136 32.4641 29.9433C32.3121 29.6736 32.2361 29.3813 32.2361 29.0667C32.2361 28.4409 32.4959 27.864 33.0154 27.336C33.535 26.8076 34.277 26.5433 35.2414 26.5433C36.2667 26.5433 37.1539 26.9442 37.9027 27.746C38.6512 28.5478 39.0254 29.6136 39.0254 30.9433C39.0254 32.4238 38.4332 33.7102 37.2487 34.8027C36.0643 35.8951 34.5472 36.4413 32.6974 36.4413C30.5743 36.4413 28.7479 35.5969 27.2181 33.908C25.6883 32.2191 24.9234 30.1011 24.9234 27.554C24.9234 26.2651 25.1763 25.0231 25.6821 23.828C26.1883 22.6333 26.9199 21.5573 27.8767 20.6L25.9234 18.6973C24.7403 19.8702 23.8223 21.2138 23.1694 22.728C22.5165 24.2427 22.1901 25.8291 22.1901 27.4873C22.1901 30.6802 23.1952 33.4127 25.2054 35.6847C27.2156 37.9562 29.6907 39.092 32.6307 39.092ZM18.6667 56V45.9693C16.1334 43.6582 14.1667 41.0607 12.7667 38.1767C11.3667 35.2931 10.6667 32.3282 10.6667 29.282C10.6667 23.3673 12.7436 18.3418 16.8974 14.2053C21.0512 10.0684 26.0854 8 32.0001 8C36.8036 8 41.1447 9.46244 45.0234 12.3873C48.9021 15.3122 51.4174 19.0891 52.5694 23.718L55.3181 34.6667C55.5061 35.34 55.3848 35.9529 54.9541 36.5053C54.5234 37.0573 53.949 37.3333 53.2308 37.3333H48.0001V46.3587C48.0001 47.552 47.5805 48.5684 46.7414 49.408C45.9019 50.2471 44.8854 50.6667 43.6921 50.6667H37.3334V56H34.6667V48H43.6921C44.1707 48 44.5641 47.8462 44.8721 47.5387C45.1796 47.2307 45.3334 46.8373 45.3334 46.3587V34.6667H52.5334L50.0001 24.3333C48.9779 20.2547 46.783 16.9573 43.4154 14.4413C40.0479 11.9249 36.2427 10.6667 32.0001 10.6667C26.8445 10.6667 22.4445 12.4751 18.8001 16.092C15.1556 19.7093 13.3334 24.0958 13.3334 29.2513C13.3334 31.918 13.8779 34.4427 14.9667 36.8253C16.0556 39.2084 17.6001 41.3333 19.6001 43.2L21.3334 44.8V56H18.6667Z" fill="#00AFBF"/>
</g>
</svg>
