<svg width="756" height="647" viewBox="0 0 756 647" fill="none" xmlns="http://www.w3.org/2000/svg">
<path d="M790.228 387.196V387.672C794.703 390.051 798 394.809 798 400.518C798 406.464 795.173 411.459 790.698 414.313L410.074 644.809C407.954 646.236 405.364 646.949 402.302 646.949C399.946 646.949 397.591 646.235 395.235 645.046L8.0166 425.493C3.30605 422.401 0.244141 417.405 0.244141 411.935C0.244257 406.464 3.07083 401.23 7.5459 398.376L84.5654 351.754L115.421 369.356L45.9375 411.222L401.83 613.41L752.07 400.993L683.53 361.982L713.679 343.904L790.228 387.196ZM790.219 252.336L789.747 253.287C794.222 255.428 797.521 260.424 797.521 265.895C797.521 271.841 794.694 276.837 790.219 279.691L712.963 326.313L697.653 335.59L659.968 358.188L652.431 362.945L645.129 367.465L409.595 510.186C407.475 511.375 404.884 512.089 401.822 512.089C399.467 512.089 397.111 511.375 394.756 510.424L145.796 369.367L130.486 360.566L99.3955 342.964L84.0859 334.163L7.77246 290.871C3.06177 288.017 0 282.783 0 277.55C0.000111311 271.841 2.82669 266.608 7.30176 263.991L84.5566 217.132L115.412 234.733L45.9297 276.837L114.47 315.609L129.773 324.169L129.788 324.161V324.178L160.87 341.774L176.18 350.338L401.822 478.312L622.047 344.867L637.121 335.59L667.27 317.274L682.579 307.997L752.062 265.895L683.521 227.122L713.67 208.806L790.219 252.336ZM396.169 -104C398.76 -104 401.351 -103.524 403.706 -102.097L790.219 117.218L789.747 117.456C794.458 120.31 797.52 125.067 797.521 130.538C797.521 136.247 794.694 141.481 790.219 144.335L712.963 190.957L698.021 200.152L698.596 200.48L668.212 218.797L667.638 218.469L667.505 218.55L660.203 223.069L652.431 227.589L645.129 232.108L598.258 260.415L583.302 269.618L583.428 269.689L553.044 288.005L552.92 287.935L552.8 288.008L537.726 297.284L504.044 317.741L409.83 374.83C407.946 375.782 405.355 376.971 402.058 376.971C399.231 376.971 396.64 376.257 394.285 374.592L260.973 299.188L245.427 290.387L214.572 272.784L199.026 264.221L146.031 234.012L130.486 225.448L99.6309 207.846L84.3213 199.045L7.77246 155.753C3.06184 153.136 8.77125e-05 148.141 0 142.194C0 136.723 2.8266 131.727 7.30176 128.873L388.161 -101.859C390.516 -103.286 393.343 -104 396.169 -104ZM46.4004 141.956L115.177 180.729L130.486 189.292L160.87 206.656L161.577 207.132L176.18 215.458L176.887 215.934L230.117 246.143L245.662 254.943L276.282 272.546L291.827 281.109L402.528 343.906L507.577 280.158L522.867 270.892L522.424 270.641L552.809 252.325L553.251 252.576L553.271 252.565L568.345 243.288L622.518 210.225L637.356 200.947L667.505 182.869L682.579 173.593L752.062 131.49L396.169 -70.6982L46.4004 141.956ZM230.126 299.661L175.718 332.486L145.098 314.885L152.399 310.365L199.507 282.059L230.126 299.661ZM645.138 304.894L652.204 308.938L622.056 327.016L568.824 297.044L598.973 278.729L645.138 304.894ZM396.178 165.503C398.533 165.503 401.124 166.217 403.244 167.406H403.008L536.792 243.286L506.408 261.84L480.97 247.33L395.942 199.042L317.038 246.854L302.199 255.893L291.129 262.791L260.51 245.188L279.117 234.009L293.956 224.732L388.17 167.644C390.525 166.216 393.351 165.503 396.178 165.503ZM395.934 31.1182C398.76 31.1182 401.351 31.5943 403.706 33.0215L651.96 174.077L629.349 187.874L621.576 192.394L396.169 64.4199L175.944 197.626L167.937 193.106L145.325 180.262L152.626 175.742L388.161 33.0215C390.516 31.8321 393.107 31.1182 395.934 31.1182Z" fill="url(#paint0_linear_336_181)"/>
<defs>
<linearGradient id="paint0_linear_336_181" x1="771.968" y1="-104" x2="26.0325" y2="646.949" gradientUnits="userSpaceOnUse">
<stop stop-color="#00EAFF"/>
<stop offset="1" stop-color="#00AFBF"/>
</linearGradient>
</defs>
</svg>
