<svg width="113" height="128" viewBox="0 0 113 128" fill="none" xmlns="http://www.w3.org/2000/svg">
<path d="M56.2222 127.048C55.2487 127.048 54.336 126.926 53.4841 126.683C52.6323 126.439 51.8413 126.074 51.1111 125.587L5.11111 98.754C3.40741 97.7804 2.12963 96.5027 1.27778 94.9206C0.425926 93.3386 0 91.6349 0 89.8095V37.2381C0 35.4127 0.425926 33.709 1.27778 32.127C2.12963 30.545 3.40741 29.2672 5.11111 28.2937L51.1111 1.46032C51.8413 0.973545 52.6323 0.608466 53.4841 0.365079C54.336 0.121693 55.2487 0 56.2222 0C57.0741 0 57.9259 0.121693 58.7778 0.365079C59.6296 0.608466 60.4815 0.973545 61.3333 1.46032L107.333 28.2937C108.915 29.2672 110.163 30.545 111.075 32.127C111.988 33.709 112.444 35.4127 112.444 37.2381V89.8095C112.444 91.6349 111.988 93.3386 111.075 94.9206C110.163 96.5027 108.915 97.7804 107.333 98.754L61.3333 125.587C60.4815 126.074 59.6296 126.439 58.7778 126.683C57.9259 126.926 57.0741 127.048 56.2222 127.048ZM33.4048 86.5238V66.0794H5.11111V89.4445C5.11111 90.418 5.3545 91.3307 5.84127 92.1825C6.32804 93.0344 7.0582 93.7646 8.03175 94.373L53.6667 121.206V86.5238H33.4048ZM33.4048 40.5238H53.6667V5.84127L8.03175 32.6746C7.0582 33.2831 6.32804 34.0132 5.84127 34.8651C5.3545 35.7169 5.11111 36.6296 5.11111 37.6032V60.9683H33.4048V40.5238ZM38.5159 81.4127H73.746V45.8175H38.5159V81.4127ZM78.8572 86.5238H58.7778V121.206L104.413 94.373C105.386 93.7646 106.116 93.0344 106.603 92.1825C107.09 91.3307 107.333 90.418 107.333 89.4445V66.0794H78.8572V86.5238ZM78.8572 40.5238V60.9683H107.333V37.6032C107.333 36.6296 107.09 35.7169 106.603 34.8651C106.116 34.0132 105.386 33.2831 104.413 32.6746L58.7778 5.84127V40.5238H78.8572Z" fill="#00AFBF"/>
</svg>
