<svg width="254" height="36" viewBox="0 0 254 36" fill="none" xmlns="http://www.w3.org/2000/svg">
<g clip-path="url(#clip0_336_233)">
<path d="M32.0102 20.2128L30.5645 21.0911L32.0328 21.9238L33.4785 21.0569L32.0102 20.2128ZM26.5096 17.0873L25.0525 17.9657L26.5209 18.7984L27.9779 17.92L26.5096 17.0873ZM11.7471 17.2014L10.2901 18.0683L11.7697 18.9124L13.2155 18.0455L11.7471 17.2014ZM6.22392 20.5322L4.76688 21.4219L6.2578 22.266L7.71485 21.3877L6.22392 20.5436V20.5322ZM37.8949 23.555L34.224 21.479L32.7783 22.3459L36.0651 24.2166L19.2695 34.4029L2.20293 24.7071L5.53493 22.6995L4.0553 21.8554L0.361861 24.0911C0.147258 24.228 0.0117188 24.479 0.0117188 24.7413C0.0117188 25.0037 0.158553 25.2432 0.384451 25.3915L18.9533 35.92C19.0662 35.9771 19.1792 36.0113 19.2921 36.0113C19.439 36.0113 19.5632 35.9771 19.6649 35.9086L37.9174 24.8554C38.132 24.7185 38.2676 24.479 38.2676 24.1938C38.2676 23.92 38.1095 23.6919 37.8949 23.5778V23.555ZM9.56721 18.5132L7.30823 19.8706L6.95809 20.0873L8.42643 20.9314L11.0356 19.3573L9.56721 18.5132ZM19.3373 13.0151C19.2357 12.958 19.1114 12.9238 18.9985 12.9238C18.8629 12.9238 18.7274 12.958 18.6144 13.0265L14.0965 15.7641L13.3849 16.209L12.4926 16.7451L13.9609 17.5892L14.4918 17.2584L15.2034 16.825L18.9872 14.5322L23.0646 16.8478L24.2845 17.5436L25.7415 16.6539L19.326 13.0151H19.3373ZM30.9372 19.6082L28.7234 18.3535L27.2776 19.2318L29.8303 20.6691L31.276 19.8022L30.9372 19.6082Z" fill="#00AFBF"/>
<path d="M37.8944 17.0888L34.2236 15.0014L32.7778 15.8797L36.0647 17.739L32.7327 19.758L31.9985 20.2029L30.5527 21.0812L29.8299 21.5261L19.2691 27.9253L8.4486 21.7885L7.71443 21.3778L6.2235 20.5337L5.48933 20.1231L2.20251 18.2637L5.53451 16.2447L4.05487 15.4006L0.350142 17.6478C0.135539 17.7732 0 18.0242 0 18.298C0 18.5489 0.146834 18.7999 0.372732 18.9367L4.03228 21.0128L4.76645 21.4348L6.25738 22.2789L6.99155 22.701L18.9303 29.4653C19.0432 29.5109 19.1562 29.5451 19.2691 29.5451C19.416 29.5451 19.5402 29.5109 19.6419 29.4539L30.9368 22.6097L31.2869 22.393L31.6483 22.1649L32.0098 21.9481L33.4555 21.0812L34.1897 20.6364L37.8944 18.4006C38.109 18.2637 38.2446 18.0242 38.2446 17.739C38.2446 17.4767 38.0864 17.2371 37.8718 17.1345L37.8944 17.0888ZM7.69184 14.8873L6.23479 14.0546L4.77775 14.9443L6.25738 15.7885L7.71443 14.9101L7.68054 14.8873H7.69184ZM19.3595 6.57172C19.2465 6.50328 19.1223 6.48047 18.9867 6.48047C18.8512 6.48047 18.727 6.51469 18.614 6.57172L7.3191 13.4158L6.96896 13.6326L8.05327 14.2485L8.4373 14.4653L18.998 8.07743L29.8073 14.2143L30.18 13.9976L31.2643 13.336L19.3595 6.57172ZM32.0098 13.758L30.564 14.625L30.5866 14.6478L32.0437 15.4805L33.5007 14.6021L32.0211 13.758H32.0098Z" fill="#00AFBF"/>
<path d="M37.8944 10.6084L19.3595 0.0912547C19.2465 0.0228137 19.1223 0 18.998 0C18.8625 0 18.727 0.0342205 18.614 0.102662L0.350142 11.1673C0.135539 11.3042 0 11.5437 0 11.8061C0 12.0913 0.146834 12.3308 0.372732 12.4563L4.04358 14.5323L4.77775 14.9544L6.25738 15.7985L7.00285 16.2091L9.5442 17.6578L10.2897 18.0684L11.7693 18.9125L12.5148 19.3346L18.9077 22.9506C19.0206 23.0304 19.1449 23.0646 19.2804 23.0646C19.4385 23.0646 19.5628 23.0076 19.6531 22.962L24.1711 20.2243L25.7863 19.2433L26.5092 18.7985L27.9662 17.9202L28.6891 17.4753L30.9368 16.1179L31.2869 15.9011L31.6596 15.6844L32.0098 15.4677L33.4668 14.5894L34.1897 14.1445L37.8944 11.9087C38.109 11.7719 38.2446 11.5209 38.2446 11.2471C38.2446 10.9848 38.0977 10.7567 37.8718 10.6198L37.8944 10.6084ZM32.7327 13.3118L32.0098 13.7567L30.564 14.6236L29.8525 15.0684L27.2546 16.654L26.5318 17.0989L25.0747 17.9772L24.3405 18.4221L19.303 21.4791L13.9944 18.4677L13.2489 18.057L11.7806 17.2129L11.0351 16.7909L8.48248 15.3422L8.4486 15.3194L7.74831 14.9202L7.71443 14.8973L6.25738 14.0646L5.52321 13.654L2.2251 11.7947L18.998 1.59696L36.0647 11.2928L32.7327 13.3118Z" fill="#00AFBF"/>
<path d="M46.4668 18.0011C46.4668 12.4232 50.5669 8.61328 55.6834 8.61328C59.2188 8.61328 61.4213 10.3243 62.8218 12.4574L60.529 13.6779C59.5915 12.1494 57.8069 11.0315 55.6834 11.0315C52.0465 11.0315 49.2453 13.9175 49.2453 18.0011C49.2453 22.0848 52.0465 24.9707 55.6834 24.9707C57.8069 24.9707 59.5915 23.8528 60.529 22.3357L62.8218 23.5562C61.3874 25.6779 59.2075 27.3889 55.6834 27.3889C50.5669 27.3889 46.4668 23.5791 46.4668 18.0011Z" fill="#002E2D"/>
<path d="M78.3415 8.61133C83.7066 8.61133 87.4 12.6151 87.4 17.9992C87.4 23.3832 83.7066 27.387 78.3415 27.387C72.9764 27.387 69.283 23.3832 69.283 17.9992C69.283 12.6151 72.9764 8.61133 78.3415 8.61133ZM78.3415 11.0296C74.4899 11.0296 72.0615 13.9954 72.0615 17.9992C72.0615 22.003 74.4899 24.9687 78.3415 24.9687C82.193 24.9687 84.6214 21.9802 84.6214 17.9992C84.6214 14.0182 82.1366 11.0296 78.3415 11.0296Z" fill="#002E2D"/>
<path d="M108.239 27.0699L98.2884 13.1307V27.0699H95.5889V8.91016H98.3674L108.149 22.5185V8.91016H110.848V27.0699H108.239Z" fill="#002E2D"/>
<path d="M132.546 27.0699L122.595 13.1307V27.0699H119.896V8.91016H122.674L132.455 22.5185V8.91016H135.155V27.0699H132.546Z" fill="#002E2D"/>
<path d="M144.202 27.0699V8.91016H156.276V11.3056H146.902V16.6098H156.096V19.0052H146.902V24.663H156.276V27.0584H144.202V27.0699Z" fill="#002E2D"/>
<path d="M163.46 17.9992C163.46 12.4212 167.56 8.61133 172.677 8.61133C176.212 8.61133 178.414 10.3224 179.815 12.4554L177.522 13.676C176.585 12.1474 174.8 11.0296 172.677 11.0296C169.04 11.0296 166.238 13.9155 166.238 17.9992C166.238 22.0828 169.04 24.9687 172.677 24.9687C174.8 24.9687 176.585 23.8509 177.522 22.3338L179.815 23.5543C178.381 25.676 176.201 27.387 172.677 27.387C167.56 27.387 163.46 23.5771 163.46 17.9992Z" fill="#002E2D"/>
<path d="M191.855 27.0699V11.3056H186.275V8.91016H200.1V11.3056H194.543V27.0699H191.844H191.855Z" fill="#002E2D"/>
<path d="M207.477 27.0699V8.91016H210.176V27.0699H207.477Z" fill="#002E2D"/>
<path d="M224.34 27.0699L217.201 8.91016H220.273L226.011 24.1041L231.783 8.91016H234.855L227.717 27.0699H224.351H224.34Z" fill="#002E2D"/>
<path d="M241.926 27.0699V8.91016H254V11.3056H244.625V16.6098H253.819V19.0052H244.625V24.663H254V27.0584H241.926V27.0699Z" fill="#002E2D"/>
</g>
<defs>
<clipPath id="clip0_336_233">
<rect width="254" height="36" fill="white"/>
</clipPath>
</defs>
</svg>
