<svg width="48" height="48" viewBox="0 0 48 48" fill="none" xmlns="http://www.w3.org/2000/svg">
<mask id="mask0_0_3216" style="mask-type:alpha" maskUnits="userSpaceOnUse" x="0" y="0" width="48" height="48">
<rect width="48" height="48" fill="#00AFBF"/>
</mask>
<g mask="url(#mask0_0_3216)">
<path d="M37.8615 40C34.4898 40 31.0335 39.1558 27.4925 37.4675C23.9515 35.7788 20.6617 33.4088 17.623 30.3575C14.5847 27.3065 12.2212 24.0168 10.5325 20.4885C8.84417 16.9602 8 13.5102 8 10.1385C8 9.5275 8.2 9.01833 8.6 8.611C9 8.20367 9.5 8 10.1 8H15.046C15.5897 8 16.064 8.17117 16.469 8.5135C16.8743 8.85583 17.1488 9.295 17.2925 9.831L18.2845 14.6C18.3768 15.159 18.3602 15.6475 18.2345 16.0655C18.1088 16.4835 17.887 16.8258 17.569 17.0925L13.181 21.1845C14.0013 22.6742 14.9083 24.0582 15.902 25.3365C16.8957 26.6148 17.9553 27.8257 19.081 28.969C20.2423 30.1307 21.4923 31.2108 22.831 32.2095C24.1693 33.2082 25.6385 34.1512 27.2385 35.0385L31.5155 30.6845C31.8412 30.3332 32.2072 30.1018 32.6135 29.9905C33.0198 29.8788 33.4692 29.8563 33.9615 29.923L38.169 30.7845C38.7127 30.9178 39.1538 31.1917 39.4925 31.606C39.8308 32.02 40 32.495 40 33.031V37.9C40 38.5 39.7963 39 39.389 39.4C38.9817 39.8 38.4725 40 37.8615 40ZM12.2425 19.3075L16.081 15.777C16.209 15.6743 16.2923 15.5333 16.331 15.354C16.3693 15.1743 16.3628 15.0077 16.3115 14.854L15.423 10.6155C15.3717 10.4102 15.282 10.2563 15.154 10.154C15.0257 10.0513 14.859 10 14.654 10H10.55C10.396 10 10.2678 10.0513 10.1655 10.154C10.0628 10.2563 10.0115 10.3845 10.0115 10.5385C10.0498 11.9052 10.264 13.332 10.654 14.819C11.0437 16.3063 11.5732 17.8025 12.2425 19.3075ZM29.1425 35.977C30.4935 36.6463 31.9338 37.1412 33.4635 37.4615C34.9928 37.7822 36.3255 37.954 37.4615 37.977C37.6155 37.977 37.7437 37.9257 37.846 37.823C37.9487 37.7203 38 37.5922 38 37.4385V33.423C38 33.218 37.9487 33.0513 37.846 32.923C37.7437 32.795 37.5898 32.7053 37.3845 32.654L33.6845 31.896C33.5308 31.8447 33.3963 31.8383 33.281 31.877C33.1653 31.9153 33.0435 31.9987 32.9155 32.127L29.1425 35.977Z" fill="#00AFBF"/>
</g>
</svg>
