<svg width="48" height="48" viewBox="0 0 48 48" fill="none" xmlns="http://www.w3.org/2000/svg">
<mask id="mask0_0_3226" style="mask-type:alpha" maskUnits="userSpaceOnUse" x="0" y="0" width="48" height="48">
<rect width="48" height="48" fill="#00AFBF"/>
</mask>
<g mask="url(#mask0_0_3226)">
<path d="M9.231 38C8.31033 38 7.54167 37.6917 6.925 37.075C6.30833 36.4583 6 35.6897 6 34.769V13.231C6 12.3103 6.30833 11.5417 6.925 10.925C7.54167 10.3083 8.31033 10 9.231 10H38.769C39.6897 10 40.4583 10.3083 41.075 10.925C41.6917 11.5417 42 12.3103 42 13.231V34.769C42 35.6897 41.6917 36.4583 41.075 37.075C40.4583 37.6917 39.6897 38 38.769 38H9.231ZM24 24.231L8 13.769V34.769C8 35.128 8.11533 35.423 8.346 35.654C8.577 35.8847 8.872 36 9.231 36H38.769C39.128 36 39.423 35.8847 39.654 35.654C39.8847 35.423 40 35.128 40 34.769V13.769L24 24.231ZM24 22L39.3845 12H8.6155L24 22ZM8 13.769V12V34.769C8 35.128 8.11533 35.423 8.346 35.654C8.577 35.8847 8.872 36 9.231 36H8V13.769Z" fill="#00AFBF"/>
</g>
</svg>
