<svg width="41" height="17" viewBox="0 0 41 17" fill="none" xmlns="http://www.w3.org/2000/svg">
<path d="M16.4165 0V16.1641H0.252441V0H16.4165ZM5.48389 2.43066C3.77307 2.43066 2.78189 3.29291 2.78174 5.08105V10.9238C2.78174 12.6606 3.68238 13.5224 5.49658 13.5225C7.29774 13.5224 8.19873 12.6605 8.19873 10.9238V9.14844H6.67822V10.6436C6.67814 11.6986 6.27777 12.2243 5.48096 12.2246C4.68368 12.2246 4.2828 11.699 4.28271 10.6436V5.31348C4.28282 4.25827 4.68314 3.73159 5.46729 3.73145C6.27728 3.73156 6.67812 4.25824 6.67822 5.31348V6.45898H8.19873V5.08105C8.19858 3.29305 7.19446 2.4308 5.48389 2.43066ZM8.30127 2.64746V3.94824H10.5513V13.3066H12.0718V3.94824H14.3354V2.64746H8.30127Z" fill="#38322A"/>
<path d="M20.051 13.307H18.5435V2.64746H20.051V13.307Z" fill="#38322A"/>
<path d="M27.4534 13.307H25.8716L23.0146 5.9822L23.0404 13.307H21.6104V2.64746H23.218L26.0491 9.67526L26.0233 2.64746H27.4534V13.307Z" fill="#38322A"/>
<path d="M34.162 10.9501C34.162 12.661 33.2485 13.5262 31.4342 13.5262C29.6716 13.5262 28.7451 12.6126 28.7451 10.9759V9.63621H30.2527V10.6918C30.2527 11.7087 30.653 12.2252 31.4504 12.2252C32.2477 12.2252 32.648 11.7345 32.648 10.7564V10.2431C32.648 9.92029 32.5447 9.63944 32.351 9.39409C31.9765 8.91632 31.3729 8.73877 30.6917 8.39012C30.356 8.20934 30.0493 8.02856 29.7523 7.85101C29.1874 7.47654 28.7483 6.74374 28.7483 5.76559V5.09735C28.7483 3.4897 29.6232 2.43408 31.4374 2.43408C33.1484 2.43408 34.1653 3.30893 34.1653 5.01019V6.0529H32.6448V5.22971C32.6448 4.23865 32.2445 3.73505 31.46 3.73505C30.6498 3.73505 30.2495 4.22574 30.2495 5.19097V5.61709C30.2495 6.67272 31.2405 6.99554 32.2058 7.43134C32.5415 7.59921 32.8482 7.76708 33.1452 7.94786C33.723 8.30941 34.162 9.04222 34.162 10.0204V10.9501Z" fill="#38322A"/>
<path d="M36.9668 13.307H35.4592V2.64746H36.9668V13.307Z" fill="#38322A"/>
<path d="M40.0298 13.307H38.5222V2.64746H40.0298V13.307Z" fill="#38322A"/>
</svg>
