<svg width="47" height="17" viewBox="0 0 47 17" fill="none" xmlns="http://www.w3.org/2000/svg">
<path d="M7.76942 10.0371C7.54166 10.403 7.45578 10.6308 7.22803 11.2207C6.93306 11.4485 6.1303 11.8667 4.72268 11.8667C1.44818 11.8667 0.178711 9.6899 0.178711 7.53179C0.178711 3.35373 3.7295 2.93555 4.95044 2.93555C6.53355 2.93555 7.29897 3.4396 7.75448 3.75324C7.31764 4.6568 7.17949 5.37368 7.12721 5.73959H6.62316C6.44767 4.41784 5.64865 4.0146 5.05499 4.0146C3.27772 4.0146 3.0873 6.32952 3.0873 7.2891C3.0873 8.94315 3.73324 10.5449 5.62998 10.5449C5.99589 10.5449 6.49994 10.4927 7.42218 9.69363L7.76942 10.0371Z" fill="#38322A"/>
<path d="M12.3173 0.149838C12.2464 1.17662 12.1083 2.65518 12.1083 3.24885C12.4928 3.24885 13.0828 3.19658 13.6055 3.16297C13.5719 3.33846 13.5345 3.45794 13.5345 3.70437C13.5345 3.9844 13.5682 4.15615 13.6055 4.27936C13.1014 4.24576 12.5078 4.19349 12.1083 4.19349C12.056 5.67205 12.0373 7.52026 12.0373 9.01749C12.0373 10.0629 12.0373 10.847 12.8886 10.847C13.0977 10.847 13.3777 10.7761 13.5682 10.6902C13.5345 10.847 13.5159 10.9852 13.5159 11.1271C13.5159 11.3025 13.5495 11.4594 13.5682 11.5452C12.8027 11.7879 12.28 11.9447 11.6527 11.9447C10.906 11.9447 10.331 11.717 9.91281 11.2839C9.44236 10.7948 9.33782 10.2758 9.33782 9.38713C9.33782 7.94217 9.40876 5.64591 9.40876 4.20095C9.07645 4.20095 8.66201 4.25323 8.31104 4.28683C8.36331 4.11134 8.38198 3.9732 8.38198 3.71183C8.38198 3.46914 8.34837 3.34593 8.31104 3.17044C8.74788 3.20404 9.14739 3.25632 9.40876 3.25632C9.40876 2.4909 9.37515 1.9495 9.35648 1.28863C10.7156 0.818179 11.6191 0.280519 12.1083 0.000488281L12.3173 0.149838Z" fill="#38322A"/>
<path d="M17.4955 4.39915C17.9659 3.70094 18.5932 2.98779 20.0195 2.98779C22.5248 2.98779 23.798 4.88454 23.798 7.42722C23.798 9.79441 22.6481 11.9189 20.0046 11.9189C18.9255 11.9189 18.287 11.5978 17.559 10.8137C17.559 13.4236 17.4208 13.1847 17.559 14.5437C17.152 14.4803 17.1184 14.7566 16.5359 15.0777C16.3007 15.2083 16.0655 15.3465 15.8452 15.5033C15.3262 15.8655 15.0685 16.1231 14.7661 16.1642C14.9416 13.3265 14.9752 10.978 14.9752 8.59215C14.9752 6.25856 14.9939 4.41408 14.8371 3.10727C15.3262 3.15955 15.707 3.19315 16.282 3.19315C16.7189 3.19315 17.152 3.15955 17.5888 3.10727L17.4955 4.39915ZM19.1831 10.6644C20.4713 10.6644 20.8708 9.21942 20.8708 7.2704C20.8708 6.21002 20.6953 4.15272 19.2167 4.15272C17.8577 4.15272 17.5627 6.0868 17.5627 7.49443C17.5664 8.61082 17.7046 10.6644 19.1831 10.6644Z" fill="#38322A"/>
<path d="M29.2039 2.93555C32.3365 2.93555 33.8524 4.72775 33.8524 7.2891C33.8524 9.85045 32.3029 11.904 29.2039 11.904C26.2281 11.904 24.6077 10.0409 24.6077 7.43098C24.6077 5.06005 25.8771 2.93555 29.2039 2.93555ZM30.9438 7.2891C30.9438 6.1055 30.8916 3.79058 29.2188 3.79058C27.5461 3.79058 27.5125 6.28098 27.5125 7.41231C27.5125 8.51003 27.5648 11.049 29.2002 11.049C30.6489 11.049 30.9438 9.06263 30.9438 7.2891Z" fill="#38322A"/>
<path d="M39.8461 5.33997C39.7079 4.83591 39.4279 3.92861 37.9829 3.92861C37.3893 3.92861 36.6612 4.1713 36.6612 4.88445C36.6612 5.49305 37.1503 5.73574 37.7589 5.9299C39.7266 6.5385 40.9625 7.06122 40.9625 8.83849C40.9625 11.1721 39.1516 11.9375 37.4453 11.9375C35.8435 11.9375 35.0967 11.467 34.7122 11.2244C34.8167 10.892 34.869 10.5635 34.9212 10.2312C34.9549 9.95114 34.9922 9.67485 34.9922 9.39482L35.3768 9.42842C35.6045 10.1752 36.2467 10.9779 37.4677 10.9779C38.1285 10.9779 38.9649 10.7688 38.9649 9.95114C38.9649 9.2716 38.4608 9.09985 37.1018 8.61073C35.4813 8.03573 34.7532 7.27031 34.7532 5.84402C34.7532 3.54777 36.6873 2.9541 37.9381 2.9541C38.879 2.9541 39.8199 3.16319 40.6525 3.58137C40.4621 4.07049 40.3053 4.58948 40.2344 5.33997H39.8461Z" fill="#38322A"/>
<path d="M45.7119 0.149838C45.6409 1.17662 45.5028 2.65518 45.5028 3.24885C45.8874 3.24885 46.4773 3.19658 47 3.16297C46.9664 3.33846 46.9291 3.45794 46.9291 3.70437C46.9291 3.9844 46.9627 4.15615 47 4.27936C46.496 4.24576 45.9023 4.19349 45.5028 4.19349C45.4505 5.67205 45.4318 7.52026 45.4318 9.01749C45.4318 10.0629 45.4318 10.847 46.2831 10.847C46.4922 10.847 46.7723 10.7761 46.9627 10.6902C46.9291 10.847 46.9104 10.9852 46.9104 11.1271C46.9104 11.3025 46.944 11.4594 46.9627 11.5452C46.1973 11.7879 45.6745 11.9447 45.0473 11.9447C44.3005 11.9447 43.7255 11.717 43.3073 11.2839C42.8369 10.7948 42.7323 10.2758 42.7323 9.38713C42.7323 7.94217 42.8033 5.64591 42.8033 4.20095C42.471 4.20095 42.0565 4.25323 41.7056 4.28683C41.7578 4.11134 41.7765 3.9732 41.7765 3.71183C41.7765 3.46914 41.7429 3.34593 41.7056 3.17044C42.1424 3.20404 42.5419 3.25632 42.8033 3.25632C42.8033 2.4909 42.7697 1.9495 42.751 1.28863C44.1101 0.818179 45.0137 0.280519 45.5028 0.000488281L45.7119 0.149838Z" fill="#38322A"/>
</svg>
