<svg width="37" height="29" viewBox="0 0 37 29" fill="none" xmlns="http://www.w3.org/2000/svg">
<path d="M1.90375 15.7242C1.27569 14.6817 0.801389 13.6197 0.480833 12.5383C0.160278 11.4572 0 10.3889 0 9.33333C0 6.735 0.905972 4.52986 2.71792 2.71792C4.52986 0.905972 6.735 0 9.33333 0C11.0192 0 12.6378 0.4375 14.1892 1.3125C15.7403 2.1875 17.1217 3.44875 18.3333 5.09625C19.545 3.44875 20.9264 2.1875 22.4775 1.3125C24.0289 0.4375 25.6475 0 27.3333 0C29.9317 0 32.1368 0.905972 33.9488 2.71792C35.7607 4.52986 36.6667 6.735 36.6667 9.33333C36.6667 10.3461 36.5064 11.3825 36.1858 12.4425C35.8653 13.5022 35.391 14.5856 34.7629 15.6925C34.589 15.4628 34.3838 15.2574 34.1471 15.0763C33.9101 14.8951 33.6635 14.7436 33.4071 14.6217C33.9349 13.6836 34.3322 12.7756 34.5992 11.8975C34.8664 11.0192 35 10.1644 35 9.33333C35 7.18806 34.2586 5.37389 32.7758 3.89083C31.2928 2.40806 29.4786 1.66667 27.3333 1.66667C25.6175 1.66667 24.0593 2.18319 22.6588 3.21625C21.2579 4.24931 19.8161 5.73278 18.3333 7.66667C16.8506 5.72639 15.4088 4.24139 14.0079 3.21167C12.6074 2.18167 11.0492 1.66667 9.33333 1.66667C7.18806 1.66667 5.37389 2.40806 3.89083 3.89083C2.40806 5.37389 1.66667 7.18806 1.66667 9.33333C1.66667 10.2072 1.80028 11.0886 2.0675 11.9775C2.33444 12.8664 2.72111 13.7585 3.2275 14.6538C2.97111 14.7971 2.73069 14.9542 2.50625 15.125C2.28208 15.2958 2.08125 15.4956 1.90375 15.7242ZM0 28.3975V26.9583C0 25.9283 0.543889 25.0774 1.63167 24.4054C2.71944 23.7335 4.13097 23.3975 5.86625 23.3975C6.18403 23.3975 6.48819 23.4097 6.77875 23.4342C7.06931 23.4589 7.34611 23.499 7.60917 23.5546C7.36972 23.9818 7.18486 24.4306 7.05458 24.9008C6.92431 25.3711 6.85917 25.8721 6.85917 26.4038V28.3975H0ZM10 28.3975V26.5225C10 25.1442 10.7706 24.049 12.3117 23.2371C13.8525 22.4251 15.8626 22.0192 18.3421 22.0192C20.8449 22.0192 22.8579 22.4251 24.3813 23.2371C25.9049 24.049 26.6667 25.1442 26.6667 26.5225V28.3975H10ZM29.8075 28.3975V26.4038C29.8075 25.8721 29.7493 25.3711 29.6329 24.9008C29.5165 24.4306 29.3419 23.9818 29.1092 23.5546C29.3719 23.499 29.649 23.4589 29.9404 23.4342C30.2318 23.4097 30.5294 23.3975 30.8333 23.3975C32.5833 23.3975 33.9931 23.7335 35.0625 24.4054C36.1319 25.0774 36.6667 25.9283 36.6667 26.9583V28.3975H29.8075ZM18.3296 23.6858C16.4496 23.6858 14.89 23.9369 13.6508 24.4392C12.4114 24.9414 11.766 25.5878 11.7146 26.3783V26.7308H24.9617V26.3783C24.9039 25.5878 24.2622 24.9414 23.0367 24.4392C21.8114 23.9369 20.2424 23.6858 18.3296 23.6858ZM5.86542 21.8271C5.21319 21.8271 4.65486 21.5947 4.19042 21.13C3.72597 20.6656 3.49375 20.1072 3.49375 19.455C3.49375 18.8097 3.72597 18.2585 4.19042 17.8013C4.65486 17.344 5.21319 17.1154 5.86542 17.1154C6.51069 17.1154 7.06736 17.344 7.53542 17.8013C8.00319 18.2585 8.23708 18.8097 8.23708 19.455C8.23708 20.1072 8.00319 20.6656 7.53542 21.13C7.06736 21.5947 6.51069 21.8271 5.86542 21.8271ZM30.8333 21.8271C30.1944 21.8271 29.6394 21.5947 29.1683 21.13C28.6972 20.6656 28.4617 20.1072 28.4617 19.455C28.4617 18.8097 28.6972 18.2585 29.1683 17.8013C29.6394 17.344 30.1965 17.1154 30.8396 17.1154C31.5021 17.1154 32.0619 17.344 32.5192 17.8013C32.9764 18.2585 33.205 18.8097 33.205 19.455C33.205 20.1072 32.9778 20.6656 32.5233 21.13C32.0686 21.5947 31.5053 21.8271 30.8333 21.8271ZM18.3446 20.7692C17.3329 20.7692 16.4692 20.4139 15.7533 19.7033C15.0375 18.9931 14.6796 18.1304 14.6796 17.1154C14.6796 16.0801 15.0347 15.2124 15.745 14.5121C16.4556 13.8118 17.3183 13.4617 18.3333 13.4617C19.3686 13.4617 20.2364 13.8107 20.9367 14.5087C21.6369 15.2068 21.9871 16.0719 21.9871 17.1042C21.9871 18.1158 21.6381 18.9796 20.94 19.6954C20.2419 20.4113 19.3768 20.7692 18.3446 20.7692ZM18.3333 15.1283C17.7969 15.1283 17.3317 15.3188 16.9375 15.6996C16.5433 16.0804 16.3463 16.5524 16.3463 17.1154C16.3463 17.6518 16.5433 18.1171 16.9375 18.5112C17.3317 18.9054 17.8022 19.1025 18.3492 19.1025C18.8964 19.1025 19.3617 18.9054 19.745 18.5112C20.1286 18.1171 20.3204 17.6464 20.3204 17.0992C20.3204 16.5522 20.13 16.0869 19.7492 15.7033C19.3683 15.32 18.8964 15.1283 18.3333 15.1283Z" fill="#002E2D"/>
</svg>
