<svg width="40" height="40" viewBox="0 0 40 40" fill="none" xmlns="http://www.w3.org/2000/svg">
<mask id="mask0_0_2589" style="mask-type:alpha" maskUnits="userSpaceOnUse" x="0" y="0" width="40" height="40">
<rect width="40" height="40" fill="#D9D9D9"/>
</mask>
<g mask="url(#mask0_0_2589)">
<path d="M4.55078 33.5885V5.25513H19.5508V11.9218H35.4483V33.5885H4.55078ZM6.21745 31.9218H11.2174V26.9218H6.21745V31.9218ZM6.21745 25.2551H11.2174V20.2551H6.21745V25.2551ZM6.21745 18.5885H11.2174V13.5885H6.21745V18.5885ZM6.21745 11.9218H11.2174V6.92179H6.21745V11.9218ZM12.8841 31.9218H17.8841V26.9218H12.8841V31.9218ZM12.8841 25.2551H17.8841V20.2551H12.8841V25.2551ZM12.8841 18.5885H17.8841V13.5885H12.8841V18.5885ZM12.8841 11.9218H17.8841V6.92179H12.8841V11.9218ZM19.5508 31.9218H33.7816V13.5885H19.5508V18.5885H23.5254V20.2551H19.5508V25.2551H23.5254V26.9218H19.5508V31.9218ZM27.4995 20.2551V18.5885H29.1662V20.2551H27.4995ZM27.4995 26.9218V25.2551H29.1662V26.9218H27.4995Z" fill="#00AFBF"/>
</g>
</svg>
