<svg width="15" height="31" viewBox="0 0 15 31" fill="none" xmlns="http://www.w3.org/2000/svg">
<path fill-rule="evenodd" clip-rule="evenodd" d="M3.11363 15.2809V29.9409C3.11363 30.154 3.28043 30.3208 3.49357 30.3208H8.93315C9.14629 30.3208 9.31309 30.154 9.31309 29.9409V15.0399H13.2607C13.4553 15.0399 13.6221 14.8917 13.6407 14.6878L14.0206 10.2027C14.0391 9.98029 13.8631 9.78569 13.6407 9.78569H9.31309V6.59793C9.31309 5.84732 9.91544 5.24498 10.666 5.24498H13.7055C13.9187 5.24498 14.0855 5.07818 14.0855 4.86505V0.379937C14.0855 0.166801 13.9187 0 13.7055 0H8.56249C5.55079 0 3.10437 2.44642 3.10437 5.45812V9.78569H0.37994C0.166805 9.78569 0 9.95249 0 10.1656V14.6507C0 14.8639 0.166805 15.0307 0.37994 15.0307H3.10437V15.2716L3.11363 15.2809Z" fill="white"/>
</svg>
