<svg width="127" height="120" viewBox="0 0 127 120" fill="none" xmlns="http://www.w3.org/2000/svg">
<path d="M106.233 67.401L101.435 70.3227L106.308 73.0926L111.106 70.2089L106.233 67.401ZM87.9779 57.0043L83.1423 59.926L88.0154 62.696L92.851 59.7743L87.9779 57.0043ZM38.9847 57.3838L34.1491 60.2675L39.0596 63.0754L43.8577 60.1916L38.9847 57.3838ZM20.6544 68.4634L15.8188 71.4231L20.7668 74.2309L25.6024 71.3092L20.6544 68.5014V68.4634ZM125.763 78.5186L113.58 71.6128L108.782 74.4965L119.69 80.7194L63.9498 114.603L7.30962 82.351L18.3678 75.6728L13.4572 72.8649L1.19952 80.302C0.487299 80.7573 0.0374756 81.5921 0.0374756 82.4648C0.0374756 83.3375 0.524784 84.1343 1.27449 84.6276L62.9003 119.65C63.2751 119.84 63.65 119.953 64.0248 119.953C64.5121 119.953 64.9245 119.84 65.2618 119.612L125.838 82.8442C126.55 82.3889 127 81.5921 127 80.6435C127 79.7328 126.475 78.9739 125.763 78.5945V78.5186ZM31.75 61.7474L24.2529 66.2627L23.0909 66.9836L27.964 69.7915L36.6231 64.5552L31.75 61.7474ZM64.1748 43.4583C63.8374 43.2686 63.425 43.1548 63.0502 43.1548C62.6004 43.1548 62.1505 43.2686 61.7757 43.4963L46.7816 52.6028L44.42 54.0827L41.4587 55.866L46.3318 58.6739L48.0936 57.5735L50.4551 56.1316L63.0127 48.5049L76.5449 56.2075L80.5933 58.5221L85.4289 55.5625L64.1373 43.4583H64.1748ZM102.672 65.39L95.325 61.2161L90.5269 64.1378L98.9986 68.9188L103.797 66.035L102.672 65.39Z" fill="#00AFBF"/>
<path d="M125.763 57.0038L113.58 50.06L108.782 52.9817L119.69 59.1666L108.632 65.8827L106.196 67.3625L101.398 70.2842L98.9986 71.764L63.9499 93.0506L28.039 72.6367L25.6024 71.2707L20.6544 68.4628L18.2178 67.0969L7.30963 60.912L18.3678 54.1959L13.4572 51.388L1.16204 58.863C0.449823 59.2804 0 60.1152 0 61.0258C0 61.8606 0.487308 62.6954 1.23701 63.1507L13.3822 70.0565L15.8188 71.4604L20.7668 74.2683L23.2034 75.6722L62.8253 98.173C63.2001 98.3248 63.575 98.4386 63.9499 98.4386C64.4372 98.4386 64.8495 98.3248 65.1869 98.1351L102.672 75.3687L103.834 74.6477L105.034 73.8888L106.233 73.1679L111.031 70.2842L113.468 68.8043L125.763 61.3673C126.475 60.912 126.925 60.1152 126.925 59.1666C126.925 58.2939 126.4 57.497 125.688 57.1555L125.763 57.0038ZM25.5275 49.6806L20.6919 46.9106L15.8563 49.8703L20.7668 52.6781L25.6024 49.7565L25.49 49.6806H25.5275ZM64.2497 22.0194C63.8749 21.7917 63.4625 21.7158 63.0127 21.7158C62.5629 21.7158 62.1506 21.8297 61.7757 22.0194L24.2904 44.7858L23.1284 45.5067L26.727 47.5557L28.0015 48.2766L63.0502 27.028L98.9236 47.4419L100.161 46.7209L103.759 44.5202L64.2497 22.0194ZM106.233 45.9241L101.435 48.8078L101.51 48.8837L106.346 51.6537L111.181 48.732L106.271 45.9241H106.233Z" fill="#00AFBF"/>
<path d="M125.763 35.452L64.2497 0.467615C63.8749 0.239951 63.4625 0.164062 63.0502 0.164062C62.6004 0.164062 62.1506 0.277895 61.7757 0.505559L1.16204 37.3113C0.449823 37.7666 0 38.5634 0 39.4361C0 40.3847 0.487308 41.1815 1.23701 41.5989L13.4197 48.5047L15.8563 49.9087L20.7668 52.7165L23.2409 54.0825L31.675 58.9014L34.1491 60.2674L39.0596 63.0752L41.5337 64.4792L62.7503 76.5074C63.1252 76.773 63.5375 76.8869 63.9873 76.8869C64.5121 76.8869 64.9245 76.6971 65.2243 76.5454L80.2185 67.4388L85.5788 64.1756L87.9779 62.6958L92.8135 59.7741L95.2126 58.2943L102.672 53.779L103.834 53.058L105.071 52.3371L106.233 51.6162L111.069 48.6945L113.468 47.2146L125.763 39.7776C126.475 39.3223 126.925 38.4875 126.925 37.5769C126.925 36.7042 126.438 35.9453 125.688 35.4899L125.763 35.452ZM108.632 44.4447L106.233 45.9245L101.435 48.8083L99.0735 50.2881L90.4519 55.5623L88.0529 57.0421L83.2173 59.9638L80.7807 61.4437L64.0623 71.6126L46.4442 61.5954L43.9702 60.2294L39.0971 57.4216L36.6231 56.0177L28.1514 51.1988L28.039 51.1229L25.7149 49.7948L25.6024 49.719L20.7668 46.949L18.3303 45.5831L7.3846 39.3982L63.0502 5.47622L119.69 37.7286L108.632 44.4447Z" fill="#00AFBF"/>
</svg>
