<svg width="98" height="98" viewBox="0 0 98 98" fill="none" xmlns="http://www.w3.org/2000/svg">
<mask id="mask0_0_2740" style="mask-type:alpha" maskUnits="userSpaceOnUse" x="0" y="0" width="98" height="98">
<rect width="97.7534" height="97.7534" fill="#D9D9D9"/>
</mask>
<g mask="url(#mask0_0_2740)">
<path d="M48.8676 48.4062C46.0382 48.4062 43.6354 47.4182 41.6593 45.442C39.6825 43.4653 38.6941 41.0625 38.6941 38.2337C38.6941 35.46 39.6825 33.0677 41.6593 31.057C43.6354 29.0463 46.0382 28.0409 48.8676 28.0409C51.6414 28.0409 54.0333 29.0463 56.0433 31.057C58.0541 33.0677 59.0594 35.46 59.0594 38.2337C59.0594 41.0625 58.0541 43.4653 56.0433 45.442C54.0333 47.4182 51.6414 48.4062 48.8676 48.4062ZM48.8768 44.3331C50.5528 44.3331 51.9903 43.7477 53.1891 42.5766C54.3873 41.4056 54.9864 39.9546 54.9864 38.2236C54.9864 36.5475 54.3873 35.1104 53.1891 33.9122C51.9903 32.7134 50.5399 32.114 48.8381 32.114C47.1355 32.114 45.6981 32.7134 44.5257 33.9122C43.3534 35.1104 42.7672 36.5607 42.7672 38.2633C42.7672 39.9658 43.3527 41.4033 44.5237 42.5756C45.6947 43.7473 47.1457 44.3331 48.8768 44.3331ZM26.4749 69.7124V64.0101C26.4749 62.9178 26.754 61.8908 27.312 60.9288C27.87 59.9669 28.6276 59.2002 29.5847 58.6286C32.4983 56.9002 35.5908 55.5999 38.8621 54.7276C42.1342 53.856 45.4724 53.4201 48.8768 53.4201C52.2812 53.4201 55.6194 53.856 58.8914 54.7276C62.1628 55.5999 65.2552 56.9002 68.1688 58.6286C69.126 59.2002 69.8836 59.9669 70.4416 60.9288C70.9996 61.8908 71.2786 62.9178 71.2786 64.0101V69.7124H26.4749ZM48.8768 57.4932C45.8322 57.4932 42.7774 57.9368 39.7124 58.8241C36.6474 59.712 33.6395 60.9913 30.6885 62.6619V65.7167H67.065V62.5845C64.1664 60.9132 61.1713 59.6468 58.0798 58.7854C54.9891 57.9239 51.9214 57.4932 48.8768 57.4932ZM18.8247 85.5342C16.9328 85.5342 15.3589 84.9062 14.103 83.6504C12.8472 82.3945 12.2192 80.8206 12.2192 78.9287V65.1689H16.2923V78.9542C16.2923 79.5814 16.5533 80.156 17.0753 80.6781C17.5974 81.2001 18.172 81.4611 18.7993 81.4611H32.5845V85.5342H18.8247ZM12.2192 32.5844V18.8246C12.2192 16.9327 12.8472 15.3588 14.103 14.1029C15.3589 12.847 16.9328 12.2191 18.8247 12.2191H32.5845V16.2922H18.7993C18.172 16.2922 17.5974 16.5532 17.0753 17.0752C16.5533 17.5973 16.2923 18.1719 16.2923 18.7991V32.5844H12.2192ZM65.169 85.5342V81.4611H78.9543C79.5815 81.4611 80.1562 81.2001 80.6782 80.6781C81.2002 80.156 81.4612 79.5814 81.4612 78.9542V65.1689H85.5343V78.9287C85.5343 80.8206 84.9064 82.3945 83.6505 83.6504C82.3947 84.9062 80.8208 85.5342 78.9288 85.5342H65.169ZM81.4612 32.5844V18.7991C81.4612 18.1719 81.2002 17.5973 80.6782 17.0752C80.1562 16.5532 79.5815 16.2922 78.9543 16.2922H65.169V12.2191H78.9288C80.8208 12.2191 82.3947 12.847 83.6505 14.1029C84.9064 15.3588 85.5343 16.9327 85.5343 18.8246V32.5844H81.4612Z" fill="#00AFBF"/>
</g>
</svg>
