<svg width="40" height="40" viewBox="0 0 40 40" fill="none" xmlns="http://www.w3.org/2000/svg">
<mask id="mask0_0_2616" style="mask-type:alpha" maskUnits="userSpaceOnUse" x="0" y="0" width="40" height="40">
<rect width="40" height="40" fill="#D9D9D9"/>
</mask>
<g mask="url(#mask0_0_2616)">
<path d="M20 33.3329L16.0225 29.7367C14.0011 27.8883 12.2858 26.2506 10.8767 24.8233C9.4675 23.3958 8.32972 22.0732 7.46333 20.8554C6.59667 19.6374 5.96944 18.4931 5.58167 17.4225C5.19389 16.3522 5 15.2636 5 14.1567C5 12.037 5.72014 10.2586 7.16042 8.82168C8.60042 7.38473 10.3803 6.66626 12.5 6.66626C13.9658 6.66626 15.3408 7.04126 16.625 7.79126C17.9092 8.54126 19.0342 9.63209 20 11.0638C20.9658 9.63209 22.0908 8.54126 23.375 7.79126C24.6592 7.04126 26.0342 6.66626 27.5 6.66626C29.3803 6.66626 31.0646 7.29709 32.5529 8.55876C34.0413 9.8207 34.8644 11.4763 35.0225 13.5254H33.2725C33.1208 11.756 32.4114 10.4482 31.1442 9.60209C29.8772 8.75598 28.6625 8.33293 27.5 8.33293C26.1475 8.33293 24.92 8.71487 23.8175 9.47876C22.7147 10.2426 21.6656 11.3992 20.67 12.9483H19.33C18.3194 11.3778 17.2601 10.216 16.1521 9.46293C15.0443 8.70959 13.8269 8.33293 12.5 8.33293C10.8739 8.33293 9.49514 8.88682 8.36375 9.99459C7.23236 11.1026 6.66667 12.49 6.66667 14.1567C6.66667 15.0947 6.86111 16.052 7.25 17.0283C7.63889 18.005 8.33333 19.1327 9.33333 20.4113C10.3333 21.6902 11.6944 23.1828 13.4167 24.8892C15.1389 26.5953 17.3333 28.6578 20 31.0767L22.8942 28.4517C24.5481 26.9645 26.1704 25.4046 27.7613 23.7721C29.3521 22.1396 30.7853 20.3907 32.0608 18.5254H27.2404V16.8588H35.0321V24.6088H33.3654V19.5671C32.0768 21.5029 30.6003 23.3117 28.9358 24.9933C27.2714 26.6747 25.5769 28.2975 23.8525 29.8617L20 33.3329Z" fill="#00AFBF"/>
</g>
</svg>
