<svg width="157" height="17" viewBox="0 0 157 17" fill="none" xmlns="http://www.w3.org/2000/svg">
<path d="M63.2169 15.8823H63.1076H60.7179H60.6458L60.6171 15.8164L58.0018 9.74288V15.7732V15.8823H57.8923H55.5608H55.4515V15.7732V2.90542V2.7959H55.5608H57.7799H57.8515L57.8803 2.86074L60.6728 9.17211V2.90544V2.79592H60.7821H63.1076H63.2169V2.90544V15.7732L63.2169 15.8823Z" fill="#38322A"/>
<path d="M87.0757 15.8912H84.2329C82.4769 15.8912 81.7921 15.2111 81.7921 13.4668V6.41108L81.7892 4.83003C81.9226 3.05206 83.0905 2.80322 84.3134 2.80322H86.964C88.6518 2.80322 89.3722 3.53264 89.3722 5.24271V6.50613V6.59203L89.2893 6.6126L86.7826 7.23401L86.6468 7.26757V7.12759V5.37154C86.6468 5.1871 86.5415 5.09795 86.3251 5.09795H84.8884C84.7506 5.09795 84.5195 5.14351 84.5195 5.45104V13.1955C84.5195 13.3453 84.5572 13.5963 84.8086 13.5963H86.3577C86.6091 13.5963 86.6468 13.3749 86.6468 13.2426V11.455V11.3159L86.7822 11.3485L89.2889 11.9539L89.3721 11.9745V12.0606V13.4499C89.3721 15.1379 88.6644 15.8912 87.0757 15.8912ZM156.429 15.8912H156.319H149.995H149.886V15.7817V2.91315V2.80365H149.995H156.319H156.429V2.91315V4.97303V5.08255H156.319H152.597V8.13622H155.567H155.677V8.24552V10.3047V10.4142H155.567H152.597V13.5967H156.319H156.429V13.7065V15.7817V15.8912Z" fill="#38322A"/>
<path d="M148.606 15.8908H148.496H142.396H142.287V15.7813V2.89614V2.78662H142.396H144.871H144.98V2.89614V13.5963H148.496H148.606V13.7061V15.7813V15.8908ZM138.233 15.8908H135.392C133.636 15.8908 132.952 15.2115 132.952 13.4667V5.19497C132.952 3.09348 134.163 2.80324 135.472 2.80324H138.123C139.809 2.80324 140.53 3.53332 140.53 5.24295V6.50615V6.59185L140.447 6.61242L137.94 7.23407L137.804 7.26802V7.12805V5.37155C137.804 5.18712 137.699 5.09775 137.483 5.09775H136.046C135.908 5.09775 135.677 5.1438 135.677 5.4515V13.1951C135.677 13.3453 135.715 13.5964 135.966 13.5964H137.515C137.767 13.5964 137.804 13.3745 137.804 13.2426V11.4546V11.3155L137.94 11.3481L140.446 11.9544L140.53 11.975V12.0609V13.4501C140.53 15.1385 139.821 15.8908 138.233 15.8908ZM131.173 15.8908H131.064H128.59H128.48V15.7813V2.91284V2.80332H128.59H131.064H131.173V2.91284V15.7813V15.8908ZM126.623 15.8908H126.513H124.119H124.047L124.018 15.8249L121.403 9.75131V15.7813V15.8908H121.293H118.961H118.852V15.7813V2.91262V2.80309H118.961H121.181H121.252L121.282 2.86813L124.074 9.17938V2.9126V2.80307H124.183H126.513H126.623V2.9126V15.7813L126.623 15.8908ZM98.3618 15.8908H98.2523H95.7607H95.6511V15.7809V10.3511H93.4918V15.7656V15.8751H93.3819H90.9074H90.7976V15.7656V2.91263V2.80267H90.9074H93.3819H93.4918V2.91263V8.08726H95.6511V2.91263V2.80267H95.7607H98.2523H98.3618V2.91263V15.7809L98.3618 15.8908Z" fill="#38322A"/>
<path d="M112.526 5.09779C112.322 5.09779 112.221 5.20863 112.221 5.43644V13.1642C112.221 13.5232 112.369 13.5971 112.591 13.5971H113.995C114.147 13.5971 114.349 13.555 114.349 13.1951V5.43644C114.349 5.1567 114.174 5.09779 114.028 5.09779H112.526ZM114.763 15.8909H111.952C110.162 15.8909 109.496 15.212 109.496 13.3868V5.38692C109.496 3.50382 110.17 2.80311 111.983 2.80311H114.715C116.391 2.80311 117.075 3.55705 117.075 5.40424V13.3226C117.075 15.1231 116.383 15.8909 114.763 15.8909ZM102.96 8.48701H104.687C104.863 8.48701 105.073 8.42571 105.073 8.13459V5.53173C105.073 5.21125 104.959 5.09758 104.639 5.09758H102.96V8.48701ZM108.163 15.8904H108.008H105.454H105.376L105.351 15.8168L103.635 10.8286H102.96V15.7813V15.8904H102.851H100.329H100.219V15.7813V2.91263V2.80332H100.329H105.405C107.072 2.80332 107.815 3.55092 107.815 5.22747V8.19723C107.815 9.51084 107.393 10.1513 106.266 10.5197L108.111 15.7445L108.163 15.8904ZM42.3829 15.8825H42.2736H39.7984H39.6891V15.7735V5.08951H37.2278H37.1185V4.98042V2.90543V2.79591H37.2278H44.8758H44.9851V2.90543V4.98042V5.08951H44.8758H42.3829V15.7735V15.8825ZM33.6379 15.8825H30.7956C28.9228 15.8825 28.2593 15.2607 28.2593 13.5064V11.2871V11.1495L28.3929 11.1804L30.8999 11.7547L30.9851 11.774V11.8614V13.2348C30.9851 13.4269 31.1307 13.5719 31.3233 13.5719H32.8559C32.9265 13.5719 33.1139 13.5719 33.1139 13.2501V11.7188C33.1139 11.5118 33.0296 11.404 32.779 11.2906L29.8728 9.98266C28.8025 9.49879 28.2593 9.00487 28.2593 7.64636V5.37905C28.2593 3.19543 29.1563 2.7959 30.9231 2.7959H33.2392C35.1471 2.7959 35.8228 3.45522 35.8228 5.31488V7.66278V7.80735L35.684 7.76819L33.1775 7.0655L33.098 7.04336V6.96012V5.50656C33.098 5.13967 32.9194 5.08952 32.7449 5.08952H31.3384C31.0944 5.08952 30.9851 5.20845 30.9851 5.47458V7.04028C30.9851 7.2786 31.0731 7.36534 31.2249 7.43435L33.9873 8.69647C35.2312 9.26422 35.8228 9.78511 35.8228 11.2071V13.2195C35.8228 15.0861 35.1694 15.8825 33.6379 15.8825ZM23.7863 15.8826H21.7588C19.8262 15.8826 18.8865 14.9383 18.8865 12.9954V2.90545V2.79592H18.9958H21.4883H21.5978V2.90545V13.2028C21.5978 13.4803 21.6769 13.557 21.9656 13.557H23.4038C23.597 13.557 23.7256 13.4965 23.7256 13.2028V2.90545V2.79592H23.8349H26.3574H26.4667V2.90545V12.9954C26.4667 14.857 25.5152 15.8826 23.7863 15.8826ZM7.78439 15.8826H7.67508H5.18502H5.07572V15.7735V10.3417H2.91509V15.7735V15.8826H2.80579H0.330614H0.221313V15.7735V2.90545V2.79592H0.330614H2.80579H2.91509V2.90545V8.0803H5.07572V2.90545V2.79592H5.18502H7.67508H7.78439V2.90545V15.7735L7.78439 15.8826Z" fill="#38322A"/>
<path d="M49.0614 5.08948C48.8561 5.08948 48.7562 5.19988 48.7562 5.42681V13.1553C48.7562 13.5149 48.9039 13.5887 49.1255 13.5887H50.5298C50.682 13.5887 50.884 13.5473 50.884 13.1872V5.42681C50.884 5.14819 50.7092 5.08948 50.5625 5.08948H49.0614ZM51.2978 15.8825H48.4857C46.6953 15.8825 46.0298 15.2042 46.0298 13.3789V5.37927C46.0298 3.49617 46.7042 2.7959 48.5194 2.7959H51.2498C52.9261 2.7959 53.6095 3.54939 53.6095 5.39593V13.3147C53.6095 15.1152 52.9185 15.8825 51.2978 15.8825ZM12.7646 5.08948C12.5591 5.08948 12.4588 5.19988 12.4588 5.42681V13.1553C12.4588 13.5149 12.6062 13.5887 12.8281 13.5887H14.2337C14.3859 13.5887 14.5879 13.5473 14.5879 13.1872V5.42681C14.5879 5.14819 14.4122 5.08948 14.2648 5.08948H12.7646ZM15.0001 15.8825H12.1896C10.3987 15.8825 9.73328 15.2042 9.73328 13.3789V5.37927C9.73328 3.49617 10.4077 2.7959 12.2218 2.7959H14.9517C16.6292 2.7959 17.313 3.54939 17.313 5.39593V13.3147C17.313 15.1152 16.6215 15.8825 15.0001 15.8825ZM69.3586 10.0631L69.3135 10.0307L64.2711 6.36721L63.9982 6.16874H64.3355H70.5679H70.6238L70.6569 6.2139L72.5831 8.87021L72.6716 8.9922L72.5281 9.03865L69.4118 10.046L69.3586 10.0631Z" fill="#38322A"/>
<path d="M64.3359 6.27832L69.3782 9.94195L72.4944 8.93502L70.5684 6.27832H64.3359Z" fill="#38322A"/>
<path d="M72.4955 9.12159L72.4067 8.99936L70.4857 6.34704L70.4534 6.30149L70.4705 6.24855L72.3954 0.321162L72.4997 0.000488281L72.6037 0.321163L74.5303 6.24811L74.5475 6.30154L74.5146 6.34641L72.5838 8.99939L72.4955 9.12159Z" fill="#38322A"/>
<path d="M72.499 0.35498L70.5741 6.28281L72.4951 8.93534L74.4259 6.28192L72.499 0.35498Z" fill="#38322A"/>
<path d="M75.634 10.0728L75.5807 10.0558L72.4608 9.03966L72.3175 8.99253L72.4063 8.87095L74.3349 6.2239L74.3672 6.17874H74.4231L80.6559 6.17676H80.993L80.7203 6.37477L75.6791 10.0397L75.634 10.0728Z" fill="#38322A"/>
<path d="M80.6557 6.28614L74.423 6.28812L72.4944 8.93497L75.6144 9.95108L80.6557 6.28614Z" fill="#38322A"/>
<path d="M77.7454 16.1642L77.4724 15.9665L72.4282 12.3046L72.3831 12.2715V12.216L72.3841 8.93506V8.78369L72.5278 8.83063L75.6417 9.84695L75.6947 9.86417L75.7117 9.91691L77.6406 15.8436L77.7454 16.1642Z" fill="#38322A"/>
<path d="M72.4949 8.93506L72.4928 12.2158L77.5366 15.8777L75.6079 9.95117L72.4949 8.93506Z" fill="#38322A"/>
<path d="M67.2429 16.1635L67.3469 15.8426L69.2696 9.91393L69.2869 9.86089L69.34 9.84387L72.4606 8.83082L72.6043 8.78418V8.9351L72.6004 12.2101V12.2657L72.555 12.2988L67.5149 15.9653L67.2429 16.1635Z" fill="#38322A"/>
<path d="M67.4503 15.8764L72.4901 12.2101L72.4941 8.93506L69.3732 9.94745L67.4503 15.8764Z" fill="#38322A"/>
<path d="M64.3359 6.27832L72.4944 8.93502L69.3782 9.94195L64.3359 6.27832Z" fill="#38322A"/>
<path d="M70.5684 6.27832L72.4944 8.93502L64.3359 6.27832H70.5684Z" fill="#38322A"/>
<path d="M72.499 0.35498L72.4951 8.93534L70.5741 6.28281L72.499 0.35498Z" fill="#38322A"/>
<path d="M74.4252 6.28192L72.4944 8.93512L72.4983 0.35498L74.4252 6.28192Z" fill="#38322A"/>
<path d="M80.6557 6.28613L72.4944 8.93497L74.423 6.28812L80.6557 6.28613Z" fill="#38322A"/>
<path d="M75.6143 9.95108L72.4944 8.93497L80.6557 6.28613L75.6143 9.95108Z" fill="#38322A"/>
<path d="M77.5366 15.8777L72.4944 8.93506L75.608 9.95117L77.5366 15.8777Z" fill="#38322A"/>
<path d="M72.4935 12.2158L72.4956 8.93506L77.5379 15.8777L72.4935 12.2158Z" fill="#38322A"/>
<path d="M67.4503 15.8764L72.4937 8.93506L72.4897 12.2101L67.4503 15.8764Z" fill="#38322A"/>
<path d="M69.3728 9.94769L72.4937 8.93506L67.4503 15.8764L69.3728 9.94769Z" fill="#38322A"/>
</svg>
