<svg width="31" height="17" viewBox="0 0 31 17" fill="none" xmlns="http://www.w3.org/2000/svg">
<path d="M1.85394 12.2244L0.977783 11.1898C0.977783 11.1898 1.23271 11.1477 1.32924 11.1131C1.42576 11.0784 1.93314 11.118 2.00244 11.2839C2.06927 11.4472 1.85394 12.2244 1.85394 12.2244Z" fill="#38322A"/>
<path d="M29.2331 0.240234L30.1514 1.29707L29.691 1.72525L28.9658 1.51487L29.2331 0.240234Z" fill="#38322A"/>
<path d="M18.8895 6.55405L18.0356 5.53187L19.194 5.37842C19.194 5.37842 19.1445 6.0739 19.194 6.13577C19.2435 6.19765 18.8895 6.55405 18.8895 6.55405Z" fill="#38322A"/>
<path d="M17.8872 9.27152C17.8872 9.27152 18.8277 10.5536 18.9143 10.4769C19.001 10.4001 19.2485 9.78632 19.199 9.73435C19.1495 9.68237 18.7807 9.26904 18.7807 9.26904H17.8872V9.27152Z" fill="#38322A"/>
<path d="M6.40613 11.5339L5.62402 10.6082C5.62402 10.6082 5.96558 10.4771 6.09428 10.4771C6.22298 10.4771 6.88381 10.6181 6.88381 10.6181C6.94321 10.8186 6.40613 11.5339 6.40613 11.5339Z" fill="#38322A"/>
<path d="M6.8247 7.8432L5.71094 6.54876C5.71094 6.54876 6.26039 6.21464 6.32969 6.24681C6.39899 6.27899 7.18852 6.68242 7.31722 6.90764C7.44593 7.13287 6.8247 7.8432 6.8247 7.8432Z" fill="#38322A"/>
<path d="M4.00689 6.71007L3.04906 5.58394C3.04906 5.58394 2.73721 5.52454 2.73226 5.75719C2.72731 5.98984 2.94511 6.63334 3.18271 6.79422C3.42032 6.9551 4.00689 6.71007 4.00689 6.71007Z" fill="#38322A"/>
<path d="M0.940674 4.94807L1.552 5.52475L1.77723 5.39605C1.77723 5.39605 1.86386 5.03222 1.78218 4.94807C1.7005 4.86392 1.81188 4.9456 1.7005 4.86392C1.58913 4.78225 0.940674 4.94807 0.940674 4.94807Z" fill="#38322A"/>
<path d="M3.82726 4.25059L3.1491 3.48828C3.1491 3.48828 2.94862 3.49571 2.961 3.63431C2.97337 3.77291 3.1293 4.18376 3.37185 4.25059C3.61688 4.31741 3.82726 4.25059 3.82726 4.25059Z" fill="#38322A"/>
<path d="M1.43858 15.8699L0.819824 14.5457C0.819824 14.5457 0.879225 14.1893 1.05743 14.2834C1.23563 14.3774 1.85933 14.4814 1.92616 14.6819C1.99298 14.8848 2.13653 15.0704 1.92616 15.3179C1.71578 15.5679 1.43858 15.8699 1.43858 15.8699Z" fill="#38322A"/>
<path d="M30.5501 12.1946L29.909 10.8804C29.909 10.8804 29.4413 11.16 29.5378 11.316C29.6343 11.4719 29.6096 11.6031 29.8274 11.863C30.0452 12.1228 30.0377 12.6426 30.0377 12.6426L30.5501 12.1946Z" fill="#38322A"/>
<path d="M1.87874 14.145L29.9776 11.9595C30.3934 11.9274 30.7498 12.2838 30.7474 12.7293L30.7449 13.2391C30.7424 13.6327 30.4578 13.9544 30.0915 13.9841L2.05447 16.1621C1.67331 16.1918 1.33671 15.8973 1.28969 15.4939L1.23029 14.9914C1.18079 14.5608 1.47531 14.1772 1.87874 14.145Z" fill="#38322A"/>
<path d="M1.48494 13.3008L29.5838 11.1129C29.9996 11.0807 30.356 11.4371 30.3536 11.8826L30.3511 12.3924C30.3486 12.786 30.064 13.1077 29.6977 13.1374L1.66067 15.3179C1.27952 15.3476 0.942913 15.0531 0.895888 14.6497L0.836487 14.1472C0.786987 13.7166 1.08151 13.333 1.48494 13.3008Z" fill="#38322A"/>
<path d="M1.31721 12.9072L29.4161 10.7193C29.8319 10.6871 30.1883 11.0435 30.1858 11.489L30.1834 11.9989C30.1809 12.3924 29.8962 12.7142 29.5299 12.7439L1.49293 14.9219C1.11178 14.9516 0.775178 14.6571 0.728152 14.2536L0.668752 13.7512C0.616776 13.323 0.913779 12.9369 1.31721 12.9072Z" fill="#38322A"/>
<path d="M2.15086 14.43L2.19293 13.3782L1.70288 13.4178L1.71278 13.1678L2.90821 13.0737L2.89831 13.3237L2.40826 13.3633L2.36619 14.4152L2.15086 14.43Z" fill="#38322A"/>
<path d="M3.04932 14.3583L3.10377 13.0564L3.31909 13.0391L3.26464 14.341L3.04932 14.3583ZM3.14832 13.8162L3.15822 13.5663L4.14575 13.4871L4.13585 13.737L3.14832 13.8162ZM4.00715 14.284L4.0616 12.9822L4.27693 12.9648L4.22247 14.2667L4.00715 14.284Z" fill="#38322A"/>
<path d="M4.56714 14.239L4.62159 12.9372L5.68832 12.853L5.67842 13.103L4.82702 13.1698L4.81464 13.447L5.44329 13.3975L5.43339 13.6376L4.80474 13.6871L4.79237 13.9742L5.65862 13.9049L5.64872 14.1549L4.56714 14.239Z" fill="#38322A"/>
<path d="M6.34619 14.0985L6.40064 12.7967L6.61597 12.7794L6.56152 14.0812L6.34619 14.0985ZM6.44519 13.5565L6.45509 13.3065L7.44262 13.2273L7.43272 13.4773L6.44519 13.5565ZM7.30402 14.0218L7.35847 12.72L7.5738 12.7026L7.51935 14.0045L7.30402 14.0218Z" fill="#38322A"/>
<path d="M8.46194 13.9549C8.28374 13.9697 8.15009 13.9598 8.06099 13.9301C7.97189 13.8979 7.91001 13.8385 7.87784 13.747C7.84566 13.6554 7.83329 13.5168 7.84071 13.3312C7.84814 13.1455 7.87289 13.0045 7.91249 12.9079C7.95209 12.8114 8.01891 12.7396 8.11296 12.6926C8.20454 12.6481 8.34066 12.6184 8.51887 12.6035C8.69707 12.5887 8.83072 12.5986 8.91982 12.6283C9.00892 12.6604 9.0708 12.7198 9.10297 12.8114C9.13515 12.903 9.14752 13.0416 9.1401 13.2272C9.13267 13.4128 9.10792 13.5539 9.06832 13.6504C9.02872 13.747 8.96189 13.8187 8.86784 13.8658C8.77627 13.9103 8.64014 13.94 8.46194 13.9549ZM8.47184 13.695C8.54362 13.69 8.61292 13.6801 8.67974 13.6702C8.74904 13.6603 8.81834 13.6455 8.88764 13.6306L8.91982 12.8609C8.85052 12.856 8.78122 12.8535 8.71439 12.8535C8.64757 12.8535 8.57827 12.856 8.50649 12.8609C8.43472 12.8659 8.36542 12.8758 8.29859 12.8857C8.22929 12.898 8.15999 12.9104 8.09069 12.9253L8.05851 13.695C8.12781 13.6999 8.19711 13.7024 8.26394 13.7024C8.33324 13.7049 8.40254 13.7024 8.47184 13.695Z" fill="#38322A"/>
<path d="M9.4082 13.8532L9.46265 12.5513L9.83143 12.5216L10.126 13.2864H10.1309L10.4972 12.4696L10.8586 12.4399L10.8041 13.7418L10.5888 13.7591L10.6358 12.6355H10.6309L10.2448 13.4992L9.98736 13.519L9.67798 12.7097H9.67303L9.62601 13.8334L9.4082 13.8532Z" fill="#38322A"/>
<path d="M11.1455 13.7171L11.2 12.4152L12.2667 12.3311L12.2568 12.581L11.4054 12.6479L11.393 12.9251L12.0217 12.8756L12.0118 13.1156L11.3831 13.1651L11.3707 13.4522L12.237 13.3829L12.2271 13.6329L11.1455 13.7171Z" fill="#38322A"/>
<path d="M13.5264 13.5515C13.3482 13.5664 13.2145 13.5565 13.1254 13.5268C13.0363 13.4946 12.9745 13.4352 12.9423 13.3436C12.9101 13.2521 12.8977 13.1135 12.9052 12.9278C12.9126 12.7422 12.9373 12.6011 12.9769 12.5046C13.0165 12.4081 13.0834 12.3363 13.1774 12.2893C13.269 12.2447 13.4051 12.215 13.5833 12.2002C13.7615 12.1853 13.8952 12.1952 13.9843 12.2249C14.0734 12.2571 14.1352 12.3165 14.1674 12.4081C14.1996 12.4997 14.212 12.6383 14.2045 12.8239C14.1971 13.0095 14.1724 13.1506 14.1328 13.2471C14.0932 13.3436 14.0263 13.4154 13.9323 13.4624C13.8407 13.5095 13.7046 13.5392 13.5264 13.5515ZM13.5363 13.2941C13.6081 13.2892 13.6774 13.2793 13.7442 13.2694C13.8135 13.2595 13.8828 13.2446 13.9521 13.2298L13.9843 12.4601C13.915 12.4551 13.8457 12.4526 13.7788 12.4526C13.712 12.4526 13.6427 12.4551 13.5709 12.4601C13.4992 12.465 13.4299 12.4749 13.363 12.4848C13.2937 12.4972 13.2244 12.5096 13.1551 12.5244L13.123 13.2941C13.1923 13.2991 13.2616 13.3016 13.3284 13.3016C13.3977 13.3016 13.467 13.2991 13.5363 13.2941Z" fill="#38322A"/>
<path d="M14.4722 13.4529L14.5266 12.151L15.5934 12.0669L15.5835 12.3169L14.732 12.3837L14.7197 12.7079L15.3483 12.6584L15.3384 12.9084L14.7098 12.9579L14.69 13.4356L14.4722 13.4529Z" fill="#38322A"/>
<path d="M16.0876 13.3237L16.1421 12.0218L16.9044 11.9624C16.9935 11.955 17.0653 11.9649 17.1173 11.9871C17.1717 12.0119 17.2088 12.0515 17.2336 12.1084C17.2559 12.1653 17.2658 12.2421 17.2633 12.3386C17.2583 12.4351 17.2435 12.5143 17.2163 12.5762C17.189 12.6381 17.147 12.6851 17.09 12.7173C17.0331 12.7495 16.9613 12.7693 16.8722 12.7767L16.3252 12.8212L16.3054 13.3039L16.0876 13.3237ZM16.3302 12.5861L17.0232 12.5317L17.0381 12.1901L16.345 12.2445L16.3302 12.5861ZM16.944 13.2568L16.5233 12.7123L16.8153 12.6901L17.2361 13.2247V13.2346L16.944 13.2568Z" fill="#38322A"/>
<path d="M18.1033 13.1897C17.9251 13.2046 17.7914 13.1947 17.7023 13.165C17.6132 13.1353 17.5514 13.0734 17.5192 12.9818C17.487 12.8902 17.4746 12.7516 17.4821 12.566C17.4895 12.3804 17.5142 12.2393 17.5538 12.1428C17.5934 12.0463 17.6603 11.9745 17.7543 11.9275C17.8459 11.8829 17.982 11.8532 18.1602 11.8384C18.3384 11.8235 18.4721 11.8334 18.5612 11.8631C18.6503 11.8953 18.7122 11.9547 18.7443 12.0463C18.7765 12.1378 18.7889 12.2764 18.7815 12.4621C18.774 12.6477 18.7493 12.7888 18.7097 12.8853C18.6701 12.9818 18.6033 13.0536 18.5092 13.1006C18.4176 13.1452 18.2815 13.1749 18.1033 13.1897ZM18.1132 12.9298C18.185 12.9249 18.2543 12.915 18.3211 12.9051C18.3904 12.8952 18.4597 12.8803 18.529 12.8655L18.5612 12.0958C18.4919 12.0908 18.4226 12.0883 18.3558 12.0883C18.2889 12.0883 18.2196 12.0908 18.1478 12.0958C18.0761 12.1007 18.0068 12.1106 17.9399 12.1205C17.8706 12.1329 17.8013 12.1453 17.732 12.1601L17.6999 12.9298C17.7692 12.9348 17.8385 12.9373 17.9053 12.9373C17.9746 12.9397 18.0439 12.9373 18.1132 12.9298Z" fill="#38322A"/>
<path d="M19.5204 13.0759C19.3768 13.0883 19.2704 13.0759 19.1962 13.0438C19.1244 13.0116 19.0749 12.9497 19.0501 12.8557C19.0254 12.7641 19.0155 12.6255 19.0229 12.4399C19.0303 12.2567 19.0501 12.1156 19.0848 12.0191C19.1194 11.9226 19.1739 11.8508 19.2481 11.8063C19.3224 11.7617 19.4338 11.7345 19.5748 11.7221C19.6763 11.7147 19.7704 11.7073 19.857 11.7048C19.9436 11.6998 20.0402 11.6998 20.1491 11.7023L20.1466 11.9647C19.9486 11.9548 19.753 11.9523 19.5625 11.9597C19.4734 11.9622 19.3768 11.9696 19.2754 11.977L19.2382 12.8656C19.3372 12.8581 19.4338 12.8482 19.5253 12.8359C19.7382 12.8111 19.9362 12.7789 20.1194 12.7369L20.102 13.0017C19.9956 13.0215 19.8941 13.0339 19.8026 13.0462C19.7134 13.0586 19.6194 13.0685 19.5204 13.0759Z" fill="#38322A"/>
<path d="M20.3621 12.9842L20.4165 11.6823L20.6318 11.665L20.5774 12.9669L20.3621 12.9842ZM20.4982 12.6897L20.5106 12.3704L21.2036 11.6205L21.508 11.5957V11.6056L20.4982 12.6897ZM21.1788 12.9198L20.7061 12.2912L20.9239 12.1674L21.4783 12.8877V12.8976L21.1788 12.9198Z" fill="#38322A"/>
<path d="M21.6643 12.0244L21.6693 11.8907L21.8079 11.8808L21.8153 11.7274L21.6767 11.7373L21.6866 11.5071L21.944 11.4873L21.9316 11.7744C21.9291 11.861 21.9118 11.9204 21.8821 11.9576C21.8524 11.9947 21.8029 12.0145 21.7336 12.0194L21.6643 12.0244Z" fill="#38322A"/>
<path d="M22.186 12.8407L22.2405 11.5389L22.6093 11.5092L23.1389 12.5858H23.1439L23.1909 11.4621L23.3988 11.4448L23.3443 12.7467L22.9756 12.7764L22.4459 11.6998H22.441L22.3939 12.8234L22.186 12.8407Z" fill="#38322A"/>
<path d="M23.6785 11.8633L23.6834 11.7296L23.822 11.7197L23.8294 11.5662L23.6908 11.5761L23.7007 11.346L23.9581 11.3262L23.9458 11.6133C23.9433 11.6999 23.926 11.7593 23.8963 11.7964C23.8666 11.8336 23.8171 11.8534 23.7478 11.8583L23.6785 11.8633Z" fill="#38322A"/>
<path d="M24.2009 12.6796L24.2554 11.3778L25.0177 11.3184C25.1068 11.3109 25.1786 11.3208 25.2305 11.3431C25.285 11.3679 25.3221 11.4075 25.3469 11.4644C25.3691 11.5213 25.379 11.598 25.3766 11.6946C25.3716 11.7911 25.3568 11.8703 25.3295 11.9322C25.3023 11.994 25.2602 12.0411 25.2033 12.0732C25.1464 12.1054 25.0746 12.1252 24.9855 12.1326L24.4385 12.1772L24.4187 12.6598L24.2009 12.6796ZM24.446 11.9421L25.139 11.8876L25.1538 11.5461L24.4608 11.6005L24.446 11.9421ZM25.0598 12.6128L24.639 12.0683L24.9311 12.046L25.3518 12.5806V12.5905L25.0598 12.6128Z" fill="#38322A"/>
<path d="M26.218 12.5462C26.0398 12.561 25.9062 12.5511 25.8171 12.5214C25.728 12.4892 25.6661 12.4298 25.6339 12.3383C25.6018 12.2467 25.5894 12.1081 25.5968 11.9225C25.6042 11.7368 25.629 11.5958 25.6686 11.4992C25.7082 11.4027 25.775 11.3309 25.8691 11.2839C25.9606 11.2394 26.0968 11.2097 26.275 11.1948C26.4532 11.18 26.5868 11.1899 26.6759 11.2196C26.765 11.2517 26.8269 11.3111 26.8591 11.4027C26.8912 11.4943 26.9036 11.6329 26.8962 11.8185C26.8888 12.0041 26.864 12.1452 26.8244 12.2417C26.7848 12.3383 26.718 12.41 26.6239 12.4571C26.5324 12.5016 26.3962 12.5313 26.218 12.5462ZM26.2279 12.2863C26.2972 12.2813 26.369 12.2714 26.4358 12.2615C26.5051 12.2516 26.5744 12.2368 26.6437 12.2219L26.6759 11.4522C26.6066 11.4473 26.5373 11.4448 26.4705 11.4448C26.4037 11.4448 26.3344 11.4473 26.2626 11.4522C26.1908 11.4572 26.1215 11.4671 26.0547 11.477C25.9854 11.4893 25.9161 11.5017 25.8468 11.5166L25.8146 12.2863C25.8839 12.2912 25.9532 12.2937 26.02 12.2937C26.0893 12.2962 26.1586 12.2912 26.2279 12.2863Z" fill="#38322A"/>
<path d="M27.1638 12.4447L27.2183 11.1428L27.4336 11.1255L27.3915 12.1774L28.1291 12.118L28.1192 12.3679L27.1638 12.4447Z" fill="#38322A"/>
<path d="M28.3098 12.3558L28.3643 11.0539L28.5796 11.0366L28.5375 12.0885L29.2751 12.0291L29.2652 12.2791L28.3098 12.3558Z" fill="#38322A"/>
<path d="M15.9889 2.36174C15.9889 2.36174 9.92267 2.84437 8.08621 3.03742C6.25222 3.23047 6.4131 4.83923 6.4131 4.83923C6.4131 4.83923 6.25222 5.93319 6.4131 7.02715C6.57397 8.1211 7.57388 8.15328 7.57388 8.15328L15.2984 7.6063V8.57156C15.2984 8.57156 15.2984 8.57156 15.2984 9.11854C15.2984 9.66551 14.942 9.66551 14.942 9.66551L6.4131 10.2768C6.33142 10.2818 6.34132 10.5169 6.34132 10.5169C6.34132 10.5169 6.31657 11.1357 6.34132 11.3857C6.36607 11.6356 6.64327 11.596 6.64327 11.596C6.64327 11.596 15.3628 10.7916 16.5483 10.6308C17.7338 10.4699 17.8403 9.66551 17.8403 9.66551V3.6834C17.6769 2.26521 15.9889 2.36174 15.9889 2.36174ZM15.1648 6.24999C14.6698 6.32177 9.21482 6.79202 9.21482 6.79202C9.21482 6.79202 8.82872 6.84152 8.81634 6.51482C8.80397 6.18811 8.81634 4.4259 8.81634 4.4259C8.81634 4.4259 8.80644 4.16603 9.01929 4.1487L14.9445 3.64132C14.9445 3.64132 15.3009 3.52005 15.3009 4.1487C15.3009 4.77735 15.4321 5.98269 15.4321 5.98269C15.4321 5.98269 15.4816 6.24999 15.1648 6.24999Z" fill="#38322A"/>
<path d="M19.3016 2.15824L29.7759 1.12863C30.0184 1.10388 30.2288 1.29446 30.2288 1.53948V1.91816C30.2288 2.17061 30.0357 2.37851 29.7858 2.40079L21.6875 3.08389C21.4895 3.10122 21.3385 3.26952 21.3435 3.47L21.393 4.92036C21.3979 5.08371 21.5365 5.20993 21.6999 5.19756L29.0284 4.71988C29.7313 4.67286 30.3229 5.23963 30.308 5.94502L30.261 8.06116C30.2412 8.92741 29.5754 9.64269 28.7116 9.72189L19.2273 10.5807C18.9848 10.603 18.7744 10.4124 18.7744 10.1674V9.55112C18.7744 9.36549 18.918 9.21204 19.1011 9.19719L27.4023 8.53388C27.6573 8.51408 27.8553 8.30123 27.8553 8.04383V6.40042C27.8553 6.19004 27.6746 6.02422 27.4642 6.04154L19.3189 6.74692C19.0293 6.77167 18.7843 6.53902 18.7942 6.24944L18.9303 2.55177C18.9378 2.34634 19.0962 2.17804 19.3016 2.15824Z" fill="#38322A"/>
<path d="M2.17335 6.75938L3.75241 6.62078C3.96278 6.60345 4.14346 6.78413 4.14346 7.01678V11.9272C4.14346 12.1401 3.99001 12.3183 3.79448 12.3282L2.20552 12.4098C1.97287 12.4222 1.77734 12.2168 1.77734 11.9619V7.22963C1.77734 6.98461 1.9506 6.77918 2.17335 6.75938Z" fill="#38322A"/>
<path d="M15.3671 1.5175C15.3671 1.5175 9.30085 2.00013 7.46438 2.19318C5.6304 2.38623 5.79127 3.995 5.79127 3.995C5.79127 3.995 5.6304 5.08895 5.79127 6.18291C5.95215 7.27687 6.95206 7.30905 6.95206 7.30905L14.6766 6.76207V7.72732C14.6766 7.72732 14.6766 7.72732 14.6766 8.2743C14.6766 8.82128 14.3202 8.82128 14.3202 8.82128L5.79127 9.43261C5.7096 9.43756 5.7195 9.67269 5.7195 9.67269C5.7195 9.67269 5.69475 10.2914 5.7195 10.5414C5.73435 10.6998 5.85067 10.7419 5.93482 10.7518C5.98432 10.7567 6.02145 10.7518 6.02145 10.7518C6.02145 10.7518 6.0858 10.7468 6.20708 10.7345C6.2541 10.7295 6.30855 10.7246 6.37043 10.7196C8.00394 10.5686 14.8845 9.92761 15.9265 9.78654C17.112 9.62566 17.2184 8.82128 17.2184 8.82128V2.83669C17.0576 1.42098 15.3671 1.5175 15.3671 1.5175ZM14.5429 5.40576C14.0479 5.47753 8.59299 5.94779 8.59299 5.94779C8.59299 5.94779 8.20689 5.99729 8.19451 5.67058C8.18214 5.34388 8.19451 3.58167 8.19451 3.58167C8.19451 3.58167 8.18461 3.32179 8.39747 3.30447L14.3227 2.79709C14.3227 2.79709 14.6791 2.67581 14.6791 3.30447C14.6791 3.93312 14.8102 5.13845 14.8102 5.13845C14.8102 5.13845 14.8622 5.40576 14.5429 5.40576Z" fill="#38322A"/>
<path d="M18.682 1.31253L29.1562 0.282927C29.3988 0.258177 29.6092 0.448753 29.6092 0.69378V1.07246C29.6092 1.32491 29.4161 1.53281 29.1661 1.55509L21.0679 2.23819C20.8699 2.25552 20.7189 2.42382 20.7239 2.62429L20.7734 4.07466C20.7783 4.23801 20.9169 4.36423 21.0803 4.35186L28.4088 3.87418C29.1117 3.82715 29.7032 4.39393 29.6884 5.09931L29.6413 7.21545C29.6215 8.08171 28.9558 8.79699 28.092 8.87619L18.6077 9.73502C18.3652 9.7573 18.1548 9.56672 18.1548 9.32169V8.70294C18.1548 8.51731 18.2983 8.36386 18.4815 8.34901L26.7827 7.68571C27.0376 7.66591 27.2356 7.45306 27.2356 7.19565V5.55472C27.2356 5.34434 27.055 5.17851 26.8446 5.19584L18.6968 5.90122C18.6448 5.90617 18.5953 5.90122 18.5458 5.89132C18.328 5.84182 18.1647 5.64134 18.1721 5.40374L18.3082 1.70606C18.3181 1.50311 18.4765 1.33481 18.682 1.31253Z" fill="#38322A"/>
<path d="M18.4499 9.7177C18.4499 9.7177 18.0143 9.5098 17.888 9.2722C17.7618 9.0346 18.1058 9.14598 18.1454 9.17073C18.185 9.19548 18.4746 9.27715 18.5192 9.45535C18.5637 9.63355 18.4499 9.7177 18.4499 9.7177Z" fill="#38322A"/>
<path d="M1.55128 5.91514L3.13034 5.77654C3.34071 5.75921 3.52139 5.93989 3.52139 6.17254V11.083C3.52139 11.2958 3.36794 11.474 3.17241 11.4839L1.77403 11.5557L1.58345 11.5656C1.3508 11.578 1.15527 11.3726 1.15527 11.1176V6.38539C1.15775 6.14037 1.32852 5.93494 1.55128 5.91514Z" fill="#38322A"/>
<path d="M18.3426 1.03226L28.8169 0.00265348C29.0594 -0.0220967 29.2698 0.16848 29.2698 0.413506V0.792184C29.2698 1.04464 29.0768 1.25254 28.8268 1.27481L20.7285 1.95792C20.5305 1.97524 20.3795 2.14354 20.3845 2.34402L20.434 3.79438C20.439 3.95773 20.5776 4.08396 20.7409 4.07158L28.0694 3.5939C28.7723 3.54688 29.3639 4.11366 29.349 4.81904L29.302 6.93518C29.2822 7.80144 28.6164 8.51672 27.7526 8.59592L18.2684 9.45475C18.0258 9.47702 17.8154 9.28645 17.8154 9.04142V8.42514C17.8154 8.23951 17.959 8.08606 18.1421 8.07121L26.4433 7.40791C26.6983 7.38811 26.8963 7.17526 26.8963 6.91785V5.27692C26.8963 5.06654 26.7156 4.90071 26.5052 4.91804L18.3575 5.62342C18.0679 5.64817 17.8229 5.41552 17.8328 5.12594L17.9714 1.42579C17.9788 1.22036 18.1372 1.05206 18.3426 1.03226Z" fill="#38322A"/>
<path d="M18.4772 5.85608C18.4772 5.85608 18.0094 5.57887 17.9327 5.4279C17.8559 5.27692 18.2544 5.3982 18.2668 5.40562C18.2792 5.41305 18.4772 5.85608 18.4772 5.85608Z" fill="#38322A"/>
<path d="M1.8938 4.213L3.53969 4.12885C3.74511 4.11895 3.91836 4.2823 3.91836 4.48772V5.26488C3.91836 5.44308 3.78966 5.59158 3.61394 5.62128L1.96805 5.88116C1.75025 5.91581 1.55225 5.74751 1.55225 5.52476V4.57435C1.55225 4.37882 1.70322 4.2229 1.8938 4.213Z" fill="#38322A"/>
<path d="M0.940674 4.94837L1.07657 5.11145C1.07657 5.11145 1.25694 5.07933 1.25942 5.06697C1.26436 5.05462 1.35084 4.98049 1.25942 4.94837C1.16799 4.91872 1.04692 4.89648 1.04692 4.89648L0.940674 4.94837Z" fill="#38322A"/>
<path d="M3.38113 3.78142L3.33419 3.68259L3.09204 3.39844C3.09204 3.39844 3.09698 3.58622 3.11428 3.60846C3.13157 3.63317 3.19088 3.77648 3.223 3.77895C3.25265 3.78389 3.38113 3.78142 3.38113 3.78142Z" fill="#38322A"/>
<path d="M1.38647 3.64854L3.03236 3.56439C3.23779 3.55449 3.41104 3.71784 3.41104 3.92327V4.70043C3.41104 4.87863 3.28234 5.02713 3.10661 5.05683L1.46072 5.31671C1.24292 5.34888 1.04492 5.18058 1.04492 4.9603V4.0099C1.04492 3.81684 1.1959 3.65844 1.38647 3.64854Z" fill="#38322A"/>
<path d="M1.16138 3.36583L2.80726 3.28168C3.01269 3.27178 3.18594 3.43513 3.18594 3.64055V4.41771C3.18594 4.59591 3.05724 4.74441 2.88151 4.77411L1.23563 5.03399C1.01783 5.06864 0.819824 4.90034 0.819824 4.67759V3.72718C0.819824 3.53413 0.9708 3.37573 1.16138 3.36583Z" fill="#38322A"/>
<path d="M1.29776 11.5636L0.90918 11.1107L1.10223 10.9795C1.10223 10.9795 1.64426 11.0884 1.70366 11.1255C1.76306 11.1626 2.01551 11.5388 2.01551 11.5388" fill="#38322A"/>
<path d="M1.21583 5.6334L2.79489 5.4948C3.00526 5.47748 3.18594 5.65815 3.18594 5.8908V10.8012C3.18594 11.0141 3.03249 11.1923 2.83696 11.2022L1.248 11.2839C1.01535 11.2962 0.819824 11.0908 0.819824 10.8359V6.10366C0.819824 5.85863 0.993076 5.6532 1.21583 5.6334Z" fill="#38322A"/>
<path d="M6.62621 7.24247C6.62621 7.24247 6.052 7.02962 5.80698 6.66084C5.56195 6.28958 6.18813 6.51729 6.21783 6.55194C6.24753 6.58659 6.62621 7.24247 6.62621 7.24247Z" fill="#38322A"/>
<path d="M5.77711 10.7911L6.32904 10.7267L6.25479 10.6426C6.25479 10.6426 5.89591 10.5262 5.81671 10.4619C5.73751 10.3951 5.45288 10.4149 5.45288 10.4149L5.77711 10.7911Z" fill="#38322A"/>
<path d="M15.0317 1.23479C15.0317 1.23479 8.9654 1.71742 7.12893 1.91047C5.29495 2.10352 5.45582 3.71228 5.45582 3.71228C5.45582 3.71228 5.29495 4.80624 5.45582 5.9002C5.6167 6.99415 6.61661 7.02633 6.61661 7.02633L14.3411 6.47935V7.44461C14.3411 7.44461 14.3411 7.44461 14.3411 7.99159C14.3411 8.53857 13.9847 8.53857 13.9847 8.53857L5.45582 9.1499C5.37415 9.15485 5.38405 9.38997 5.38405 9.38997C5.38405 9.38997 5.3593 10.0087 5.38405 10.2587C5.4088 10.5087 5.686 10.4691 5.686 10.4691C5.686 10.4691 14.4055 9.6647 15.591 9.50382C16.7766 9.34295 16.883 8.53857 16.883 8.53857V2.55397C16.7221 1.13826 15.0317 1.23479 15.0317 1.23479ZM14.2075 5.12304C13.7125 5.19482 8.25754 5.66507 8.25754 5.66507C8.25754 5.66507 7.87144 5.71457 7.85906 5.38787C7.84669 5.06117 7.85906 3.29895 7.85906 3.29895C7.85906 3.29895 7.84916 3.03908 8.06202 3.02175L13.9847 2.51437C13.9847 2.51437 14.3411 2.3931 14.3411 3.02175C14.3411 3.65041 14.4723 4.85574 14.4723 4.85574C14.4723 4.85574 14.5243 5.12304 14.2075 5.12304Z" fill="#38322A"/>
</svg>
