<svg width="28" height="28" viewBox="0 0 28 28" fill="none" xmlns="http://www.w3.org/2000/svg">
<path d="M21.1034 5.08944C20.2038 5.08944 19.4744 5.81882 19.4744 6.71839C19.4744 7.61796 20.2038 8.34734 21.1034 8.34734C22.0029 8.34734 22.7323 7.61796 22.7323 6.71839C22.7323 5.81882 22.0029 5.08944 21.1034 5.08944ZM13.8744 7.17223C10.106 7.17223 7.04256 10.2356 7.04256 14.0041C7.04256 17.7725 10.106 20.8359 13.8744 20.8359C17.6429 20.8359 20.7063 17.7725 20.7063 14.0041C20.7063 10.2356 17.6429 7.17223 13.8744 7.17223ZM13.8744 18.3804C11.4594 18.3804 9.49814 16.4191 9.49814 14.0041C9.49814 11.589 11.4594 9.6278 13.8744 9.6278C16.2895 9.6278 18.2507 11.589 18.2507 14.0041C18.2507 16.4191 16.2895 18.3804 13.8744 18.3804ZM27.6597 8.33113C27.6597 3.72794 23.9317 0 19.3285 0H8.33113C3.72794 0 0 3.72794 0 8.33113V19.3285C0 23.9317 3.72794 27.6597 8.33113 27.6597H19.3285C23.9317 27.6597 27.6597 23.9317 27.6597 19.3285V8.33113ZM25.0501 19.3285C25.0501 22.4892 22.4892 25.0501 19.3285 25.0501H8.33113C5.17049 25.0501 2.60956 22.4892 2.60956 19.3285V8.33113C2.60956 5.17049 5.17049 2.60956 8.33113 2.60956H19.3285C22.4892 2.60956 25.0501 5.17049 25.0501 8.33113V19.3285Z" fill="white"/>
</svg>
