<svg width="40" height="40" viewBox="0 0 40 40" fill="none" xmlns="http://www.w3.org/2000/svg">
<mask id="mask0_0_2625" style="mask-type:alpha" maskUnits="userSpaceOnUse" x="0" y="0" width="40" height="40">
<rect width="40" height="40" fill="#D9D9D9"/>
</mask>
<g mask="url(#mask0_0_2625)">
<path d="M18.3325 24.9998H21.6659V20.8332H25.8325V17.4998H21.6659V13.3332H18.3325V17.4998H14.1659V20.8332H18.3325V24.9998ZM19.9992 34.9357C16.6509 33.9421 13.8693 31.9137 11.6546 28.8507C9.43988 25.7876 8.33252 22.3373 8.33252 18.4998V9.48692L19.9992 5.12817L31.6659 9.48692V18.4998C31.6659 22.3373 30.5585 25.7876 28.3438 28.8507C26.129 31.9137 23.3475 33.9421 19.9992 34.9357ZM19.9992 33.1665C22.8881 32.2498 25.277 30.4165 27.1659 27.6665C29.0547 24.9165 29.9992 21.861 29.9992 18.4998V10.6248L19.9992 6.90692L9.99919 10.6248V18.4998C9.99919 21.861 10.9436 24.9165 12.8325 27.6665C14.7214 30.4165 17.1103 32.2498 19.9992 33.1665Z" fill="#00AFBF"/>
</g>
</svg>
