<svg width="24" height="16" viewBox="0 0 24 16" fill="none" xmlns="http://www.w3.org/2000/svg">
<path d="M23.7369 6.97554V15.4817C23.7369 15.6908 23.5696 15.8664 23.3522 15.8664H18.9611C18.752 15.8664 18.5763 15.6991 18.5763 15.4817V7.56938C18.5763 5.48675 17.832 4.06488 15.9668 4.06488C14.5449 4.06488 13.7002 5.01837 13.3238 5.94677C13.19 6.28133 13.1565 6.74135 13.1565 7.20137V15.4817C13.1565 15.6908 12.9892 15.8664 12.7718 15.8664H8.38068C8.17158 15.8664 7.99594 15.6991 7.99594 15.4817C8.0043 13.374 8.04613 3.15321 8.00431 0.744392C8.00431 0.535293 8.17158 0.35965 8.38068 0.35965H12.7634C12.9725 0.35965 13.1481 0.526929 13.1481 0.744392V2.55937C13.1481 2.55937 13.123 2.59283 13.1147 2.60955H13.1481V2.55937C13.834 1.50551 15.0551 0 17.7901 0C21.1775 0 23.7202 2.21645 23.7202 6.97554H23.7369ZM0.384735 15.8664H4.77581C4.98491 15.8664 5.16055 15.6991 5.16055 15.4817V0.744392C5.16055 0.535293 4.99327 0.35965 4.77581 0.35965H0.384735C0.175636 0.35965 0 0.526929 0 0.744392V15.4817C0 15.6908 0.167272 15.8664 0.384735 15.8664Z" fill="white"/>
</svg>
