<svg width="20" height="30" viewBox="0 0 20 30" fill="none" xmlns="http://www.w3.org/2000/svg">
<path d="M10 30C7.31194 30 5.11222 29.6569 3.40083 28.9708C1.68917 28.285 0.833333 27.3994 0.833333 26.3142C0.833333 25.7969 1.0775 25.3017 1.56583 24.8283C2.05389 24.3553 2.72319 23.9531 3.57375 23.6217L4.88458 24.7342C4.42097 24.9092 3.94181 25.141 3.44708 25.4296C2.95236 25.7179 2.64306 26.0021 2.51917 26.2821C2.70944 26.8335 3.51611 27.3132 4.93917 27.7212C6.36222 28.1293 8.04389 28.3333 9.98417 28.3333C11.9242 28.3333 13.6126 28.1293 15.0496 27.7212C16.4865 27.3132 17.3001 26.8335 17.4904 26.2821C17.4029 25.9957 17.0835 25.7083 16.5321 25.42C15.9807 25.1314 15.4593 24.8994 14.9679 24.7242L16.2692 23.6025C17.1967 23.9403 17.9114 24.3457 18.4133 24.8188C18.9156 25.2921 19.1667 25.7857 19.1667 26.2996C19.1667 27.3893 18.3108 28.2785 16.5992 28.9671C14.8878 29.6557 12.6881 30 10 30ZM10.0417 22.9167C12.8131 20.7606 14.8878 18.6511 16.2658 16.5883C17.6442 14.5253 18.3333 12.4979 18.3333 10.5063C18.3333 7.58847 17.4358 5.38569 15.6408 3.89792C13.8461 2.41042 11.9711 1.66667 10.0158 1.66667C8.06083 1.66667 6.18056 2.41125 4.375 3.90042C2.56944 5.38958 1.66667 7.59472 1.66667 10.5158C1.66667 12.4347 2.3525 14.4172 3.72417 16.4633C5.09611 18.5092 7.20194 20.6603 10.0417 22.9167ZM10 25C6.64278 22.4506 4.13681 19.9746 2.48208 17.5721C0.827361 15.1696 0 12.8161 0 10.5117C0 8.77111 0.300694 7.24847 0.902083 5.94375C1.50375 4.63931 2.28528 3.54583 3.24667 2.66333C4.20833 1.78083 5.28375 1.11639 6.47292 0.670001C7.66208 0.223334 8.83944 0 10.005 0C11.1706 0 12.3463 0.223334 13.5321 0.670001C14.7179 1.11639 15.7917 1.78083 16.7533 2.66333C17.7147 3.54583 18.4962 4.64028 19.0979 5.94667C19.6993 7.25278 20 8.77264 20 10.5063C20 12.8115 19.1726 15.1658 17.5179 17.5692C15.8632 19.9725 13.3572 22.4494 10 25ZM10.0158 12.9808C10.7511 12.9808 11.381 12.7239 11.9054 12.21C12.4301 11.6961 12.6925 11.061 12.6925 10.3046C12.6925 9.54819 12.4288 8.90764 11.9013 8.38292C11.374 7.85847 10.7403 7.59625 10 7.59625C9.27556 7.59625 8.64569 7.85986 8.11042 8.38708C7.57514 8.9143 7.3075 9.54805 7.3075 10.2883C7.3075 11.0556 7.57514 11.6961 8.11042 12.21C8.64569 12.7239 9.28083 12.9808 10.0158 12.9808Z" fill="#002E2D"/>
</svg>
