<svg width="81" height="80" viewBox="0 0 81 80" fill="none" xmlns="http://www.w3.org/2000/svg">
<mask id="mask0_0_72" style="mask-type:alpha" maskUnits="userSpaceOnUse" x="0" y="0" width="81" height="80">
<rect x="0.666687" width="80" height="80" fill="#D9D9D9"/>
</mask>
<g mask="url(#mask0_0_72)">
<path d="M40.6667 70C35.2906 70 30.8911 69.3139 27.4684 67.9417C24.045 66.57 22.3334 64.7989 22.3334 62.6283C22.3334 61.5939 22.8217 60.6033 23.7984 59.6567C24.7745 58.7106 26.1131 57.9061 27.8142 57.2433L30.4359 59.4683C29.5086 59.8183 28.5503 60.2819 27.5609 60.8592C26.5714 61.4358 25.9528 62.0042 25.705 62.5642C26.0856 63.6669 27.6989 64.6264 30.545 65.4425C33.3911 66.2586 36.7545 66.6667 40.635 66.6667C44.515 66.6667 47.892 66.2586 50.7659 65.4425C53.6397 64.6264 55.267 63.6669 55.6475 62.5642C55.4725 61.9914 54.8336 61.4167 53.7309 60.84C52.6281 60.2628 51.5853 59.7989 50.6025 59.4483L53.205 57.205C55.06 57.8806 56.4895 58.6914 57.4934 59.6375C58.4978 60.5842 59 61.5714 59 62.5992C59 64.7786 57.2884 66.5569 53.865 67.9342C50.4422 69.3114 46.0428 70 40.6667 70ZM40.75 55.8333C46.2928 51.5211 50.4422 47.3022 53.1984 43.1767C55.955 39.0506 57.3334 34.9958 57.3334 31.0125C57.3334 25.1769 55.5384 20.7714 51.9484 17.7958C48.3589 14.8208 44.6089 13.3333 40.6984 13.3333C36.7884 13.3333 33.0278 14.8225 29.4167 17.8008C25.8056 20.7792 24 25.1894 24 31.0317C24 34.8694 25.3717 38.8344 28.115 42.9267C30.8589 47.0183 35.0706 51.3206 40.75 55.8333ZM40.6667 60C33.9522 54.9011 28.9403 49.9492 25.6309 45.1442C22.3214 40.3392 20.6667 35.6322 20.6667 31.0233C20.6667 27.5422 21.2681 24.4969 22.4709 21.8875C23.6742 19.2786 25.2372 17.0917 27.16 15.3267C29.0834 13.5617 31.2342 12.2328 33.6125 11.34C35.9909 10.4467 38.3456 10 40.6767 10C43.0078 10 45.3592 10.4467 47.7309 11.34C50.1025 12.2328 52.25 13.5617 54.1734 15.3267C56.0961 17.0917 57.6592 19.2806 58.8625 21.8933C60.0653 24.5056 60.6667 27.5453 60.6667 31.0125C60.6667 35.6231 59.012 40.3317 55.7025 45.1383C52.3931 49.945 47.3811 54.8989 40.6667 60ZM40.6984 35.9617C42.1689 35.9617 43.4286 35.4478 44.4775 34.42C45.527 33.3922 46.0517 32.1219 46.0517 30.6092C46.0517 29.0964 45.5242 27.8153 44.4692 26.7658C43.4147 25.7169 42.1472 25.1925 40.6667 25.1925C39.2178 25.1925 37.9581 25.7197 36.8875 26.7742C35.817 27.8286 35.2817 29.0961 35.2817 30.5767C35.2817 32.1111 35.817 33.3922 36.8875 34.42C37.9581 35.4478 39.2284 35.9617 40.6984 35.9617Z" fill="#00AFBF"/>
</g>
</svg>
