<svg width="32" height="33" viewBox="0 0 32 33" fill="none" xmlns="http://www.w3.org/2000/svg">
<mask id="mask0_0_487" style="mask-type:alpha" maskUnits="userSpaceOnUse" x="0" y="0" width="32" height="33">
<rect y="0.164062" width="32" height="32" fill="#D9D9D9"/>
</mask>
<g mask="url(#mask0_0_487)">
<path d="M5.33332 26.8309C4.59999 26.8309 3.97221 26.5698 3.44999 26.0476C2.92777 25.5253 2.66666 24.8976 2.66666 24.1642V8.16423C2.66666 7.43089 2.92777 6.80311 3.44999 6.28089C3.97221 5.75867 4.59999 5.49756 5.33332 5.49756H26.6667C27.4 5.49756 28.0278 5.75867 28.55 6.28089C29.0722 6.80311 29.3333 7.43089 29.3333 8.16423V24.1642C29.3333 24.8976 29.0722 25.5253 28.55 26.0476C28.0278 26.5698 27.4 26.8309 26.6667 26.8309H5.33332ZM16 17.4976L5.33332 10.8309V24.1642H26.6667V10.8309L16 17.4976ZM16 14.8309L26.6667 8.16423H5.33332L16 14.8309ZM5.33332 10.8309V8.16423V24.1642V10.8309Z" fill="#FFA600"/>
</g>
</svg>
