<svg width="28" height="23" viewBox="0 0 28 23" fill="none" xmlns="http://www.w3.org/2000/svg">
<path d="M2.8 22.4C2.03 22.4 1.37083 22.1258 0.8225 21.5775C0.274167 21.0292 0 20.37 0 19.6V2.8C0 2.03 0.274167 1.37083 0.8225 0.8225C1.37083 0.274167 2.03 0 2.8 0H25.2C25.97 0 26.6292 0.274167 27.1775 0.8225C27.7258 1.37083 28 2.03 28 2.8V19.6C28 20.37 27.7258 21.0292 27.1775 21.5775C26.6292 22.1258 25.97 22.4 25.2 22.4H2.8ZM14 12.6L2.8 5.6V19.6H25.2V5.6L14 12.6ZM14 9.8L25.2 2.8H2.8L14 9.8ZM2.8 5.6V2.8V19.6V5.6Z" fill="white"/>
</svg>
