<svg width="40" height="40" viewBox="0 0 40 40" fill="none" xmlns="http://www.w3.org/2000/svg">
<mask id="mask0_0_2607" style="mask-type:alpha" maskUnits="userSpaceOnUse" x="0" y="0" width="40" height="40">
<rect width="40" height="40" fill="#D9D9D9"/>
</mask>
<g mask="url(#mask0_0_2607)">
<path d="M14.3854 33.3329C12.2423 33.3329 10.4203 32.5824 8.91915 31.0813C7.41804 29.5802 6.66748 27.7581 6.66748 25.615C6.66748 24.7089 6.82137 23.8307 7.12915 22.9804C7.43665 22.1299 7.88109 21.3553 8.46248 20.6567L14.315 13.6279L10.85 6.66626H29.1516L25.6866 13.6279L31.5391 20.6567C32.1205 21.3553 32.565 22.1299 32.8725 22.9804C33.1803 23.8307 33.3341 24.7089 33.3341 25.615C33.3341 27.7581 32.5821 29.5802 31.0779 31.0813C29.5735 32.5824 27.7529 33.3329 25.6162 33.3329H14.3854ZM20.0008 25.8008C19.255 25.8008 18.6198 25.5386 18.0954 25.0142C17.5707 24.4895 17.3083 23.8543 17.3083 23.1088C17.3083 22.3629 17.5707 21.7276 18.0954 21.2029C18.6198 20.6785 19.255 20.4163 20.0008 20.4163C20.7466 20.4163 21.3818 20.6785 21.9062 21.2029C22.431 21.7276 22.6933 22.3629 22.6933 23.1088C22.6933 23.8543 22.431 24.4895 21.9062 25.0142C21.3818 25.5386 20.7466 25.8008 20.0008 25.8008ZM15.85 12.9163H24.1833L26.4591 8.33293H13.5425L15.85 12.9163ZM14.3854 31.6663H25.6162C27.3065 31.6663 28.7376 31.0749 29.9096 29.8921C31.0815 28.7096 31.6675 27.2839 31.6675 25.615C31.6675 24.9056 31.5494 24.217 31.3133 23.5492C31.0772 22.8814 30.7294 22.2763 30.27 21.7338L24.3054 14.5829H15.7379L9.76373 21.7238C9.30429 22.2665 8.95109 22.8735 8.70415 23.5446C8.45748 24.2154 8.33415 24.9056 8.33415 25.615C8.33415 27.2839 8.92554 28.7096 10.1083 29.8921C11.2908 31.0749 12.7165 31.6663 14.3854 31.6663Z" fill="#00AFBF"/>
</g>
</svg>
