<svg width="175" height="17" viewBox="0 0 175 17" fill="none" xmlns="http://www.w3.org/2000/svg">
<path d="M0.577881 15.8552V15.4479C1.49068 15.4479 1.95411 15.139 1.95411 14.5211V1.2082C1.95411 0.899248 1.84176 0.688601 1.63111 0.576256C1.42047 0.477954 1.06939 0.421781 0.577881 0.421781V0.0145314H5.50701L11.2226 9.62002H11.2787V1.29245C11.2787 0.702644 10.7591 0.407738 9.73399 0.407738V0.000488281H13.2729V0.407738C12.7533 0.407738 12.4022 0.477954 12.2056 0.604342C12.009 0.744773 11.9107 0.969463 11.9107 1.27841V16.1641H10.8294L2.62817 2.30356H2.572V14.5211C2.572 15.139 3.06351 15.4479 4.04653 15.4479V15.8552H0.577881Z" fill="#38322A"/>
<path d="M12.5846 15.8549V15.5038H13.6378V2.71057H12.5846V2.37354H22.0216V5.9124H21.6143C21.3475 3.77785 20.1117 2.71057 17.8929 2.71057H16.9239V8.69293C17.8227 8.69293 18.3984 8.48229 18.6793 8.07504C18.9602 7.66779 19.1287 7.03585 19.1849 6.17922H19.5781V11.7543H19.1849C19.1708 10.8696 19.0163 10.1955 18.7074 9.73213C18.4125 9.2687 17.8086 9.02997 16.9099 9.02997V15.5038H17.8086C18.5389 15.5038 19.1708 15.3915 19.6904 15.1809C20.21 14.9702 20.6173 14.6472 20.9262 14.24C21.2211 13.8327 21.4458 13.3974 21.6003 12.962C21.7407 12.5127 21.853 11.9931 21.9233 11.4033H22.2743L22.0918 15.8549H12.5846Z" fill="#38322A"/>
<path d="M26.4309 16.1217L22.3163 2.71057H21.2631V2.37354H26.5011V2.72461H25.5743L28.2987 11.8667H28.3408L29.6608 7.5414L28.2144 2.71057H27.2876V2.37354H32.5818V2.72461H31.5286L34.1406 11.7684H34.1827L36.1207 5.30855C36.4858 4.00254 36.6684 3.31442 36.6684 3.24421C36.6684 2.89313 36.2892 2.72461 35.5309 2.72461V2.37354H38.3957V2.72461C38.0305 2.72461 37.7637 2.78079 37.6092 2.87909C37.4548 2.97739 37.3143 3.17399 37.216 3.4689L33.284 16.1358H32.3009L29.9277 8.20143H29.8855L27.4842 16.1358H26.4309V16.1217Z" fill="#38322A"/>
<path d="M40.7264 15.8552V15.4479H41.9622V0.407738H40.7264V0.000488281H47.1863V0.407738H45.8381V7.42929H49.8404V0.407738H48.4923V0.000488281H54.9521V0.407738H53.7163V15.4479H54.9521V15.8552H48.4923V15.4479H49.8404V7.83655H45.8381V15.4479H47.1863V15.8552H40.7264Z" fill="#38322A"/>
<path d="M53.3235 15.8549V15.5038C54.0256 15.5038 54.461 15.237 54.6155 14.7034L58.5335 2.37354H59.5867L63.6311 15.5179H64.6001V15.869H59.2497V15.5179H60.3029L59.1795 11.7965H56.0198L55.4861 13.5659C55.2053 14.4225 55.0648 14.9281 55.0648 15.0825C55.0648 15.3775 55.458 15.5179 56.2304 15.5179V15.869H53.3235V15.8549ZM59.0812 11.4454L57.5926 6.71286H57.5505L56.1181 11.4454H59.0812Z" fill="#38322A"/>
<path d="M66.2292 16.1217L62.1989 2.71057H61.1456V2.37354H66.7348V2.72461H65.5411L68.1812 11.7262H68.2234L70.6388 3.84806C70.709 3.55316 70.7511 3.32847 70.7511 3.17399C70.7511 2.86504 70.3298 2.71057 69.4732 2.71057V2.37354H72.4644V2.72461C71.7763 2.72461 71.355 2.97739 71.2145 3.4689L67.2544 16.1358H66.2292V16.1217Z" fill="#38322A"/>
<path d="M71.1169 15.8549V15.5038H72.1702V2.71057H71.1169V2.37354H80.5539V5.9124H80.1607C79.8939 3.77785 78.6581 2.71057 76.4393 2.71057H75.4703V8.69293C76.3691 8.69293 76.9448 8.48229 77.2257 8.07504C77.5066 7.66779 77.6751 7.03585 77.7312 6.17922H78.1245V11.7543H77.7312C77.7172 10.8696 77.5627 10.1955 77.2538 9.73213C76.9589 9.2687 76.355 9.02997 75.4563 9.02997V15.5038H76.355C77.0853 15.5038 77.7172 15.3915 78.2368 15.1809C78.7564 14.9702 79.1636 14.6472 79.4726 14.24C79.7675 13.8327 79.9922 13.3974 80.1467 12.962C80.2871 12.5127 80.3994 11.9931 80.4697 11.4033H80.8207L80.6382 15.8549H71.1169Z" fill="#38322A"/>
<path d="M80.7219 15.8549V15.5038C81.4943 15.5038 81.8875 15.237 81.8875 14.7174V3.38464C81.8875 3.11782 81.7892 2.93526 81.6066 2.851C81.4241 2.76674 81.1292 2.71057 80.7219 2.71057V2.37354H84.9208L89.7797 10.5607H89.8219V3.45485C89.8219 2.96335 89.3865 2.71057 88.5018 2.71057V2.37354H91.5211V2.72461C91.0857 2.72461 90.7768 2.78079 90.6083 2.89313C90.4398 3.00548 90.3555 3.20208 90.3555 3.4689V16.1358H89.4287L82.4633 4.33957H82.4211V14.7315C82.4211 15.2511 82.8424 15.5179 83.671 15.5179V15.869H80.7219V15.8549Z" fill="#38322A"/>
<path d="M94.7791 15.8552V15.4479H96.0148V0.407738H94.7791V0.000488281H101.604C103.303 0.000488281 104.722 0.295393 105.831 0.871161C106.94 1.44693 107.502 2.35973 107.502 3.60957C107.502 4.25555 107.32 4.81728 106.968 5.30878C106.617 5.80029 106.126 6.17946 105.522 6.46032C104.904 6.74118 104.258 6.95183 103.584 7.1063C102.91 7.26078 102.18 7.34504 101.407 7.37312V7.41525C103.472 7.55568 104.876 7.96293 105.606 8.66509C106.337 9.36724 106.702 10.6452 106.702 12.4989V13.6504C106.702 14.3245 106.772 14.7738 106.926 15.0126C107.067 15.2513 107.306 15.3637 107.643 15.3637C107.741 15.3637 107.937 15.3075 108.204 15.2092L108.415 15.6305C107.825 15.8973 107.011 16.0377 105.957 16.0377C103.879 16.0377 102.798 14.9283 102.727 12.7095L102.629 9.71832C102.601 8.98808 102.39 8.4404 102.039 8.10336C101.674 7.75229 100.972 7.58377 99.9188 7.58377V15.462H101.239V15.8692H94.7791V15.8552ZM99.8907 0.407738V7.16248C100.79 7.12035 101.45 7.02204 101.885 6.88161C102.32 6.74118 102.657 6.41819 102.924 5.92668C103.177 5.43517 103.317 4.69089 103.317 3.72191C103.317 3.27253 103.303 2.92146 103.289 2.65464C103.275 2.38782 103.219 2.09291 103.121 1.76992C103.022 1.44693 102.882 1.19415 102.713 1.02564C102.531 0.857118 102.264 0.702644 101.927 0.590299C101.576 0.463911 101.155 0.407738 100.663 0.407738H99.8907Z" fill="#38322A"/>
<path d="M107.558 15.8549V15.5038H108.612V2.71057H107.558V2.37354H116.995V5.9124H116.602C116.335 3.77785 115.1 2.71057 112.881 2.71057H111.912V8.69293C112.81 8.69293 113.386 8.48229 113.667 8.07504C113.948 7.66779 114.116 7.03585 114.173 6.17922H114.566V11.7543H114.173C114.159 10.8696 114.004 10.1955 113.695 9.73213C113.4 9.2687 112.796 9.02997 111.898 9.02997V15.5038H112.796C113.527 15.5038 114.159 15.3915 114.678 15.1809C115.198 14.9702 115.605 14.6472 115.914 14.24C116.209 13.8327 116.434 13.3974 116.588 12.962C116.728 12.5127 116.841 11.9931 116.911 11.4033H117.262L117.08 15.8549H107.558Z" fill="#38322A"/>
<path d="M124.621 14.0017V10.8841H123.54V10.533H128.778V10.8841H127.795V14.1281C127.247 14.6477 126.573 15.1111 125.773 15.5324C124.972 15.9396 124.102 16.1503 123.175 16.1503C121.504 16.1503 120.155 15.5043 119.144 14.2123C118.133 12.9204 117.628 11.2211 117.628 9.14277C117.628 7.20482 118.161 5.54773 119.229 4.18555C120.296 2.82337 121.728 2.13525 123.512 2.13525C124.059 2.13525 124.523 2.21951 124.93 2.40207C125.337 2.58463 125.646 2.75315 125.885 2.93571C126.124 3.11827 126.32 3.20253 126.475 3.20253C126.685 3.20253 126.826 3.11827 126.924 2.94975C127.023 2.78124 127.065 2.59868 127.065 2.40207H127.458V6.30606H127.079C126.966 5.35113 126.601 4.46641 125.997 3.66595C125.394 2.8655 124.621 2.47229 123.666 2.47229C123.175 2.47229 122.753 2.55655 122.43 2.71102C122.107 2.8655 121.869 3.10423 121.714 3.39913C121.574 3.69404 121.461 4.00299 121.405 4.31194C121.349 4.62088 121.321 4.98601 121.321 5.42134V13.8753C121.321 14.4932 121.475 14.9707 121.784 15.3077C122.093 15.6447 122.501 15.8132 123.02 15.8132C123.652 15.8132 124.073 15.6588 124.298 15.3498C124.509 14.9987 124.621 14.5634 124.621 14.0017Z" fill="#38322A"/>
<path d="M128.132 15.8549V15.5038H129.227V2.71057H128.132V2.37354H133.622V2.72461H132.527V15.5179H133.622V15.869H128.132V15.8549Z" fill="#38322A"/>
<path d="M133.679 15.855V11.923H134.072C134.1 12.8358 134.493 13.7205 135.238 14.535C135.982 15.3635 136.881 15.7708 137.92 15.7708C138.833 15.7708 139.549 15.5461 140.069 15.1107C140.588 14.6754 140.855 14.0435 140.855 13.243C140.855 12.7796 140.715 12.3864 140.448 12.0353C140.181 11.6842 139.83 11.4034 139.409 11.1927C138.987 10.9821 138.51 10.7714 138.004 10.5748C137.485 10.3782 136.979 10.1676 136.46 9.92883C135.94 9.6901 135.462 9.40924 135.041 9.10029C134.62 8.79134 134.269 8.38409 134.002 7.87854C133.735 7.37298 133.595 6.76913 133.595 6.08102C133.595 4.9014 133.988 3.94646 134.788 3.20218C135.575 2.45789 136.67 2.09277 138.046 2.09277C138.636 2.09277 139.17 2.16299 139.647 2.31746C140.125 2.47194 140.49 2.62641 140.757 2.78089C141.024 2.93536 141.178 3.00558 141.234 3.00558C141.501 3.00558 141.67 2.79493 141.74 2.35959H142.133V5.99676H141.74C141.655 4.94353 141.304 4.07285 140.686 3.41283C140.069 2.7528 139.17 2.42981 138.004 2.42981C137.33 2.42981 136.74 2.62641 136.221 3.01962C135.701 3.41283 135.448 3.91838 135.448 4.53628C135.448 4.91544 135.589 5.26652 135.856 5.56142C136.122 5.85633 136.488 6.12315 136.923 6.33379C137.358 6.54444 137.836 6.75509 138.369 6.95169C138.889 7.16234 139.409 7.38703 139.942 7.65385C140.476 7.92066 140.953 8.21557 141.389 8.53856C141.824 8.8756 142.189 9.31093 142.456 9.84457C142.723 10.3923 142.863 11.0101 142.863 11.6983C142.863 13.0604 142.428 14.1418 141.543 14.9282C140.658 15.7146 139.465 16.1078 137.962 16.1078C137.288 16.1078 136.586 15.9393 135.842 15.6163C135.097 15.2933 134.676 15.1248 134.578 15.1248C134.437 15.1248 134.311 15.209 134.241 15.3776C134.156 15.5461 134.114 15.7005 134.114 15.841H133.679V15.855Z" fill="#38322A"/>
<path d="M144.899 15.8549V15.5038H146.303V2.71057C144.253 2.90717 143.158 4.25531 143.003 6.75499H142.61V2.37354H153.297V6.75499H152.904C152.763 4.25531 151.654 2.90717 149.604 2.71057V15.5038H151.008V15.8549H144.899Z" fill="#38322A"/>
<path d="M152.65 15.8549V15.5038H153.703V2.71057H152.65V2.37354H162.087V5.9124H161.694C161.427 3.77785 160.191 2.71057 157.972 2.71057H157.004V8.69293C157.902 8.69293 158.478 8.48229 158.759 8.07504C159.04 7.66779 159.208 7.03585 159.264 6.17922H159.658V11.7543H159.264C159.25 10.8696 159.096 10.1955 158.787 9.73213C158.492 9.2687 157.888 9.02997 156.989 9.02997V15.5038H157.888C158.618 15.5038 159.25 15.3915 159.77 15.1809C160.29 14.9702 160.697 14.6472 161.006 14.24C161.301 13.8327 161.525 13.3974 161.68 12.962C161.82 12.5127 161.933 11.9931 162.003 11.4033H162.354L162.171 15.8549H152.65Z" fill="#38322A"/>
<path d="M162.425 15.8549V15.5038H163.478V2.71057H162.425V2.37354H168.225C169.671 2.37354 170.879 2.62631 171.82 3.11782C172.761 3.60933 173.238 4.3817 173.238 5.44898C173.238 5.99666 173.084 6.47412 172.789 6.89542C172.494 7.31671 172.072 7.6397 171.553 7.87843C171.033 8.11717 170.486 8.29973 169.91 8.42612C169.334 8.5525 168.716 8.63676 168.056 8.65081V8.69294C169.811 8.80528 171.005 9.15636 171.623 9.76021C172.241 10.35 172.564 11.4454 172.564 13.0323V14.0153C172.564 14.591 172.62 14.9702 172.746 15.1809C172.873 15.3775 173.069 15.4758 173.35 15.4758C173.435 15.4758 173.603 15.4336 173.828 15.3353L174.01 15.7004C173.519 15.9251 172.817 16.0515 171.918 16.0515C170.149 16.0515 169.222 15.1106 169.165 13.2148L169.081 10.673C169.053 10.0411 168.885 9.5917 168.576 9.29679C168.267 9.00188 167.663 8.86145 166.778 8.86145V15.5741H167.902V15.9251H162.425V15.8549ZM166.778 2.71057V8.4542C167.536 8.41207 168.098 8.34186 168.477 8.21547C168.843 8.08908 169.137 7.82226 169.362 7.40097C169.587 6.97968 169.685 6.34774 169.685 5.51919C169.685 5.14003 169.671 4.83108 169.657 4.60639C169.643 4.3817 169.601 4.12892 169.517 3.8621C169.432 3.58124 169.32 3.3706 169.165 3.23016C169.011 3.08973 168.786 2.96335 168.491 2.851C168.197 2.7527 167.845 2.69653 167.41 2.69653H166.778V2.71057Z" fill="#38322A"/>
</svg>
