<svg width="48" height="48" viewBox="0 0 48 48" fill="none" xmlns="http://www.w3.org/2000/svg">
<mask id="mask0_0_1805" style="mask-type:alpha" maskUnits="userSpaceOnUse" x="0" y="0" width="48" height="48">
<rect width="48" height="48" fill="#D9D9D9"/>
</mask>
<g mask="url(#mask0_0_1805)">
<path d="M24.0006 17.154L18.4236 11.577L24.0006 6L29.6161 11.577L24.0006 17.154ZM4.03906 38.769V31.769C4.03906 30.969 4.30256 30.2818 4.82956 29.7075C5.35623 29.1332 6.0029 28.8203 6.76956 28.769H12.5506C13.0889 28.769 13.6004 28.8973 14.0851 29.154C14.5697 29.4103 14.9697 29.7833 15.2851 30.273C16.3031 31.7013 17.5717 32.8078 19.0911 33.5925C20.6101 34.3768 22.2466 34.769 24.0006 34.769C25.7622 34.769 27.4091 34.3768 28.9411 33.5925C30.4731 32.8078 31.7442 31.7013 32.7546 30.273C33.0852 29.7833 33.4909 29.4103 33.9716 29.154C34.4526 28.8973 34.9456 28.769 35.4506 28.769H41.2316C42.0059 28.8203 42.6609 29.1332 43.1966 29.7075C43.7326 30.2818 44.0006 30.969 44.0006 31.769V38.769H32.0006V33.9115C30.8852 34.8218 29.6461 35.5257 28.2831 36.023C26.9204 36.5203 25.4929 36.769 24.0006 36.769C22.5416 36.769 21.1352 36.5248 19.7816 36.0365C18.4276 35.5482 17.1801 34.8488 16.0391 33.9385V38.769H4.03906ZM9.15456 25.231C7.79556 25.231 6.6224 24.7373 5.63506 23.75C4.64806 22.7627 4.15456 21.5897 4.15456 20.231C4.15456 18.8387 4.64806 17.6572 5.63506 16.6865C6.6224 15.7162 7.79556 15.231 9.15456 15.231C10.5469 15.231 11.7282 15.7162 12.6986 16.6865C13.6692 17.6572 14.1546 18.8387 14.1546 20.231C14.1546 21.5897 13.6692 22.7627 12.6986 23.75C11.7282 24.7373 10.5469 25.231 9.15456 25.231ZM38.8466 25.231C37.4876 25.231 36.3146 24.7373 35.3276 23.75C34.3402 22.7627 33.8466 21.5897 33.8466 20.231C33.8466 18.8387 34.3402 17.6572 35.3276 16.6865C36.3146 15.7162 37.4876 15.231 38.8466 15.231C40.2389 15.231 41.4204 15.7162 42.3911 16.6865C43.3614 17.6572 43.8466 18.8387 43.8466 20.231C43.8466 21.5897 43.3614 22.7627 42.3911 23.75C41.4204 24.7373 40.2389 25.231 38.8466 25.231Z" fill="#00AFBF"/>
</g>
</svg>
