<svg width="47" height="17" viewBox="0 0 47 17" fill="none" xmlns="http://www.w3.org/2000/svg">
<path d="M10.9136 5.94432C10.6018 4.00978 9.11903 2.66069 7.0763 2.48887C5.65721 2.38706 4.24449 2.45706 2.8254 2.45706C1.82631 2.45706 1.27267 2.97251 1.27267 4.01615V13.307C1.25995 13.6507 1.36176 13.988 1.54631 14.2743C1.90267 14.7325 2.50722 14.9234 3.06722 14.758C3.62085 14.5861 3.96449 14.1025 4.00267 13.447C4.00267 12.7534 4.04085 12.0661 4.00267 11.3725C4.00267 11.0989 4.07267 11.0289 4.34631 11.0289C5.35176 11.0289 6.38267 11.0989 7.38812 10.8889C9.8763 10.3989 11.3272 8.4325 10.9136 5.94432ZM6.45903 8.56614C5.69539 8.59796 4.93812 8.56614 4.21267 8.59796C4.04085 8.59796 4.00267 8.49614 4.04085 8.35614V5.14251C4.04085 4.97069 4.07267 4.86251 4.28267 4.86251C5.00812 4.86251 5.77176 4.83069 6.49721 4.89433C7.6363 4.96433 8.25994 5.6516 8.25994 6.72705C8.21539 7.77069 7.52812 8.49614 6.45903 8.56614Z" fill="#38322A"/>
<path d="M19.2365 11.9196C19.2365 10.7423 19.3065 9.57144 19.1665 8.39417C19.0265 6.73326 17.9892 5.63235 16.4047 5.32053C14.9983 5.04054 13.541 5.14872 12.1919 5.63235C11.5365 5.87417 11.2247 6.45962 11.4283 7.05144C11.6319 7.64326 12.2238 7.9169 12.8792 7.7069C13.5728 7.50326 14.2983 7.42053 15.0238 7.46508C16.131 7.53508 16.7865 8.26053 16.6465 9.25962L16.3347 9.1578C15.0556 8.81417 13.7447 8.74417 12.4974 9.18962C11.3583 9.60326 10.7029 10.5005 10.6647 11.7096C10.6265 12.9887 11.1483 13.9878 12.2556 14.4396C13.7447 15.0251 15.1574 14.9233 16.4365 13.8542C16.5065 13.8223 16.5383 13.7142 16.6783 13.7142V14.5414C16.6783 14.7133 16.7101 14.7833 16.9201 14.7833C17.6138 14.7833 18.301 14.7514 19.0265 14.7833C19.2683 14.7833 19.3001 14.6814 19.3001 14.4714C19.2365 13.6823 19.2365 12.8169 19.2365 11.9196ZM16.6465 11.7796C16.4047 12.5751 15.781 12.8487 15.0238 12.9569C14.8838 12.9887 14.7819 12.9569 14.7119 12.9569C14.4701 12.9569 14.2601 12.9569 14.0883 12.8869C13.5347 12.7151 13.261 12.4033 13.2228 11.9196C13.191 11.366 13.4265 10.9523 13.9801 10.7105C14.6038 10.4687 15.2592 10.4687 15.9147 10.6087C15.9465 10.6087 16.0165 10.6405 16.0547 10.6405C16.7165 10.8505 16.8565 11.0542 16.6465 11.7796Z" fill="#38322A"/>
<path d="M23.7293 1.48289C23.2775 1.76288 23.2138 2.13834 23.2138 2.52016V5.04015C23.2138 5.25015 23.3157 5.28197 23.4875 5.28197C23.8247 5.27561 24.1557 5.28834 24.4866 5.31379C25.1102 5.38379 25.492 5.89924 25.4538 6.52288C25.4157 7.14651 24.9702 7.56015 24.3147 7.56015H23.4175C23.2457 7.56015 23.1757 7.59197 23.1757 7.80197V11.6711C23.1757 12.2565 23.4875 12.4665 24.1811 12.4283C24.7666 12.3965 25.2184 12.7083 25.3584 13.2238C25.5366 13.7265 25.2947 14.2801 24.8111 14.5029C23.812 14.9165 22.7366 14.9547 21.7375 14.5347C20.802 14.1211 20.5284 13.2556 20.4966 12.3583C20.4647 10.8692 20.4647 9.41833 20.4966 7.93561C20.4966 7.69379 20.4647 7.59197 20.1847 7.55379C19.6693 7.52197 19.2875 7.00015 19.2875 6.44652C19.2875 5.89288 19.6693 5.40924 20.1847 5.33924C20.4647 5.30743 20.5284 5.19924 20.5284 4.92561C20.5284 4.47379 20.4966 3.99015 20.5602 3.5447C20.732 2.47561 21.5275 1.92198 22.4947 1.61016C22.8702 1.52107 23.2138 1.41289 23.7293 1.48289Z" fill="#38322A"/>
<path d="M25.321 10.0166C25.321 6.97477 27.8792 4.76659 30.8828 5.18023C31.7801 5.28205 32.5755 5.56205 33.301 6.11568C33.8546 6.5675 33.9946 7.25477 33.5746 7.80841C33.1928 8.32386 32.4356 8.46386 31.8437 8.05023C31.5383 7.80205 31.1883 7.61114 30.8065 7.49659C29.3874 7.15295 28.1083 8.08204 27.9365 9.53295C27.8346 10.3602 27.9683 11.1239 28.5219 11.7475C29.2856 12.6448 30.5583 12.7848 31.6337 12.1611C31.761 12.0593 31.901 11.9639 32.0474 11.8875C32.5628 11.5439 33.2246 11.6075 33.6001 12.0593C33.9819 12.543 33.9437 13.1984 33.4601 13.6502C32.7665 14.2929 31.8819 14.6939 30.9401 14.7893C28.9037 15.0311 27.211 14.4075 26.0337 12.6448C25.5374 11.8684 25.2828 10.9457 25.321 10.0166Z" fill="#38322A"/>
<path d="M42.9422 8.4643C42.9422 7.56703 42.7322 6.73976 42.1149 6.07794C40.9377 4.83703 38.8313 4.83703 37.5522 6.04612C37.4122 6.18612 37.2404 6.35794 37.0686 6.56158V3.24612C37.0686 2.62249 36.8967 1.96703 37.4822 1.4834C36.5849 1.4834 35.8213 1.6934 35.1658 2.27885C34.6504 2.73067 34.4086 3.28431 34.4086 3.97158V14.8534H37.1004V9.29157C37.1004 8.42612 37.5522 7.80248 38.2395 7.63067C39.3086 7.38885 40.0722 7.87248 40.2758 9.01157V11.8434L40.5877 12.257L40.6895 12.3588C40.8486 12.5179 40.9758 12.7088 41.0713 12.9125C41.3131 13.2943 41.4531 13.7398 41.6567 14.2234C41.8986 13.2879 42.3822 12.5307 42.9677 11.837C42.9422 10.7107 42.9804 9.60339 42.9422 8.4643Z" fill="#38322A"/>
<path d="M45.3278 12.3331C44.9459 12.5749 44.7423 12.9185 44.4623 13.2685C44.6341 12.6449 44.9841 12.0912 45.4996 11.544C44.4941 12.0976 43.9787 12.9631 43.5969 14.6176C43.495 13.3385 44.1823 12.3712 44.9459 11.4358C43.9087 12.0594 43.355 13.0267 43.0114 14.134C43.0432 13.0967 43.4632 12.2312 44.2523 11.544C42.9032 12.1358 42.4578 13.3067 42.2541 14.6558C42.2541 13.3067 42.8078 12.2376 43.8769 11.3403C43.495 11.4103 43.2914 11.684 43.0114 11.8558C42.4578 12.5494 41.9741 13.3067 41.7005 14.2421C41.4969 13.7585 41.3569 13.3067 41.115 12.9312C40.975 12.7594 40.8732 12.5494 40.7332 12.3776L40.6314 12.2758L40.3196 11.8621C40.046 11.6903 39.9378 11.4103 39.6323 11.3785C40.0141 11.8621 40.3578 12.3458 40.6696 12.8294C40.975 13.3449 41.166 13.924 41.2232 14.5221C41.2232 14.5921 41.2932 14.694 41.1532 14.694C41.0514 14.694 41.0514 14.624 41.0514 14.554C41.0196 14.4521 41.0196 14.3503 40.9814 14.2421C40.7714 13.3767 40.466 12.5812 39.8041 11.9258C39.6641 11.7858 39.4923 11.614 39.2505 11.5821C39.8741 12.3776 40.3196 13.2749 40.4278 14.2803C40.0841 13.7267 39.7341 13.1731 39.1487 12.8294C39.6005 13.2749 39.8741 13.8285 40.046 14.4203C40.116 14.7003 40.0778 14.764 39.8041 14.7321C39.7023 14.7321 39.4223 14.6621 39.5623 14.9421H45.0923C45.1241 14.7321 45.0605 14.6303 44.8505 14.6303C44.4687 14.6303 44.4369 14.5985 44.5387 14.2167C44.615 13.5167 44.8887 12.8676 45.3278 12.3331Z" fill="#38322A"/>
</svg>
