<svg width="40" height="40" viewBox="0 0 40 40" fill="none" xmlns="http://www.w3.org/2000/svg">
<mask id="mask0_0_2643" style="mask-type:alpha" maskUnits="userSpaceOnUse" x="0" y="0" width="40" height="40">
<rect width="40" height="40" fill="#D9D9D9"/>
</mask>
<g mask="url(#mask0_0_2643)">
<path d="M13.0442 17.7237C11.7428 17.7237 10.6322 17.2638 9.71252 16.3441C8.79252 15.4241 8.33252 14.3136 8.33252 13.0124C8.33252 11.7111 8.79252 10.6005 9.71252 9.68078C10.6322 8.76078 11.7428 8.30078 13.0442 8.30078C14.3453 8.30078 15.4559 8.76078 16.3759 9.68078C17.2956 10.6005 17.7554 11.7111 17.7554 13.0124C17.7554 14.3136 17.2956 15.4241 16.3759 16.3441C15.4559 17.2638 14.3453 17.7237 13.0442 17.7237ZM13.0421 16.057C13.8874 16.057 14.6065 15.7612 15.1996 15.1695C15.7924 14.5779 16.0888 13.8594 16.0888 13.0141C16.0888 12.1688 15.7929 11.4498 15.2013 10.857C14.6096 10.264 13.8911 9.96745 13.0459 9.96745C12.2006 9.96745 11.4815 10.2633 10.8888 10.855C10.2957 11.4466 9.99919 12.1651 9.99919 13.0104C9.99919 13.8556 10.295 14.5748 10.8867 15.1679C11.4784 15.7606 12.1968 16.057 13.0421 16.057ZM26.9863 31.6662C25.6852 31.6662 24.5746 31.2062 23.6546 30.2862C22.7349 29.3665 22.275 28.2559 22.275 26.9545C22.275 25.6534 22.7349 24.5429 23.6546 23.6229C24.5746 22.7031 25.6852 22.2433 26.9863 22.2433C28.2877 22.2433 29.3982 22.7031 30.3179 23.6229C31.2379 24.5429 31.6979 25.6534 31.6979 26.9545C31.6979 28.2559 31.2379 29.3665 30.3179 30.2862C29.3982 31.2062 28.2877 31.6662 26.9863 31.6662ZM26.9846 29.9995C27.8299 29.9995 28.5489 29.7037 29.1417 29.112C29.7347 28.5204 30.0313 27.8019 30.0313 26.9566C30.0313 26.1113 29.7354 25.3922 29.1438 24.7991C28.5521 24.2063 27.8336 23.9099 26.9884 23.9099C26.1431 23.9099 25.4239 24.2058 24.8309 24.7974C24.2381 25.3891 23.9417 26.1076 23.9417 26.9529C23.9417 27.7981 24.2375 28.5172 24.8292 29.1099C25.4209 29.703 26.1393 29.9995 26.9846 29.9995ZM9.80044 31.3458L8.65294 30.1983L30.23 8.6212L31.3775 9.7687L9.80044 31.3458Z" fill="#00AFBF"/>
</g>
</svg>
