<svg width="48" height="48" viewBox="0 0 48 48" fill="none" xmlns="http://www.w3.org/2000/svg">
<mask id="mask0_0_1826" style="mask-type:alpha" maskUnits="userSpaceOnUse" x="0" y="0" width="48" height="48">
<rect width="48" height="48" fill="#D9D9D9"/>
</mask>
<g mask="url(#mask0_0_1826)">
<path d="M22 22.7695C20.35 22.7695 18.9375 22.182 17.7625 21.007C16.5875 19.832 16 18.4195 16 16.7695C16 15.1195 16.5875 13.707 17.7625 12.532C18.9375 11.357 20.35 10.7695 22 10.7695C23.65 10.7695 25.0625 11.357 26.2375 12.532C27.4125 13.707 28 15.1195 28 16.7695C28 18.4195 27.4125 19.832 26.2375 21.007C25.0625 22.182 23.65 22.7695 22 22.7695ZM22 20.7695C23.1 20.7695 24.0417 20.3779 24.825 19.5945C25.6083 18.8112 26 17.8695 26 16.7695C26 15.6695 25.6083 14.7279 24.825 13.9445C24.0417 13.1612 23.1 12.7695 22 12.7695C20.9 12.7695 19.9583 13.1612 19.175 13.9445C18.3917 14.7279 18 15.6695 18 16.7695C18 17.8695 18.3917 18.8112 19.175 19.5945C19.9583 20.3779 20.9 20.7695 22 20.7695ZM42.431 43.8465L37.1075 38.5235C36.4588 38.9749 35.7858 39.3082 35.0885 39.5235C34.3912 39.7389 33.6977 39.8465 33.008 39.8465C31.0923 39.8465 29.471 39.18 28.144 37.847C26.8173 36.5144 26.154 34.8959 26.154 32.9915C26.154 31.0872 26.8205 29.4715 28.1535 28.1445C29.4862 26.8179 31.1047 26.1545 33.009 26.1545C34.9133 26.1545 36.529 26.82 37.856 28.151C39.1827 29.4824 39.846 31.0989 39.846 33.0005C39.846 33.6955 39.7383 34.3917 39.523 35.089C39.3077 35.7864 38.9743 36.4594 38.523 37.108L43.846 42.4315L42.431 43.8465ZM33 37.8465C34.3743 37.8465 35.5257 37.3825 36.454 36.4545C37.382 35.5262 37.846 34.3749 37.846 33.0005C37.846 31.6262 37.382 30.4749 36.454 29.5465C35.5257 28.6185 34.3743 28.1545 33 28.1545C31.6257 28.1545 30.4743 28.6185 29.546 29.5465C28.618 30.4749 28.154 31.6262 28.154 33.0005C28.154 34.3749 28.618 35.5262 29.546 36.4545C30.4743 37.3825 31.6257 37.8465 33 37.8465ZM8 37.2315V33.9505C8 33.0992 8.2385 32.3249 8.7155 31.6275C9.1925 30.9302 9.84117 30.3699 10.6615 29.9465C12.1052 29.2339 13.977 28.5647 16.277 27.939C18.577 27.3134 21.0655 27.103 23.7425 27.308C23.5475 27.6517 23.3727 27.9817 23.218 28.298C23.0637 28.614 22.941 28.9419 22.85 29.2815C20.4653 29.1659 18.259 29.4049 16.231 29.9985C14.2027 30.5922 12.668 31.1595 11.627 31.7005C11.114 31.9442 10.7147 32.2649 10.429 32.6625C10.143 33.0605 10 33.4899 10 33.9505V35.2315H22.3885C22.4525 35.5545 22.5428 35.889 22.6595 36.235C22.7762 36.5814 22.9063 36.9135 23.05 37.2315H8Z" fill="#00AFBF"/>
</g>
</svg>
