<svg width="48" height="48" viewBox="0 0 48 48" fill="none" xmlns="http://www.w3.org/2000/svg">
<mask id="mask0_0_3221" style="mask-type:alpha" maskUnits="userSpaceOnUse" x="0" y="0" width="48" height="48">
<rect width="48" height="48" fill="#00AFBF"/>
</mask>
<g mask="url(#mask0_0_3221)">
<path d="M24 33.95C27.2743 31.0783 29.7597 28.2937 31.456 25.596C33.152 22.8987 34 20.377 34 18.031C34 15.082 33.0667 12.673 31.2 10.804C29.3333 8.93467 26.9333 8 24 8C21.0667 8 18.6667 8.93467 16.8 10.804C14.9333 12.673 14 15.082 14 18.031C14 20.377 14.848 22.8987 16.544 25.596C18.2403 28.2937 20.7257 31.0783 24 33.95ZM24 36.5C20.0437 33.264 17.0545 30.0832 15.0325 26.9575C13.0108 23.8318 12 20.8563 12 18.031C12 14.5053 13.1205 11.6187 15.3615 9.371C17.6025 7.12367 20.482 6 24 6C27.518 6 30.3975 7.12367 32.6385 9.371C34.8795 11.6187 36 14.5053 36 18.031C36 20.8563 34.9892 23.8255 32.9675 26.9385C30.9455 30.0512 27.9563 33.2383 24 36.5ZM24 21.231C24.895 21.231 25.6572 20.9162 26.2865 20.2865C26.9162 19.6572 27.231 18.895 27.231 18C27.231 17.105 26.9162 16.3428 26.2865 15.7135C25.6572 15.0838 24.895 14.769 24 14.769C23.105 14.769 22.3428 15.0838 21.7135 15.7135C21.0838 16.3428 20.769 17.105 20.769 18C20.769 18.895 21.0838 19.6572 21.7135 20.2865C22.3428 20.9162 23.105 21.231 24 21.231ZM12 42V40H36V42H12Z" fill="#00AFBF"/>
</g>
</svg>
