<svg width="44" height="35" viewBox="0 0 44 35" fill="none" xmlns="http://www.w3.org/2000/svg">
<path d="M2.2845 18.869C1.53083 17.618 0.961667 16.3437 0.577 15.046C0.192333 13.7487 0 12.4667 0 11.2C0 8.082 1.08717 5.43583 3.2615 3.2615C5.43583 1.08717 8.082 0 11.2 0C13.223 0 15.1653 0.525 17.027 1.575C18.8883 2.625 20.546 4.1385 22 6.1155C23.454 4.1385 25.1117 2.625 26.973 1.575C28.8347 0.525 30.777 0 32.8 0C35.918 0 38.5642 1.08717 40.7385 3.2615C42.9128 5.43583 44 8.082 44 11.2C44 12.4153 43.8077 13.659 43.423 14.931C43.0383 16.2027 42.4692 17.5027 41.7155 18.831C41.5068 18.5553 41.2605 18.3088 40.9765 18.0915C40.6922 17.8742 40.3962 17.6923 40.0885 17.546C40.7218 16.4203 41.1987 15.3307 41.519 14.277C41.8397 13.223 42 12.1973 42 11.2C42 8.62567 41.1103 6.44867 39.331 4.669C37.5513 2.88967 35.3743 2 32.8 2C30.741 2 28.8712 2.61983 27.1905 3.8595C25.5095 5.09917 23.7793 6.87933 22 9.2C20.2207 6.87167 18.4905 5.08967 16.8095 3.854C15.1288 2.618 13.259 2 11.2 2C8.62567 2 6.44867 2.88967 4.669 4.669C2.88967 6.44867 2 8.62567 2 11.2C2 12.2487 2.16033 13.3063 2.481 14.373C2.80133 15.4397 3.26533 16.5102 3.873 17.5845C3.56533 17.7565 3.27683 17.945 3.0075 18.15C2.7385 18.355 2.4975 18.5947 2.2845 18.869ZM0 34.077V32.35C0 31.114 0.652667 30.0928 1.958 29.2865C3.26333 28.4802 4.95717 28.077 7.0395 28.077C7.42083 28.077 7.78583 28.0917 8.1345 28.121C8.48317 28.1507 8.81533 28.1988 9.131 28.2655C8.84367 28.7782 8.62183 29.3167 8.4655 29.881C8.30917 30.4453 8.231 31.0465 8.231 31.6845V34.077H0ZM12 34.077V31.827C12 30.173 12.9247 28.8588 14.774 27.8845C16.623 26.9102 19.0352 26.423 22.0105 26.423C25.0138 26.423 27.4295 26.9102 29.2575 27.8845C31.0858 28.8588 32 30.173 32 31.827V34.077H12ZM35.769 34.077V31.6845C35.769 31.0465 35.6992 30.4453 35.5595 29.881C35.4198 29.3167 35.2103 28.7782 34.931 28.2655C35.2463 28.1988 35.5788 28.1507 35.9285 28.121C36.2782 28.0917 36.6353 28.077 37 28.077C39.1 28.077 40.7917 28.4802 42.075 29.2865C43.3583 30.0928 44 31.114 44 32.35V34.077H35.769ZM21.9955 28.423C19.7395 28.423 17.868 28.7243 16.381 29.327C14.8937 29.9297 14.1192 30.7053 14.0575 31.654V32.077H29.954V31.654C29.8847 30.7053 29.1147 29.9297 27.644 29.327C26.1737 28.7243 24.2908 28.423 21.9955 28.423ZM7.0385 26.1925C6.25583 26.1925 5.58583 25.9137 5.0285 25.356C4.47117 24.7987 4.1925 24.1287 4.1925 23.346C4.1925 22.5717 4.47117 21.9102 5.0285 21.3615C5.58583 20.8128 6.25583 20.5385 7.0385 20.5385C7.81283 20.5385 8.48083 20.8128 9.0425 21.3615C9.60383 21.9102 9.8845 22.5717 9.8845 23.346C9.8845 24.1287 9.60383 24.7987 9.0425 25.356C8.48083 25.9137 7.81283 26.1925 7.0385 26.1925ZM37 26.1925C36.2333 26.1925 35.5673 25.9137 35.002 25.356C34.4367 24.7987 34.154 24.1287 34.154 23.346C34.154 22.5717 34.4367 21.9102 35.002 21.3615C35.5673 20.8128 36.2358 20.5385 37.0075 20.5385C37.8025 20.5385 38.4743 20.8128 39.023 21.3615C39.5717 21.9102 39.846 22.5717 39.846 23.346C39.846 24.1287 39.5733 24.7987 39.028 25.356C38.4823 25.9137 37.8063 26.1925 37 26.1925ZM22.0135 24.923C20.7995 24.923 19.763 24.4967 18.904 23.644C18.045 22.7917 17.6155 21.7565 17.6155 20.5385C17.6155 19.2962 18.0417 18.2548 18.894 17.4145C19.7467 16.5742 20.782 16.154 22 16.154C23.2423 16.154 24.2837 16.5728 25.124 17.4105C25.9643 18.2482 26.3845 19.2863 26.3845 20.525C26.3845 21.739 25.9657 22.7755 25.128 23.6345C24.2903 24.4935 23.2522 24.923 22.0135 24.923ZM22 18.154C21.3563 18.154 20.798 18.3825 20.325 18.8395C19.852 19.2965 19.6155 19.8628 19.6155 20.5385C19.6155 21.1822 19.852 21.7405 20.325 22.2135C20.798 22.6865 21.3627 22.923 22.019 22.923C22.6757 22.923 23.234 22.6865 23.694 22.2135C24.1543 21.7405 24.3845 21.1757 24.3845 20.519C24.3845 19.8627 24.156 19.3043 23.699 18.844C23.242 18.384 22.6757 18.154 22 18.154Z" fill="#00AFBF"/>
</svg>
