<svg width="40" height="40" viewBox="0 0 40 40" fill="none" xmlns="http://www.w3.org/2000/svg">
<mask id="mask0_0_2579" style="mask-type:alpha" maskUnits="userSpaceOnUse" x="0" y="0" width="40" height="40">
<rect width="40" height="40" fill="#D9D9D9"/>
</mask>
<g mask="url(#mask0_0_2579)">
<path d="M26.6667 17.9488C27.0106 17.9488 27.3103 17.8211 27.5658 17.5658C27.8211 17.3103 27.9488 17.0106 27.9488 16.6667C27.9488 16.3228 27.8211 16.0231 27.5658 15.7675C27.3103 15.5122 27.0106 15.3846 26.6667 15.3846C26.3228 15.3846 26.0231 15.5122 25.7675 15.7675C25.5122 16.0231 25.3846 16.3228 25.3846 16.6667C25.3846 17.0106 25.5122 17.3103 25.7675 17.5658C26.0231 17.8211 26.3228 17.9488 26.6667 17.9488ZM13.3333 14.1667H21.6667V12.5H13.3333V14.1667ZM8.75 33.3333C7.93389 30.4231 7.10486 27.5358 6.26292 24.6717C5.42097 21.8072 5 18.8611 5 15.8333C5 13.7478 5.72861 11.9764 7.18583 10.5192C8.64306 9.06195 10.4144 8.33333 12.5 8.33333H21.6667C22.3867 7.38472 23.2376 6.59194 24.2196 5.955C25.2015 5.31833 26.295 5 27.5 5C27.7244 5 27.9194 5.08278 28.085 5.24833C28.2506 5.41389 28.3333 5.60889 28.3333 5.83333C28.3333 5.89306 28.3232 5.95292 28.3029 6.01292C28.2826 6.07264 28.2661 6.12917 28.2533 6.1825C28.0567 6.68056 27.899 7.19083 27.7804 7.71333C27.6618 8.23556 27.5533 8.75958 27.455 9.28542L32.3367 14.1667H35V22.9071L30.6121 24.3525L27.9167 33.3333H21.6667V30H15V33.3333H8.75ZM10 31.6667H13.3333V28.3333H23.3333V31.6667H26.6667L29.25 23.0833L33.3333 21.7083V15.8333H31.6667L25.8333 10C25.8333 9.44444 25.8681 8.90972 25.9375 8.39583C26.0069 7.88194 26.1325 7.37181 26.3142 6.86542C25.5086 7.08764 24.811 7.48028 24.2213 8.04333C23.6315 8.60639 23.155 9.25861 22.7917 10H12.5C10.8889 10 9.51389 10.5694 8.375 11.7083C7.23611 12.8472 6.66667 14.2222 6.66667 15.8333C6.66667 18.5556 7.04167 21.2153 7.79167 23.8125C8.54167 26.4097 9.27778 29.0278 10 31.6667Z" fill="#00AFBF"/>
</g>
</svg>
