<svg width="128" height="128" viewBox="0 0 128 128" fill="none" xmlns="http://www.w3.org/2000/svg">
<path d="M63.7282 127.048C59.3619 127.048 55.6503 125.503 52.5933 122.415C49.5364 119.327 48.0079 115.578 48.0079 111.167C48.0079 107.272 49.2249 103.835 51.6587 100.853C54.0926 97.8717 57.1958 96.0767 60.9683 95.4682V36.5079L27.746 76.8492C29.0847 78.1878 30.0886 79.7394 30.7579 81.504C31.4272 83.2685 31.7619 85.1852 31.7619 87.254C31.7619 91.6653 30.1799 95.4147 27.0159 98.5021C23.8519 101.591 20.0867 103.135 15.7203 103.135C11.354 103.135 7.64233 101.594 4.5854 98.513C1.52846 95.4305 0 91.6885 0 87.2868C0 82.884 1.52603 79.131 4.5781 76.0278C7.63138 72.9246 11.3381 71.373 15.6984 71.373C17.2098 71.373 18.6525 71.5556 20.0264 71.9206C21.4003 72.2857 22.6958 72.8333 23.9127 73.5635L58.7778 31.0317C55.6138 30.0582 52.9669 28.172 50.8373 25.373C48.7077 22.5741 47.6429 19.4101 47.6429 15.881C47.6429 11.4696 49.1713 7.7196 52.2283 4.63103C55.2852 1.54368 58.9968 0 63.3632 0C67.7295 0 71.4947 1.54368 74.6587 4.63103C77.8228 7.7196 79.4048 11.4696 79.4048 15.881C79.4048 19.4101 78.3399 22.5741 76.2103 25.373C74.0807 28.172 71.373 30.0582 68.0873 31.0317L103.135 73.381C104.352 72.7725 105.608 72.2857 106.904 71.9206C108.199 71.5556 109.559 71.373 110.984 71.373C115.365 71.373 119.138 72.9137 122.302 75.9949C125.466 79.0774 127.048 82.8195 127.048 87.2211C127.048 91.624 125.466 95.377 122.302 98.4802C119.138 101.583 115.372 103.135 111.006 103.135C106.64 103.135 102.928 101.591 99.8711 98.5021C96.8142 95.4147 95.2857 91.6653 95.2857 87.254C95.2857 85.2278 95.6204 83.2916 96.2897 81.4456C96.959 79.5983 97.963 78.0053 99.3016 76.6667L66.0794 36.5079V95.4682C69.9735 96.0767 73.2288 97.8413 75.8452 100.762C78.4616 103.683 79.7698 107.151 79.7698 111.167C79.7698 115.578 78.1878 119.327 75.0238 122.415C71.8598 125.503 68.0946 127.048 63.7282 127.048ZM63.7976 121.754C66.7791 121.754 69.3347 120.723 71.4643 118.66C73.5939 116.598 74.6587 114.043 74.6587 110.993C74.6587 107.945 73.6091 105.386 71.5099 103.317C69.4107 101.249 66.8095 100.214 63.7063 100.214C60.7857 100.214 58.291 101.279 56.2222 103.409C54.1534 105.538 53.119 108.063 53.119 110.984C53.119 113.905 54.1534 116.43 56.2222 118.56C58.291 120.689 60.8161 121.754 63.7976 121.754ZM15.7897 98.0238C18.7712 98.0238 21.3267 96.9925 23.4563 94.9298C25.586 92.8683 26.6508 90.3127 26.6508 87.2631C26.6508 84.2147 25.6012 81.6561 23.502 79.5873C21.4028 77.5185 18.8016 76.4841 15.6984 76.4841C12.7778 76.4841 10.2831 77.5489 8.21429 79.6786C6.1455 81.8082 5.11111 84.3333 5.11111 87.254C5.11111 90.1746 6.1455 92.6997 8.21429 94.8294C10.2831 96.959 12.8082 98.0238 15.7897 98.0238ZM111.075 98.0238C114.057 98.0238 116.612 96.9925 118.742 94.9298C120.872 92.8683 121.937 90.3127 121.937 87.2631C121.937 84.2147 120.887 81.6561 118.788 79.5873C116.688 77.5185 114.087 76.4841 110.984 76.4841C108.063 76.4841 105.569 77.5489 103.5 79.6786C101.431 81.8082 100.397 84.3333 100.397 87.254C100.397 90.1746 101.431 92.6997 103.5 94.8294C105.569 96.959 108.094 98.0238 111.075 98.0238ZM63.4325 26.6508C66.414 26.6508 68.9696 25.6194 71.0992 23.5567C73.2288 21.4953 74.2936 18.9397 74.2936 15.8901C74.2936 12.8417 73.244 10.2831 71.1448 8.21429C69.0456 6.1455 66.4444 5.11111 63.3413 5.11111C60.4206 5.11111 57.9259 6.17593 55.8571 8.30556C53.7884 10.4352 52.754 12.9603 52.754 15.881C52.754 18.8016 53.7884 21.3267 55.8571 23.4563C57.9259 25.586 60.4511 26.6508 63.4325 26.6508Z" fill="#00AFBF"/>
</svg>
