<svg width="64" height="64" viewBox="0 0 64 64" fill="none" xmlns="http://www.w3.org/2000/svg">
<mask id="mask0_0_2368" style="mask-type:alpha" maskUnits="userSpaceOnUse" x="0" y="0" width="64" height="64">
<rect width="64" height="64" fill="#D9D9D9"/>
</mask>
<g mask="url(#mask0_0_2368)">
<path d="M31.9997 29.0247C30.1535 29.0247 28.5808 28.3751 27.2817 27.076C25.9826 25.7769 25.3331 24.2043 25.3331 22.358C25.3331 20.5123 25.9826 18.9398 27.2817 17.6407C28.5808 16.3411 30.1535 15.6914 31.9997 15.6914C33.846 15.6914 35.4186 16.3411 36.7177 17.6407C38.0168 18.9398 38.6664 20.5123 38.6664 22.358C38.6664 24.2043 38.0168 25.7769 36.7177 27.076C35.4186 28.3751 33.846 29.0247 31.9997 29.0247ZM31.9997 26.358C33.0971 26.358 34.0382 25.9658 34.8231 25.1814C35.6075 24.3969 35.9997 23.4558 35.9997 22.358C35.9997 21.2607 35.6075 20.3198 34.8231 19.5354C34.0382 18.7505 33.0971 18.358 31.9997 18.358C30.9024 18.358 29.9613 18.7505 29.1764 19.5354C28.392 20.3198 27.9997 21.2607 27.9997 22.358C27.9997 23.4558 28.392 24.3969 29.1764 25.1814C29.9613 25.9658 30.9024 26.358 31.9997 26.358ZM17.3331 42.974V39.2407C17.3331 38.478 17.5066 37.7967 17.8537 37.1967C18.2008 36.5967 18.706 36.1036 19.3691 35.7174C21.2664 34.596 23.2748 33.7474 25.3944 33.1714C27.5144 32.5954 29.7162 32.3074 31.9997 32.3074C34.2495 32.3074 36.4426 32.5954 38.5791 33.1714C40.716 33.7474 42.7331 34.596 44.6304 35.7174C45.2597 36.1036 45.7564 36.6054 46.1204 37.2227C46.4844 37.8396 46.6664 38.5123 46.6664 39.2407V42.974H17.3331ZM31.9997 34.974C30.0064 34.974 28.0064 35.2645 25.9997 35.8454C23.9931 36.4267 22.0237 37.2643 20.0917 38.358V40.358H43.9077V38.3074C42.01 37.2131 40.0491 36.384 38.0251 35.82C36.0015 35.256 33.9931 34.974 31.9997 34.974ZM56.5997 21.7327C55.222 18.454 53.2913 15.5814 50.8077 13.1147C48.3237 10.648 45.4766 8.74292 42.2664 7.39937L43.3077 4.92737C47.0135 6.56159 50.1475 8.64537 52.7097 11.1787C55.2724 13.712 57.4102 16.8829 59.1231 20.6914L56.5997 21.7327ZM7.39973 21.7327L4.92773 20.6914C6.57218 16.9171 8.67573 13.7574 11.2384 11.212C13.8006 8.6667 16.9517 6.57181 20.6917 4.92737L21.7331 7.39937C18.4886 8.77715 15.6331 10.6994 13.1664 13.166C10.6997 15.6327 8.77751 18.4883 7.39973 21.7327ZM20.6411 59.0714C16.9691 57.5056 13.8177 55.3876 11.1871 52.7174C8.5564 50.0471 6.46996 46.8934 4.92773 43.256L7.39973 42.266C8.77751 45.5105 10.6997 48.366 13.1664 50.8327C15.6331 53.2994 18.4886 55.2216 21.7331 56.5994L20.6411 59.0714ZM43.2564 59.0714L42.2664 56.5994C45.5108 55.2216 48.3664 53.2994 50.8331 50.8327C53.2997 48.366 55.222 45.5105 56.5997 42.266L59.0717 43.3074C57.4375 47.0131 55.3108 50.1729 52.6917 52.7867C50.0731 55.4005 46.928 57.4954 43.2564 59.0714Z" fill="#00AFBF"/>
</g>
</svg>
