<svg width="48" height="48" viewBox="0 0 48 48" fill="none" xmlns="http://www.w3.org/2000/svg">
<mask id="mask0_0_1812" style="mask-type:alpha" maskUnits="userSpaceOnUse" x="0" y="0" width="48" height="48">
<rect width="48" height="48" fill="#D9D9D9"/>
</mask>
<g mask="url(#mask0_0_1812)">
<path d="M24 30.6158C26.7847 28.0875 28.5642 26.3265 29.3385 25.3328C30.1128 24.3395 30.5 23.3436 30.5 22.3453C30.5 21.3743 30.1462 20.5381 29.4385 19.8368C28.7312 19.1355 27.8875 18.7848 26.9075 18.7848C26.3102 18.7848 25.7552 18.8993 25.2425 19.1283C24.7298 19.357 24.3157 19.6733 24 20.0773C23.677 19.6733 23.2597 19.357 22.748 19.1283C22.2367 18.8993 21.6848 18.7848 21.0925 18.7848C20.1232 18.7848 19.282 19.1348 18.569 19.8348C17.8563 20.5348 17.5 21.3713 17.5 22.3443C17.5 22.8576 17.5688 23.3305 17.7065 23.7628C17.8438 24.1951 18.1463 24.7018 18.614 25.2828C19.0817 25.8638 19.7395 26.5733 20.5875 27.4113C21.4355 28.2496 22.573 29.3178 24 30.6158ZM24 41.9233C19.982 40.731 16.6442 38.297 13.9865 34.6213C11.3288 30.9456 10 26.8053 10 22.2003V11.3848L24 6.1543L38 11.3848V22.2003C38 26.8053 36.6712 30.9456 34.0135 34.6213C31.3558 38.297 28.018 40.731 24 41.9233ZM24 39.8003C27.4667 38.7003 30.3333 36.5003 32.6 33.2003C34.8667 29.9003 36 26.2336 36 22.2003V12.7503L24 8.2888L12 12.7503V22.2003C12 26.2336 13.1333 29.9003 15.4 33.2003C17.6667 36.5003 20.5333 38.7003 24 39.8003Z" fill="#00AFBF"/>
</g>
</svg>
