<svg width="80" height="80" viewBox="0 0 80 80" fill="none" xmlns="http://www.w3.org/2000/svg">
<mask id="mask0_0_77" style="mask-type:alpha" maskUnits="userSpaceOnUse" x="0" y="0" width="80" height="80">
<rect width="80" height="80" fill="#D9D9D9"/>
</mask>
<g mask="url(#mask0_0_77)">
<path d="M26.5517 59.6091L40 51.545L53.5125 59.7566L49.9933 44.4875L61.8075 34.3075L46.2433 32.9041L40 18.4933L33.8208 32.8208L18.2567 34.16L30.0708 44.4875L26.5517 59.6091ZM21.4683 66.6666L26.3717 45.75L10 31.6025L31.5642 29.7758L40 9.99998L48.5 29.7758L70.0642 31.6025L53.6925 45.75L58.5958 66.6666L40 55.5317L21.4683 66.6666ZM58.0767 23.5258L59.5708 17.2625L54.5517 13.0516L61.1667 12.5125L63.7183 6.60248L66.2692 12.5125L72.885 13.0516L67.865 17.2625L69.3592 23.5258L63.7183 20.1858L58.0767 23.5258Z" fill="#00AFBF"/>
</g>
</svg>
