<svg width="40" height="40" viewBox="0 0 40 40" fill="none" xmlns="http://www.w3.org/2000/svg">
<mask id="mask0_0_1690" style="mask-type:alpha" maskUnits="userSpaceOnUse" x="0" y="0" width="40" height="40">
<rect width="40" height="40" fill="#D9D9D9"/>
</mask>
<g mask="url(#mask0_0_1690)">
<path d="M13.2758 29.8046L20 25.7725L26.7563 29.8784L24.9967 22.2438L30.9038 17.1538L23.1217 16.4521L20 9.24669L16.9104 16.4104L9.12833 17.08L15.0354 22.2438L13.2758 29.8046ZM10.7342 33.3334L13.1858 22.875L5 15.8013L15.7821 14.8879L20 5.00002L24.25 14.8879L35.0321 15.8013L26.8462 22.875L29.2979 33.3334L20 27.7659L10.7342 33.3334ZM29.0383 11.7629L29.7854 8.63127L27.2758 6.52585L30.5833 6.25627L31.8592 3.30127L33.1346 6.25627L36.4425 6.52585L33.9325 8.63127L34.6796 11.7629L31.8592 10.0929L29.0383 11.7629Z" fill="#002E2D"/>
</g>
</svg>
