<svg width="98" height="98" viewBox="0 0 98 98" fill="none" xmlns="http://www.w3.org/2000/svg">
<mask id="mask0_0_2724" style="mask-type:alpha" maskUnits="userSpaceOnUse" x="0" y="0" width="98" height="98">
<rect width="97.7534" height="97.7534" fill="#D9D9D9"/>
</mask>
<g mask="url(#mask0_0_2724)">
<path d="M68.7718 55.4567C66.5479 55.4567 64.6343 54.655 63.0308 53.0516C61.4274 51.4482 60.6257 49.5345 60.6257 47.3106C60.6257 45.0861 61.4274 43.1721 63.0308 41.5686C64.6343 39.9659 66.5479 39.1645 68.7718 39.1645C70.9964 39.1645 72.9104 39.9659 74.5138 41.5686C76.1165 43.1721 76.9179 45.0861 76.9179 47.3106C76.9179 49.5345 76.1165 51.4482 74.5138 53.0516C72.9104 54.655 70.9964 55.4567 68.7718 55.4567ZM50.443 75.822V72.1563C50.443 70.8923 50.7587 69.7464 51.39 68.7186C52.0207 67.6909 52.9167 66.9516 54.0782 66.5008C56.3721 65.5349 58.7456 64.8102 61.199 64.3269C63.6523 63.8442 66.1766 63.6029 68.7718 63.6029C71.2618 63.6029 73.7355 63.8442 76.1929 64.3269C78.6503 64.8102 81.0748 65.5349 83.4664 66.5008C84.6272 66.9516 85.5233 67.6909 86.1546 68.7186C86.7852 69.7464 87.1006 70.8923 87.1006 72.1563V75.822H50.443ZM39.1647 46.3698C35.8045 46.3698 32.9279 45.1733 30.5349 42.7804C28.142 40.3874 26.9456 37.5108 26.9456 34.1506C26.9456 30.7903 28.142 27.9137 30.5349 25.5208C32.9279 23.1279 35.8045 21.9314 39.1647 21.9314C42.525 21.9314 45.4016 23.1279 47.7945 25.5208C50.1875 27.9137 51.3839 30.7903 51.3839 34.1506C51.3839 37.5108 50.1875 40.3874 47.7945 42.7804C45.4016 45.1733 42.525 46.3698 39.1647 46.3698ZM10.6533 75.822V69.1168C10.6533 67.3552 11.1387 65.7358 12.1094 64.2586C13.0809 62.7821 14.4022 61.6912 16.0735 60.9859C19.6762 59.1585 23.4176 57.7801 27.2979 56.8507C31.1781 55.9214 35.1338 55.4567 39.1647 55.4567C40.8096 55.4567 42.4544 55.5426 44.0992 55.7144C45.7441 55.8868 47.3889 56.1142 49.0338 56.3966L47.2946 58.2132C46.7148 58.8194 46.1351 59.4253 45.5554 60.0308C44.4903 59.8217 43.4252 59.6859 42.36 59.6235C41.2949 59.561 40.2298 59.5298 39.1647 59.5298C35.4881 59.5298 31.8573 59.9266 28.2724 60.7202C24.6881 61.5137 21.2691 62.793 18.0154 64.558C17.1281 65.0542 16.358 65.673 15.7049 66.4143C15.0526 67.1556 14.7264 68.0564 14.7264 69.1168V71.749H39.1647V75.822H10.6533ZM39.1647 42.2967C41.4049 42.2967 43.3227 41.4991 44.9179 39.9038C46.5132 38.3085 47.3109 36.3908 47.3109 34.1506C47.3109 31.9104 46.5132 29.9927 44.9179 28.3974C43.3227 26.8021 41.4049 26.0045 39.1647 26.0045C36.9246 26.0045 35.0068 26.8021 33.4115 28.3974C31.8163 29.9927 31.0186 31.9104 31.0186 34.1506C31.0186 36.3908 31.8163 38.3085 33.4115 39.9038C35.0068 41.4991 36.9246 42.2967 39.1647 42.2967Z" fill="#00AFBF"/>
</g>
</svg>
