<svg width="48" height="48" viewBox="0 0 48 48" fill="none" xmlns="http://www.w3.org/2000/svg">
<mask id="mask0_0_1819" style="mask-type:alpha" maskUnits="userSpaceOnUse" x="0" y="0" width="48" height="48">
<rect width="48" height="48" fill="#D9D9D9"/>
</mask>
<g mask="url(#mask0_0_1819)">
<path d="M14.8 42.6155L13.3845 41.2L25.8 28.773L32.8 35.773L43.15 25.423L44.577 26.85L32.8 38.6155L25.8 31.6155L14.8 42.6155ZM9.231 40C8.31033 40 7.54167 39.6917 6.925 39.075C6.30833 38.4583 6 37.6897 6 36.769V11.231C6 10.3103 6.30833 9.54167 6.925 8.925C7.54167 8.30833 8.31033 8 9.231 8H34.769C35.6897 8 36.4583 8.30833 37.075 8.925C37.6917 9.54167 38 10.3103 38 11.231V19.631H8V36.769C8 37.077 8.12817 37.3592 8.3845 37.6155C8.64083 37.8718 8.923 38 9.231 38V40ZM8 17.6305H36V11.231C36 10.923 35.8718 10.6408 35.6155 10.3845C35.3592 10.1282 35.077 10 34.769 10H9.231C8.923 10 8.64083 10.1282 8.3845 10.3845C8.12817 10.6408 8 10.923 8 11.231V17.6305Z" fill="#00AFBF"/>
</g>
</svg>
