<svg width="47" height="17" viewBox="0 0 47 17" fill="none" xmlns="http://www.w3.org/2000/svg">
<path d="M10.9385 0.973939C10.3478 2.63405 9.80497 3.1128 8.87831 3.1128C8.47987 3.1128 8.12752 3.04878 7.84036 2.98488V11.5107C8.94233 11.4788 10.1078 11.0478 10.7149 10.5684L10.8746 10.8238C10.0439 12.0055 8.79869 13.0108 6.54726 13.0108C3.51305 13.0108 1.27757 10.9198 1.27757 7.72693C1.27757 5.34781 2.87459 3.57619 4.90287 2.5067C4.5035 2.47458 4.08807 2.44245 3.5929 2.44245C2.49151 2.44245 1.35684 2.96951 0.462764 5.52358L0.159424 5.41183C0.718497 1.78735 1.99599 0.846247 4.02463 0.846247C6.03638 0.846247 7.37732 1.56421 9.67717 1.56421C9.94861 1.56421 10.1878 1.48447 10.7312 0.782227L10.9385 0.973939ZM5.1898 2.53837H5.15802C4.23205 3.43279 3.19411 4.91678 3.19411 6.88035C3.19411 8.26959 3.52911 9.33966 4.13637 10.1051L4.67892 9.72239C5.03021 9.46689 5.18992 9.11571 5.18992 8.18939L5.1898 2.53837ZM7.5532 2.93704C7.37732 2.90549 7.13846 2.84182 6.89845 2.79375V8.55629C6.89845 8.55629 5.22204 9.69049 4.32739 10.3134C5.07782 11.0949 6.16349 11.4941 7.55308 11.5107L7.5532 2.93704Z" fill="#38322A"/>
<path d="M16.6653 4.54999C16.4574 4.67757 16.4417 4.917 16.4417 5.28436V11.2548C16.4417 12.6603 15.9944 13.7935 13.8706 14.6879L13.6154 14.5752C14.4456 13.9052 14.7969 13.2345 14.7969 11.7498V5.09265C14.5578 4.93318 14.3179 4.80607 13.9343 4.56629L13.4239 4.96531V11.2711C13.5358 11.3828 13.8072 11.5581 13.9672 11.6699V11.702C13.6471 11.9732 13.0564 12.4844 12.8012 12.7715C12.4175 12.452 11.8264 12.0057 11.5071 11.7816V11.7182C11.6671 11.6379 11.7785 11.4304 11.7785 10.9519V1.40496C11.7785 1.022 11.747 0.766266 11.6189 0.590967L11.683 0.55884C11.9065 0.622861 12.242 0.894307 12.3539 1.21348H12.3859C12.6253 0.686997 12.9446 0.207659 13.6308 0L13.6791 0.0323594C13.5359 0.2555 13.424 0.543126 13.424 1.10162V4.61401C13.8392 4.29437 14.4939 3.70387 14.8927 3.35234C15.3876 3.70399 16.0749 4.11907 16.6655 4.50227V4.54999H16.6653Z" fill="#38322A"/>
<path d="M19.1399 8.046V10.4883C20.1139 11.1113 20.5134 11.2709 20.8006 11.2709C20.9124 11.2709 21.0246 11.2067 21.1366 11.0949L21.28 10.9517L21.5198 11.2069C21.1524 11.558 20.3853 12.3243 19.9858 12.7713C19.2996 12.3399 18.0381 11.6221 17.2236 11.223V11.1591C17.4153 11.0147 17.4951 10.8719 17.4951 10.3773V4.6301C18.3256 4.40603 19.4277 3.94311 20.3696 3.33643C20.7367 4.13424 21.5676 5.71554 22.0149 6.43315C21.4394 6.86418 20.0498 7.55106 19.1399 8.046ZM19.22 4.3902L19.1399 4.40603V7.63126C19.6349 7.39136 20.258 7.08802 20.5926 6.86418C20.1942 6.21036 19.4911 4.99688 19.22 4.3902Z" fill="#38322A"/>
<path d="M40.0896 11.5903C39.7229 11.9415 39.1951 12.4516 38.8762 12.7712C38.3646 12.3724 37.7108 11.909 37.3905 11.6859L36.1291 12.7712C35.6826 12.404 34.964 11.8774 34.4045 11.5105V11.446C34.5801 11.3346 34.6762 11.1905 34.6762 10.6476V8.84407C35.251 8.57286 35.7458 8.30095 36.0976 8.07734C35.4428 7.83849 34.8999 7.23181 34.8999 6.36997C34.8999 5.25206 35.4428 4.74129 35.9378 4.15033C36.1933 3.83127 36.3529 3.62396 36.5289 3.35205C37.2952 3.68798 38.6362 4.30991 39.515 4.63001V4.6931C39.3234 4.83744 39.2436 5.04475 39.2436 5.44412V11.1752C39.3872 11.3185 39.8824 11.6063 40.0579 11.542L40.0896 11.5903ZM37.5993 5.50721C36.912 5.09236 36.6089 4.90088 36.2893 4.90088C36.001 4.90088 35.2832 5.10865 35.2832 6.36997C35.2832 7.21563 36.0342 7.90251 37.0715 7.90251C37.2147 7.90251 37.4069 7.85467 37.5992 7.79076V5.50721H37.5993ZM37.5993 11.0787V8.15766C37.4228 8.22156 37.2476 8.2694 37.0559 8.2694C36.8158 8.2694 36.5442 8.20538 36.3377 8.14136C36.2575 8.28512 36.2252 8.52502 36.2252 8.81206V11.0633C36.4971 11.239 36.7042 11.4144 37.0075 11.5902L37.5993 11.0787Z" fill="#38322A"/>
<path d="M46.0333 16.1639C46.0333 15.5257 45.7454 15.0146 44.5317 15.0146C43.3018 15.0146 42.5359 15.8133 41.3384 15.8133C40.5556 15.8133 40.0127 15.3823 40.0127 14.5997C40.0127 13.466 40.8434 12.9392 42.2641 12.6038V12.5723L40.811 11.7897V11.7262C40.987 11.6301 41.0822 11.4228 41.0822 11.1032V5.19677C40.7155 4.9408 40.4438 4.82952 40.2521 4.84512L40.2367 4.79751C40.5079 4.54248 41.1301 3.96723 41.4818 3.60021C41.9603 3.96711 42.5838 4.4142 42.9986 4.68577V4.74967C42.8065 4.87678 42.7272 5.02112 42.7272 5.51594V11.2154C42.9824 11.375 43.5897 11.7102 44.0687 11.9655L44.1005 11.933V5.11657C43.9086 4.95675 43.7333 4.82941 43.5578 4.71755V4.70183C43.9086 4.39837 44.3879 3.93545 44.7075 3.6001C45.0428 3.87131 45.6337 4.334 46.017 4.60627V4.66936C45.8254 4.78157 45.7453 4.95675 45.7453 5.48381V12.2054C44.915 12.3487 43.7968 12.6038 42.8389 12.8598C41.7688 13.1474 40.4916 13.4981 40.4916 14.5034C40.4916 14.9671 40.7153 15.1902 41.2102 15.1902C42.1046 15.1902 43.1104 13.6891 44.3879 13.6891C45.6337 13.6891 46.2564 14.5032 46.2721 16.0205L46.0333 16.1639Z" fill="#38322A"/>
<path d="M33.9137 8.18214C33.9137 10.2812 32.4043 11.2672 29.9356 12.6189C28.3319 12.0943 27.1833 10.6921 25.3873 11.5531C24.9272 11.7738 24.1096 12.4918 24.1115 13.1619H23.8316C23.8316 13.1619 23.61 12.4939 24.9835 10.7264C25.8129 9.65927 25.9893 9.18412 25.9893 8.5637V7.38701H25.7852C25.0304 7.38701 24.5277 7.57791 24.2758 8.10252L24.1028 8.0711C24.1818 6.33754 25.0304 5.70129 25.9426 5.70129H25.9893V5.20857C25.9893 4.34988 26.4456 3.76147 27.6249 2.99812L27.5935 2.96634C27.0427 3.10951 26.5084 3.22068 26.0366 3.22068C25.0777 3.22068 24.2601 2.50516 23.6628 0.692335L23.82 0.48584C24.0084 0.803614 24.4645 1.63064 25.7852 1.63064C27.0274 1.63064 28.8039 1.07401 30.0617 1.07401C32.1529 1.07401 33.9137 1.98031 33.9137 5.06528V8.18214ZM28.4579 2.79139L28.3794 2.80734C28.1361 2.87345 27.4835 3.32963 27.4835 3.7588V7.65415C27.4835 8.79918 27.1845 9.39096 25.9893 10.3132L26.0055 10.3449C26.2252 10.2653 26.5073 10.1115 26.9456 10.1115C27.2757 10.1115 27.782 10.2017 28.4579 10.3449V2.79139ZM32.1265 5.14699C32.0949 3.39772 31.4608 2.68023 29.4326 2.68023C29.2599 2.68023 28.9923 2.712 28.7408 2.74367L28.7437 6.7198L32.1265 5.14699ZM32.1056 6.68756V5.47897L28.7409 7.03711V8.26176L32.1056 6.68756ZM32.1047 6.99998L28.7439 8.55113L28.7409 10.4087C29.7158 10.6311 30.8793 10.981 31.5866 11.2036C31.9167 10.9492 32.1056 10.3133 32.1056 9.04106L32.1047 6.99998Z" fill="#38322A"/>
</svg>
