<svg width="40" height="40" viewBox="0 0 40 40" fill="none" xmlns="http://www.w3.org/2000/svg">
<mask id="mask0_0_2634" style="mask-type:alpha" maskUnits="userSpaceOnUse" x="0" y="0" width="40" height="40">
<rect width="40" height="40" fill="#D9D9D9"/>
</mask>
<g mask="url(#mask0_0_2634)">
<path d="M6.66748 33.3322V26.6656H12.3083L19.1675 19.8064V14.986C18.2103 14.7318 17.4154 14.2345 16.7829 13.4939C16.1504 12.7536 15.8341 11.8878 15.8341 10.8964C15.8341 9.74251 16.2401 8.7596 17.0521 7.94765C17.864 7.13571 18.8469 6.72974 20.0008 6.72974C21.1547 6.72974 22.1376 7.13571 22.9496 7.94765C23.7615 8.7596 24.1675 9.74251 24.1675 10.8964C24.1675 11.8878 23.8512 12.7536 23.2187 13.4939C22.5862 14.2345 21.7914 14.7318 20.8341 14.986V19.8064L27.6933 26.6656H33.3341V33.3322H26.6675V28.0564L20.0008 21.3897L13.3341 28.0564V33.3322H6.66748Z" fill="#00AFBF"/>
</g>
</svg>
