<svg width="80" height="80" viewBox="0 0 80 80" fill="none" xmlns="http://www.w3.org/2000/svg">
<mask id="mask0_0_62" style="mask-type:alpha" maskUnits="userSpaceOnUse" x="0" y="0" width="80" height="80">
<rect width="80" height="80" fill="#D9D9D9"/>
</mask>
<g mask="url(#mask0_0_62)">
<path d="M7.14084 44.7816C5.88473 42.6966 4.93611 40.5728 4.295 38.41C3.65389 36.2478 3.33334 34.1111 3.33334 32C3.33334 26.8033 5.14528 22.393 8.76917 18.7691C12.3931 15.1453 16.8033 13.3333 22 13.3333C25.3717 13.3333 28.6089 14.2083 31.7117 15.9583C34.8139 17.7083 37.5767 20.2308 40 23.5258C42.4233 20.2308 45.1861 17.7083 48.2883 15.9583C51.3911 14.2083 54.6283 13.3333 58 13.3333C63.1967 13.3333 67.607 15.1453 71.2308 18.7691C74.8547 22.393 76.6667 26.8033 76.6667 32C76.6667 34.0255 76.3461 36.0983 75.705 38.2183C75.0639 40.3378 74.1153 42.5044 72.8592 44.7183C72.5114 44.2589 72.1008 43.848 71.6275 43.4858C71.1536 43.1236 70.6603 42.8205 70.1475 42.5766C71.2031 40.7005 71.9978 38.8844 72.5317 37.1283C73.0661 35.3716 73.3333 33.6622 73.3333 32C73.3333 27.7094 71.8506 24.0811 68.885 21.115C65.9189 18.1494 62.2906 16.6666 58 16.6666C54.5683 16.6666 51.452 17.6997 48.6508 19.7658C45.8492 21.8319 42.9656 24.7989 40 28.6666C37.0344 24.7861 34.1508 21.8161 31.3492 19.7566C28.5481 17.6966 25.4317 16.6666 22 16.6666C17.7094 16.6666 14.0811 18.1494 11.115 21.115C8.14945 24.0811 6.66667 27.7094 6.66667 32C6.66667 33.7478 6.93389 35.5105 7.46834 37.2883C8.00223 39.0661 8.77556 40.8503 9.78834 42.6408C9.27556 42.9275 8.79473 43.2416 8.34584 43.5833C7.8975 43.925 7.49584 44.3244 7.14084 44.7816ZM3.33334 70.1283V67.25C3.33334 65.19 4.42111 63.488 6.59667 62.1441C8.77223 60.8003 11.5953 60.1283 15.0658 60.1283C15.7014 60.1283 16.3097 60.1528 16.8908 60.2016C17.4719 60.2511 18.0256 60.3314 18.5517 60.4425C18.0728 61.2969 17.7031 62.1944 17.4425 63.135C17.1819 64.0755 17.0517 65.0775 17.0517 66.1408V70.1283H3.33334ZM23.3333 70.1283V66.3783C23.3333 63.6216 24.8745 61.4314 27.9567 59.8075C31.0383 58.1836 35.0586 57.3716 40.0175 57.3716C45.0231 57.3716 49.0492 58.1836 52.0958 59.8075C55.1431 61.4314 56.6667 63.6216 56.6667 66.3783V70.1283H23.3333ZM62.9483 70.1283V66.1408C62.9483 65.0775 62.832 64.0755 62.5992 63.135C62.3664 62.1944 62.0172 61.2969 61.5517 60.4425C62.0772 60.3314 62.6314 60.2511 63.2142 60.2016C63.797 60.1528 64.3922 60.1283 65 60.1283C68.5 60.1283 71.3195 60.8003 73.4583 62.1441C75.5972 63.488 76.6667 65.19 76.6667 67.25V70.1283H62.9483ZM39.9925 60.705C36.2325 60.705 33.1133 61.2072 30.635 62.2116C28.1561 63.2161 26.8653 64.5089 26.7625 66.09V66.795H53.2567V66.09C53.1411 64.5089 51.8578 63.2161 49.4067 62.2116C46.9561 61.2072 43.8181 60.705 39.9925 60.705ZM15.0642 56.9875C13.7597 56.9875 12.6431 56.5228 11.7142 55.5933C10.7853 54.6644 10.3208 53.5478 10.3208 52.2433C10.3208 50.9528 10.7853 49.8503 11.7142 48.9358C12.6431 48.0214 13.7597 47.5641 15.0642 47.5641C16.3547 47.5641 17.4681 48.0214 18.4042 48.9358C19.3397 49.8503 19.8075 50.9528 19.8075 52.2433C19.8075 53.5478 19.3397 54.6644 18.4042 55.5933C17.4681 56.5228 16.3547 56.9875 15.0642 56.9875ZM65 56.9875C63.7222 56.9875 62.6122 56.5228 61.67 55.5933C60.7278 54.6644 60.2567 53.5478 60.2567 52.2433C60.2567 50.9528 60.7278 49.8503 61.67 48.9358C62.6122 48.0214 63.7264 47.5641 65.0125 47.5641C66.3375 47.5641 67.4572 48.0214 68.3717 48.9358C69.2861 49.8503 69.7433 50.9528 69.7433 52.2433C69.7433 53.5478 69.2889 54.6644 68.38 55.5933C67.4706 56.5228 66.3439 56.9875 65 56.9875ZM40.0225 54.8716C37.9992 54.8716 36.2717 54.1611 34.84 52.74C33.4083 51.3194 32.6925 49.5941 32.6925 47.5641C32.6925 45.4936 33.4028 43.758 34.8233 42.3575C36.2444 40.9569 37.97 40.2566 40 40.2566C42.0706 40.2566 43.8061 40.9547 45.2067 42.3508C46.6072 43.7469 47.3075 45.4772 47.3075 47.5416C47.3075 49.565 46.6095 51.2925 45.2133 52.7241C43.8172 54.1558 42.0869 54.8716 40.0225 54.8716ZM40 43.59C38.9272 43.59 37.9967 43.9708 37.2083 44.7325C36.42 45.4941 36.0258 46.438 36.0258 47.5641C36.0258 48.6369 36.42 49.5675 37.2083 50.3558C37.9967 51.1441 38.9378 51.5383 40.0317 51.5383C41.1261 51.5383 42.0567 51.1441 42.8233 50.3558C43.5906 49.5675 43.9742 48.6261 43.9742 47.5316C43.9742 46.4378 43.5933 45.5072 42.8317 44.74C42.07 43.9733 41.1261 43.59 40 43.59Z" fill="#00AFBF"/>
</g>
</svg>
