<svg width="81" height="80" viewBox="0 0 81 80" fill="none" xmlns="http://www.w3.org/2000/svg">
<mask id="mask0_0_67" style="mask-type:alpha" maskUnits="userSpaceOnUse" x="0" y="0" width="81" height="80">
<rect x="0.333344" width="80" height="80" fill="#D9D9D9"/>
</mask>
<g mask="url(#mask0_0_67)">
<path d="M19.0517 66.6666C17.56 66.6666 16.2895 66.1422 15.24 65.0933C14.1911 64.0439 13.6667 62.7733 13.6667 61.2816V18.7183C13.6667 17.2266 14.1911 15.9561 15.24 14.9066C16.2895 13.8578 17.56 13.3333 19.0517 13.3333H61.615C63.1067 13.3333 64.3772 13.8578 65.4267 14.9066C66.4756 15.9561 67 17.2266 67 18.7183V28.5258H63.6667V18.7183C63.6667 18.12 63.4745 17.6283 63.09 17.2433C62.705 16.8589 62.2134 16.6666 61.615 16.6666H19.0517C18.4534 16.6666 17.9617 16.8589 17.5767 17.2433C17.1922 17.6283 17 18.12 17 18.7183V61.2816C17 61.88 17.1922 62.3716 17.5767 62.7566C17.9617 63.1411 18.4534 63.3333 19.0517 63.3333H61.615C62.2134 63.3333 62.705 63.1411 63.09 62.7566C63.4745 62.3716 63.6667 61.88 63.6667 61.2816V51.4741H67V61.2816C67 62.7733 66.4756 64.0439 65.4267 65.0933C64.3772 66.1422 63.1067 66.6666 61.615 66.6666H19.0517ZM45.7184 53.3333C44.2267 53.3333 42.9561 52.8089 41.9067 51.76C40.8578 50.7105 40.3334 49.44 40.3334 47.9483V32.0516C40.3334 30.56 40.8578 29.2894 41.9067 28.24C42.9561 27.1911 44.2267 26.6666 45.7184 26.6666H64.9484C66.44 26.6666 67.7106 27.1911 68.76 28.24C69.8089 29.2894 70.3334 30.56 70.3334 32.0516V47.9483C70.3334 49.44 69.8089 50.7105 68.76 51.76C67.7106 52.8089 66.44 53.3333 64.9484 53.3333H45.7184ZM64.9484 50C65.5467 50 66.0384 49.8078 66.4234 49.4233C66.8078 49.0383 67 48.5466 67 47.9483V32.0516C67 31.4533 66.8078 30.9616 66.4234 30.5766C66.0384 30.1922 65.5467 30 64.9484 30H45.7184C45.12 30 44.6284 30.1922 44.2434 30.5766C43.8589 30.9616 43.6667 31.4533 43.6667 32.0516V47.9483C43.6667 48.5466 43.8589 49.0383 44.2434 49.4233C44.6284 49.8078 45.12 50 45.7184 50H64.9484ZM53.6667 45C55.0556 45 56.2361 44.5139 57.2084 43.5416C58.1806 42.5694 58.6667 41.3889 58.6667 40C58.6667 38.6111 58.1806 37.4305 57.2084 36.4583C56.2361 35.4861 55.0556 35 53.6667 35C52.2778 35 51.0972 35.4861 50.125 36.4583C49.1528 37.4305 48.6667 38.6111 48.6667 40C48.6667 41.3889 49.1528 42.5694 50.125 43.5416C51.0972 44.5139 52.2778 45 53.6667 45Z" fill="#00AFBF"/>
</g>
</svg>
