<svg width="1440" height="620" viewBox="0 0 1440 620" fill="none" xmlns="http://www.w3.org/2000/svg">
<path opacity="0.1" d="M991.539 278.197H995.162V297.327H1002.41V363.743H995.162V382.873H991.539V363.743H984.294V297.327H991.539V278.197ZM954.581 179.888H958.204V248.523H965.45V384.363H958.204V414.241H954.581V384.363H947.336V248.523H954.581V179.888ZM1028.53 330.477H1032.15V335.471H1039.39V453.085H1032.15V516.229H1028.53V453.085H1021.28V335.471H1028.53V330.477ZM1065.48 177.639H1069.11V258.833H1076.35V410.123H1069.11V491.316H1065.48V410.123H1058.24V258.833H1065.48V177.639ZM806.693 282.783H810.316V310.383H817.561V435.883H810.316V494.354H806.693V435.883H799.448V310.383H806.693V282.783ZM1102.44 282.783H1106.06V310.383H1113.31V435.883H1106.06V463.483H1102.44V435.883H1095.2V310.383H1102.44V282.783ZM769.736 236.636H773.359V267.916H780.604V410.123H773.359V441.403H769.736V410.123H762.49V267.916H769.736V236.636ZM880.637 168.79H884.26V274.283H891.505V401.507H884.26V460.358H880.637V401.507H873.392V274.283H880.637V168.79ZM843.68 351.885H847.303V359.683H854.548V395.111H847.303V402.909H843.68V395.111H836.435V359.683H843.68V351.885ZM1287.29 227.261H1290.91V278.431H1298.15V461.672H1290.91V493.449H1287.29V461.672H1280.04V278.431H1287.29V227.261ZM1435.17 370.606H1438.8V419.732H1446.04V511.235H1438.8V560.36H1435.17V511.235H1427.93V419.732H1435.17V370.606ZM1398.19 301.358H1401.81V394.994H1409.06V584.514H1401.81V620H1398.19V584.514H1390.94V394.994H1398.19V301.358ZM1139.43 210.438H1143.05V235.614H1150.3V349.987H1143.05V375.163H1139.43V349.987H1132.18V235.614H1139.43V210.438ZM1324.27 401.127H1327.9V414.387H1335.14V474.669H1327.9V487.929H1324.27V474.669H1317.03V414.387H1324.27V401.127ZM1472.13 425.836H1475.75V458.109H1483V511.206H1475.75V522.889H1472.13V511.206H1464.89V458.109H1472.13V425.836ZM1176.38 326.125H1180.01V336.26H1187.25V382.318H1180.01V392.453H1176.38V382.318H1169.14V336.26H1176.38V326.125ZM732.749 181.436H736.372V192.798H743.617V341.371H736.372V352.732H732.749V341.371H725.504V192.798H732.749V181.436ZM1213.34 177.669H1216.96V229.568H1224.21V384.363H1216.96V436.262H1213.34V384.363H1206.1V229.568H1213.34V177.669ZM1250.33 146.33H1253.95V304.687H1261.2V427.296H1253.95V450.019H1250.33V427.296H1243.08V304.687H1250.33V146.33ZM917.595 48.6346H921.218V195.163H928.463V332.784H921.218V363.071H917.595V332.784H910.349V195.163H917.595V48.6346ZM1372.1 468.243H1364.85V490.703H1361.23V468.243H1353.98V308.221H1372.1V468.243ZM-36.7546 134.677V123.315H-33.132V134.677H-25.8865V186.372H-33.132V197.733H-36.7546V186.372H-44V134.677H-36.7546ZM185.048 -33.2602H188.671V93.4957H195.917V229.335H188.671V259.213H185.048V229.335H177.803V93.4957H185.048V-33.2602ZM222.006 26.3209H225.629V45.4511H232.874V208.744H225.629V305.388H222.006V208.744H214.76V45.4511H222.006V26.3209ZM295.95 22.6117H299.573V103.806H306.818V313.216H299.573V394.41H295.95V313.216H288.705V103.806H295.95V22.6117ZM148.091 -87H151.714V40.1648H158.959V177.785H151.714V208.073H148.091V177.785H140.846V40.1648H148.091V-87ZM702.599 173.959H706.222V206.233H713.467V259.33H706.222V271.012H702.599V259.33H695.353V206.233H702.599V173.959ZM0.202759 81.6379H3.82556V112.918H11.0709V255.124H3.82556V286.404H0.202759V255.124H-7.0426V112.918H0.202759V81.6379ZM37.1602 127.784H40.783V155.384H48.0283V280.884H40.783V339.355H37.1602V280.884H29.9148V155.384H37.1602V127.784ZM111.104 91.3052H114.727V119.285H121.973V246.508H114.727V305.359H111.104V246.508H103.859V119.285H111.104V91.3052ZM74.1469 177.523H77.7697V185.321H85.015V220.748H77.7697V228.546H74.1469V220.748H66.9015V185.321H74.1469V177.523ZM258.993 117.328H262.615V180.472H269.861V356.208H262.615V458.08H258.993V356.208H251.747V180.472H258.993V117.328ZM554.74 129.858H558.363V143.117H565.608V203.4H558.363V216.659H554.74V203.4H547.494V143.117H554.74V129.858ZM591.697 -56.2748H595.32V17.5882H602.565V196.974H595.32V277.555H591.697V196.974H584.452V17.5882H591.697V-56.2748ZM332.907 127.784H336.53V155.384H343.776V339.005H336.53V354.981H332.907V339.005H325.662V155.384H332.907V127.784ZM517.753 130.383H521.376V162.16H528.621V306.644H521.376V338.421H517.753V306.644H510.508V162.16H517.753V130.383ZM665.641 60.5801H669.264V90.3122H676.51V181.816H669.264V230.941H665.641V181.816H658.396V90.3122H665.641V60.5801ZM628.684 49.4816H632.307V65.6036H639.552V138.853H632.307V154.975H628.684V138.853H621.439V65.6036H628.684V49.4816ZM369.894 229.802H373.517V254.978H380.762V369.35H373.517V394.526H369.894V369.35H362.649V254.978H369.894V229.802ZM406.852 287.368H410.474V297.503H417.72V343.561H410.474V353.696H406.852V343.561H399.606V297.503H406.852V287.368ZM443.838 80.7909H447.461V132.691H454.706V229.364H447.461V281.264H443.838V229.364H436.593V132.691H443.838V80.7909ZM480.796 185.087H484.418V207.81H491.664V272.297H484.418V295.02H480.796V272.297H473.55V207.81H480.796V185.087Z" fill="#00AFBF"/>
</svg>
