<svg width="221" height="17" viewBox="0 0 221 17" fill="none" xmlns="http://www.w3.org/2000/svg">
<path d="M17.0894 8.07483C17.0894 4.43499 20.1256 1.5376 23.8379 1.5376C27.5501 1.5376 30.6045 4.43499 30.6045 8.07483C30.6045 11.7147 27.5682 14.594 23.8379 14.594C20.1075 14.594 17.0894 11.6966 17.0894 8.07483ZM27.6427 8.07483C27.6427 5.9199 25.9928 4.29012 23.8379 4.29012C21.6829 4.29012 20.0511 5.9199 20.0511 8.07483C20.0511 10.2298 21.701 11.8414 23.8379 11.8414C25.9747 11.8414 27.6427 10.1935 27.6427 8.07483Z" fill="#38322A"/>
<path d="M46.1458 1.9562V14.089C46.1458 14.252 46.0331 14.3606 45.8641 14.3606H43.2021C43.0512 14.3606 42.9406 14.3063 42.8641 14.1796L38.2524 6.19363V14.089C38.2524 14.252 38.1397 14.3606 37.9707 14.3606H35.6267C35.4576 14.3606 35.345 14.252 35.345 14.089V1.9562C35.345 1.79322 35.4576 1.68457 35.6267 1.68457H38.2705C38.4214 1.68457 38.5321 1.7389 38.6086 1.86566L43.2383 9.86969V1.9562C43.2383 1.79322 43.351 1.68457 43.52 1.68457H45.8641C46.0331 1.68457 46.1458 1.79322 46.1458 1.9562Z" fill="#38322A"/>
<path d="M59.2501 12.1494V14.087C59.2501 14.25 59.1375 14.3586 58.9684 14.3586H52.2944C52.1254 14.3586 52.0127 14.25 52.0127 14.087V1.9562C52.0127 1.79322 52.1254 1.68457 52.2944 1.68457H54.6385C54.8075 1.68457 54.9201 1.79322 54.9201 1.9562V11.8798H58.9684C59.1375 11.8798 59.2501 11.9884 59.2501 12.1514V12.1494Z" fill="#38322A"/>
<path d="M72.6547 2.01053L68.8298 8.52965V14.089C68.8298 14.252 68.7171 14.3606 68.5481 14.3606H66.1859C66.0169 14.3606 65.9042 14.252 65.9042 14.089V8.47532L62.0793 2.01053C61.9666 1.81133 62.041 1.68457 62.2664 1.68457H64.7412C64.8921 1.68457 65.0028 1.7389 65.0793 1.86566L67.367 5.84957L69.6547 1.86566C69.7292 1.7389 69.8418 1.68457 69.9928 1.68457H72.4676C72.693 1.68457 72.7674 1.81133 72.6547 2.01053Z" fill="#38322A"/>
<path d="M80.0383 3.33887H81.3461C81.4407 3.33887 81.5031 3.39923 81.5031 3.48977V10.2604C81.5031 10.3509 81.4407 10.4113 81.3461 10.4113H80.0383C79.9437 10.4113 79.8813 10.3509 79.8813 10.2604V3.48977C79.8813 3.39923 79.9437 3.33887 80.0383 3.33887Z" fill="#38322A"/>
<path d="M90.1731 3.48977V10.2604C90.1731 10.3509 90.1108 10.4113 90.0162 10.4113H88.5313C88.4468 10.4113 88.3844 10.3811 88.3422 10.3107L85.7687 5.85396V10.2604C85.7687 10.3509 85.7063 10.4113 85.6118 10.4113H84.3039C84.2093 10.4113 84.147 10.3509 84.147 10.2604V3.48977C84.147 3.39923 84.2093 3.33887 84.3039 3.33887H85.7788C85.8633 3.33887 85.9257 3.36905 85.9679 3.43947L88.5514 7.90628V3.49178C88.5514 3.40124 88.6138 3.34088 88.7083 3.34088H90.0162C90.1108 3.34088 90.1731 3.40124 90.1731 3.49178V3.48977Z" fill="#38322A"/>
<path d="M107.492 2.01053L103.667 8.52965V14.089C103.667 14.252 103.554 14.3606 103.385 14.3606H101.023C100.854 14.3606 100.741 14.252 100.741 14.089V8.47532L96.9164 2.01053C96.8037 1.81133 96.8782 1.68457 97.1035 1.68457H99.5784C99.7293 1.68457 99.84 1.7389 99.9164 1.86566L102.204 5.84957L104.492 1.86566C104.566 1.7389 104.679 1.68457 104.83 1.68457H107.305C107.53 1.68457 107.605 1.81133 107.492 2.01053Z" fill="#38322A"/>
<path d="M110.641 8.07483C110.641 4.43499 113.677 1.5376 117.389 1.5376C121.101 1.5376 124.156 4.43499 124.156 8.07483C124.156 11.7147 121.12 14.594 117.389 14.594C113.659 14.594 110.641 11.6966 110.641 8.07483ZM121.196 8.07483C121.196 5.9199 119.546 4.29012 117.391 4.29012C115.236 4.29012 113.604 5.9199 113.604 8.07483C113.604 10.2298 115.254 11.8414 117.391 11.8414C119.528 11.8414 121.196 10.1935 121.196 8.07483Z" fill="#38322A"/>
<path d="M138.534 1.9562V9.43508C138.534 12.7671 136.416 14.5961 133.492 14.5961C130.569 14.5961 128.43 12.7671 128.43 9.43508V1.9562C128.43 1.79322 128.542 1.68457 128.711 1.68457H131.055C131.224 1.68457 131.337 1.79322 131.337 1.9562V9.43508C131.337 10.9743 132.068 11.8254 133.492 11.8254C134.917 11.8254 135.629 10.9743 135.629 9.43508V1.9562C135.629 1.79322 135.742 1.68457 135.911 1.68457H138.255C138.424 1.68457 138.536 1.79322 138.536 1.9562H138.534Z" fill="#38322A"/>
<path d="M153.158 14.3586H150.665C150.514 14.3586 150.403 14.3043 150.327 14.1775L147.609 10.085H146.84V14.087C146.84 14.25 146.727 14.3586 146.558 14.3586H144.214C144.045 14.3586 143.933 14.25 143.933 14.087V1.9562C143.933 1.79322 144.045 1.68457 144.214 1.68457H148.208C151.357 1.68457 153.082 3.40489 153.082 5.88578C153.082 7.69665 152.162 9.10913 150.42 9.72482L153.343 14.0347C153.474 14.2339 153.381 14.3606 153.156 14.3606L153.158 14.3586ZM146.84 7.60409H148.152C149.182 7.60409 150.307 7.22381 150.307 5.88377C150.307 4.54373 149.182 4.16345 148.152 4.16345H146.84V7.60409Z" fill="#38322A"/>
<path d="M170.348 10.7368C170.348 13.2901 167.967 14.5758 165.736 14.5758C163.768 14.5758 162.006 13.6161 161.199 12.5839C161.104 12.4571 161.104 12.3304 161.217 12.2036L162.511 10.8092C162.605 10.6825 162.772 10.6463 162.923 10.773C163.879 11.5336 164.722 11.932 165.81 11.932C166.71 11.932 167.498 11.4793 167.498 10.6825C167.498 8.70863 161.555 9.34244 161.555 5.19555C161.555 2.87764 163.579 1.5376 165.736 1.5376C167.422 1.5376 168.754 2.20762 169.822 3.2217C169.973 3.34847 169.973 3.45712 169.861 3.60199L168.641 5.03257C168.529 5.19555 168.398 5.21366 168.247 5.10501C167.309 4.4712 166.692 4.18146 165.828 4.18146C164.891 4.18146 164.404 4.68851 164.404 5.24988C164.404 7.24183 170.348 6.31829 170.348 10.7368Z" fill="#38322A"/>
<path d="M182.739 1.9562V3.89383C182.739 4.05681 182.626 4.16546 182.457 4.16546H179.665V14.089C179.665 14.252 179.552 14.3606 179.383 14.3606H177.039C176.87 14.3606 176.757 14.252 176.757 14.089V4.16546H173.964C173.795 4.16546 173.683 4.05681 173.683 3.89383V1.9562C173.683 1.79322 173.795 1.68457 173.964 1.68457H182.457C182.626 1.68457 182.739 1.79322 182.739 1.9562Z" fill="#38322A"/>
<path d="M196.65 14.3587H194.213C194.062 14.3587 193.951 14.3044 193.895 14.1414L193.239 12.1856H188.609L187.953 14.1414C187.897 14.3044 187.784 14.3587 187.635 14.3587H185.199C184.994 14.3587 184.899 14.2319 184.973 14.0508L189.511 1.89992C189.567 1.75505 189.68 1.68262 189.829 1.68262H191.984C192.134 1.68262 192.283 1.75505 192.34 1.89992L196.877 14.0508C196.951 14.2319 196.859 14.3587 196.652 14.3587H196.65ZM192.468 9.92206L190.931 5.37679L189.394 9.92206H192.468Z" fill="#38322A"/>
<path d="M208.159 1.9562V3.89383C208.159 4.05681 208.047 4.16546 207.878 4.16546H205.085V14.089C205.085 14.252 204.972 14.3606 204.803 14.3606H202.459C202.29 14.3606 202.177 14.252 202.177 14.089V4.16546H199.385C199.216 4.16546 199.103 4.05681 199.103 3.89383V1.9562C199.103 1.79322 199.216 1.68457 199.385 1.68457H207.878C208.047 1.68457 208.159 1.79322 208.159 1.9562Z" fill="#38322A"/>
<path d="M220.512 12.1494V14.087C220.512 14.25 220.399 14.3586 220.23 14.3586H213.182C213.013 14.3586 212.9 14.25 212.9 14.087V1.9562C212.9 1.79322 213.013 1.68457 213.182 1.68457H220.212C220.381 1.68457 220.494 1.79322 220.494 1.9562V3.89383C220.494 4.05681 220.381 4.16546 220.212 4.16546H215.808V6.64635H219.951C220.12 6.64635 220.232 6.755 220.232 6.91798V8.8556C220.232 9.01858 220.12 9.12723 219.951 9.12723H215.808V11.8798H220.232C220.401 11.8798 220.514 11.9884 220.514 12.1514L220.512 12.1494Z" fill="#38322A"/>
<rect x="79.8499" y="12.1514" width="10.4024" height="0.774649" fill="#38322A"/>
<path d="M5.80005 0.493652C5.80005 0.493652 5.80608 0.509722 5.80608 0.517757C5.80608 0.574 5.80608 0.632253 5.80608 0.688496C5.80608 0.696531 5.80206 0.704566 5.80005 0.712601C5.80005 0.640287 5.80005 0.565966 5.80005 0.493652Z" fill="#38322A"/>
<path d="M5.80005 0.931641C5.80005 0.931641 5.80608 0.94771 5.80608 0.955745C5.80608 1.01199 5.80608 1.07024 5.80608 1.12648C5.80608 1.13452 5.80206 1.14255 5.80005 1.15059C5.80005 1.07828 5.80005 1.00395 5.80005 0.931641Z" fill="#38322A"/>
<path d="M5.80005 1.37256C5.80005 1.37256 5.80608 1.38863 5.80608 1.39666C5.80608 1.45291 5.80608 1.51116 5.80608 1.5674C5.80608 1.57544 5.80206 1.58347 5.80005 1.59151C5.80005 1.51919 5.80005 1.44487 5.80005 1.37256Z" fill="#38322A"/>
<path d="M5.80005 1.81299C5.80005 1.81299 5.80608 1.82906 5.80608 1.83709C5.80608 1.89334 5.80608 1.95159 5.80608 2.00783C5.80608 2.01587 5.80206 2.0239 5.80005 2.03194C5.80005 1.95962 5.80005 1.8853 5.80005 1.81299Z" fill="#38322A"/>
<path d="M5.80005 2.25391C5.80005 2.25391 5.80608 2.26998 5.80608 2.27801C5.80608 2.33425 5.80608 2.39251 5.80608 2.44875C5.80608 2.45679 5.80206 2.46482 5.80005 2.47285C5.80005 2.40054 5.80005 2.32622 5.80005 2.25391Z" fill="#38322A"/>
<path d="M5.80005 8.41309C5.80005 8.41309 5.80608 8.42916 5.80608 8.43719C5.80608 8.49343 5.80608 8.55169 5.80608 8.60793C5.80608 8.61596 5.80206 8.624 5.80005 8.63203C5.80005 8.55972 5.80005 8.4854 5.80005 8.41309Z" fill="#38322A"/>
<path d="M5.80005 8.85352C5.80005 8.85352 5.80608 8.86959 5.80608 8.87762C5.80608 8.93386 5.80608 8.99212 5.80608 9.04836C5.80608 9.05639 5.80206 9.06443 5.80005 9.07246C5.80005 9.00015 5.80005 8.92583 5.80005 8.85352Z" fill="#38322A"/>
<path d="M5.80005 9.29199C5.80005 9.29199 5.80608 9.30806 5.80608 9.3161C5.80608 9.37234 5.80608 9.43059 5.80608 9.48684C5.80608 9.49487 5.80206 9.50291 5.80005 9.51094C5.80005 9.43863 5.80005 9.36431 5.80005 9.29199Z" fill="#38322A"/>
<path d="M5.80005 9.73242C5.80005 9.73242 5.80608 9.74849 5.80608 9.75653C5.80608 9.81277 5.80608 9.87102 5.80608 9.92727C5.80608 9.9353 5.80206 9.94334 5.80005 9.95137C5.80005 9.87906 5.80005 9.80474 5.80005 9.73242Z" fill="#38322A"/>
<path d="M5.80005 10.1733C5.80005 10.1733 5.80608 10.1894 5.80608 10.1974C5.80608 10.2537 5.80608 10.3119 5.80608 10.3682C5.80608 10.3762 5.80206 10.3843 5.80005 10.3923C5.80005 10.32 5.80005 10.2457 5.80005 10.1733Z" fill="#38322A"/>
<path d="M5.80005 10.6118C5.80005 10.6118 5.80608 10.6279 5.80608 10.6359C5.80608 10.6922 5.80608 10.7504 5.80608 10.8067C5.80608 10.8147 5.80206 10.8227 5.80005 10.8308C5.80005 10.7585 5.80005 10.6841 5.80005 10.6118Z" fill="#38322A"/>
<path d="M5.80005 11.0532C5.80005 11.0532 5.80608 11.0693 5.80608 11.0773C5.80608 11.1336 5.80608 11.1918 5.80608 11.2481C5.80608 11.2561 5.80206 11.2641 5.80005 11.2722C5.80005 11.1999 5.80005 11.1255 5.80005 11.0532Z" fill="#38322A"/>
<path d="M5.80005 11.4937C5.80005 11.4937 5.80608 11.5097 5.80608 11.5178C5.80608 11.574 5.80608 11.6323 5.80608 11.6885C5.80608 11.6965 5.80206 11.7046 5.80005 11.7126C5.80005 11.6403 5.80005 11.566 5.80005 11.4937Z" fill="#38322A"/>
<path d="M5.80005 11.9341C5.80005 11.9341 5.80608 11.9502 5.80608 11.9582C5.80608 12.0144 5.80608 12.0727 5.80608 12.1289C5.80608 12.137 5.80206 12.145 5.80005 12.153C5.80005 12.0807 5.80005 12.0064 5.80005 11.9341Z" fill="#38322A"/>
<path d="M5.80005 12.3726C5.80005 12.3726 5.80608 12.3886 5.80608 12.3967C5.80608 12.4529 5.80608 12.5112 5.80608 12.5674C5.80608 12.5754 5.80206 12.5835 5.80005 12.5915C5.80005 12.5192 5.80005 12.4449 5.80005 12.3726Z" fill="#38322A"/>
<path d="M5.80005 12.8135C5.80005 12.8135 5.80608 12.8295 5.80608 12.8376C5.80608 12.8938 5.80608 12.9521 5.80608 13.0083C5.80608 13.0164 5.80206 13.0244 5.80005 13.0324C5.80005 12.9601 5.80005 12.8858 5.80005 12.8135Z" fill="#38322A"/>
<path d="M5.80005 13.2539C5.80005 13.2539 5.80608 13.27 5.80608 13.278C5.80608 13.3343 5.80608 13.3925 5.80608 13.4487C5.80608 13.4568 5.80206 13.4648 5.80005 13.4729C5.80005 13.4005 5.80005 13.3262 5.80005 13.2539Z" fill="#38322A"/>
<path d="M5.80005 13.6924C5.80005 13.6924 5.80608 13.7085 5.80608 13.7165C5.80608 13.7727 5.80608 13.831 5.80608 13.8872C5.80608 13.8953 5.80206 13.9033 5.80005 13.9113C5.80005 13.839 5.80005 13.7647 5.80005 13.6924Z" fill="#38322A"/>
<path d="M5.80005 14.1328C5.80005 14.1328 5.80608 14.1489 5.80608 14.1569C5.80608 14.2132 5.80608 14.2714 5.80608 14.3277C5.80608 14.3357 5.80206 14.3437 5.80005 14.3518C5.80005 14.2794 5.80005 14.2051 5.80005 14.1328Z" fill="#38322A"/>
<path d="M5.80005 14.5742C5.80005 14.5742 5.80608 14.5903 5.80608 14.5983C5.80608 14.6546 5.80608 14.7128 5.80608 14.7691C5.80608 14.7771 5.80206 14.7851 5.80005 14.7932C5.80005 14.7209 5.80005 14.6465 5.80005 14.5742Z" fill="#38322A"/>
<path d="M5.80005 15.0127C5.80005 15.0127 5.80608 15.0288 5.80608 15.0368C5.80608 15.093 5.80608 15.1513 5.80608 15.2075C5.80608 15.2156 5.80206 15.2236 5.80005 15.2316C5.80005 15.1593 5.80005 15.085 5.80005 15.0127Z" fill="#38322A"/>
<path d="M5.80005 15.4536C5.80005 15.4536 5.80608 15.4697 5.80608 15.4777C5.80608 15.534 5.80608 15.5922 5.80608 15.6485C5.80608 15.6565 5.80206 15.6645 5.80005 15.6726C5.80005 15.6002 5.80005 15.5259 5.80005 15.4536Z" fill="#38322A"/>
<path d="M5.80005 15.894C5.80005 15.894 5.80608 15.9101 5.80608 15.9181C5.80608 15.9744 5.80608 16.0326 5.80608 16.0889C5.80608 16.0969 5.80206 16.105 5.80005 16.113C5.80005 16.0407 5.80005 15.9664 5.80005 15.894Z" fill="#38322A"/>
<path d="M0.421572 4.97631C0.469862 2.14532 3.03526 -0.11424 5.82802 0.00447268V2.87168C2.26463 2.84552 2.26866 8.05277 5.82802 8.03466C5.82802 10.7429 5.82802 13.4532 5.82802 16.1614C5.77369 16.1614 5.71735 16.1614 5.66303 16.1614C4.83606 16.0508 4.3089 15.0246 3.96685 14.3727C3.28878 13.085 2.75357 11.7329 2.11172 10.429C1.50608 9.19965 0.890386 7.97027 0.596623 6.62219C0.47791 6.08094 0.413524 5.52963 0.421572 4.97631Z" fill="#38322A"/>
<path d="M11.2226 4.97723C11.1743 2.14825 8.60892 -0.11131 5.81616 0.0074024V2.87461C9.37955 2.84845 9.37552 8.0557 5.81616 8.03759C5.81616 10.7458 5.81616 13.4561 5.81616 16.1644C5.87049 16.1644 5.92683 16.1644 5.98115 16.1644C6.80811 16.0537 7.33528 15.0275 7.67733 14.3756C8.3554 13.0879 8.89061 11.7358 9.53246 10.432C10.1381 9.20258 10.7538 7.9732 11.0476 6.62511C11.1663 6.08588 11.2307 5.53256 11.2206 4.97924L11.2226 4.97723Z" fill="#38322A"/>
</svg>
